<?xml version="1.0" encoding="utf-8" standalone="no"?>
<!DOCTYPE svg PUBLIC "-//W3C//DTD SVG 1.1//EN"
  "http://www.w3.org/Graphics/SVG/1.1/DTD/svg11.dtd">
<svg xmlns:xlink="http://www.w3.org/1999/xlink" width="460.8pt" height="345.6pt" viewBox="0 0 460.8 345.6" xmlns="http://www.w3.org/2000/svg" version="1.1">
 <metadata>
  <rdf:RDF xmlns:dc="http://purl.org/dc/elements/1.1/" xmlns:cc="http://creativecommons.org/ns#" xmlns:rdf="http://www.w3.org/1999/02/22-rdf-syntax-ns#">
   <cc:Work>
    <dc:type rdf:resource="http://purl.org/dc/dcmitype/StillImage"/>
    <dc:date>2023-02-20T13:02:49.906500</dc:date>
    <dc:format>image/svg+xml</dc:format>
    <dc:creator>
     <cc:Agent>
      <dc:title>Matplotlib v3.5.2, https://matplotlib.org/</dc:title>
     </cc:Agent>
    </dc:creator>
   </cc:Work>
  </rdf:RDF>
 </metadata>
 <defs>
  <style type="text/css">*{stroke-linejoin: round; stroke-linecap: butt}</style>
 </defs>
 <g id="figure_1">
  <g id="patch_1">
   <path d="M 0 345.6 
L 460.8 345.6 
L 460.8 0 
L 0 0 
z
" style="fill: #ffffff"/>
  </g>
  <g id="axes_1">
   <g id="patch_2">
    <path d="M 57.6 119.740235 
L 414.72 119.740235 
L 414.72 41.472 
L 57.6 41.472 
z
" style="fill: #ffffff"/>
   </g>
   <g id="PathCollection_1">
    <defs>
     <path id="m0962e4869b" d="M 0 3 
C 0.795609 3 1.55874 2.683901 2.12132 2.12132 
C 2.683901 1.55874 3 0.795609 3 0 
C 3 -0.795609 2.683901 -1.55874 2.12132 -2.12132 
C 1.55874 -2.683901 0.795609 -3 0 -3 
C -0.795609 -3 -1.55874 -2.683901 -2.12132 -2.12132 
C -2.683901 -1.55874 -3 -0.795609 -3 0 
C -3 0.795609 -2.683901 1.55874 -2.12132 2.12132 
C -1.55874 2.683901 -0.795609 3 0 3 
z
" style="stroke: #1f77b4"/>
    </defs>
    <g clip-path="url(#pa6649b3412)">
     <use xlink:href="#m0962e4869b" x="78.271152" y="111.013357" style="fill: #1f77b4; stroke: #1f77b4"/>
     <use xlink:href="#m0962e4869b" x="81.951797" y="109.380969" style="fill: #1f77b4; stroke: #1f77b4"/>
     <use xlink:href="#m0962e4869b" x="88.771816" y="108.820835" style="fill: #1f77b4; stroke: #1f77b4"/>
     <use xlink:href="#m0962e4869b" x="99.922006" y="104.643841" style="fill: #1f77b4; stroke: #1f77b4"/>
     <use xlink:href="#m0962e4869b" x="102.195345" y="103.075467" style="fill: #1f77b4; stroke: #1f77b4"/>
     <use xlink:href="#m0962e4869b" x="115.943637" y="111.98959" style="fill: #1f77b4; stroke: #1f77b4"/>
     <use xlink:href="#m0962e4869b" x="118.541739" y="111.78154" style="fill: #1f77b4; stroke: #1f77b4"/>
     <use xlink:href="#m0962e4869b" x="119.949045" y="94.001307" style="fill: #1f77b4; stroke: #1f77b4"/>
     <use xlink:href="#m0962e4869b" x="124.062707" y="98.194305" style="fill: #1f77b4; stroke: #1f77b4"/>
     <use xlink:href="#m0962e4869b" x="138.135762" y="109.797068" style="fill: #1f77b4; stroke: #1f77b4"/>
     <use xlink:href="#m0962e4869b" x="143.440221" y="80.558106" style="fill: #1f77b4; stroke: #1f77b4"/>
     <use xlink:href="#m0962e4869b" x="149.394205" y="108.548771" style="fill: #1f77b4; stroke: #1f77b4"/>
     <use xlink:href="#m0962e4869b" x="156.972004" y="79.917954" style="fill: #1f77b4; stroke: #1f77b4"/>
     <use xlink:href="#m0962e4869b" x="168.230448" y="105.52405" style="fill: #1f77b4; stroke: #1f77b4"/>
     <use xlink:href="#m0962e4869b" x="175.591738" y="55.800211" style="fill: #1f77b4; stroke: #1f77b4"/>
     <use xlink:href="#m0962e4869b" x="192.912421" y="106.708332" style="fill: #1f77b4; stroke: #1f77b4"/>
     <use xlink:href="#m0962e4869b" x="203.521339" y="70.555725" style="fill: #1f77b4; stroke: #1f77b4"/>
     <use xlink:href="#m0962e4869b" x="210.774374" y="101.187018" style="fill: #1f77b4; stroke: #1f77b4"/>
     <use xlink:href="#m0962e4869b" x="221.05853" y="45.029647" style="fill: #1f77b4; stroke: #1f77b4"/>
     <use xlink:href="#m0962e4869b" x="256.024658" y="106.580302" style="fill: #1f77b4; stroke: #1f77b4"/>
     <use xlink:href="#m0962e4869b" x="271.180255" y="79.6939" style="fill: #1f77b4; stroke: #1f77b4"/>
     <use xlink:href="#m0962e4869b" x="272.587561" y="100.002736" style="fill: #1f77b4; stroke: #1f77b4"/>
     <use xlink:href="#m0962e4869b" x="287.310141" y="65.002402" style="fill: #1f77b4; stroke: #1f77b4"/>
     <use xlink:href="#m0962e4869b" x="319.678167" y="109.76506" style="fill: #1f77b4; stroke: #1f77b4"/>
     <use xlink:href="#m0962e4869b" x="320.760709" y="111.733529" style="fill: #1f77b4; stroke: #1f77b4"/>
     <use xlink:href="#m0962e4869b" x="351.504921" y="114.246127" style="fill: #1f77b4; stroke: #1f77b4"/>
     <use xlink:href="#m0962e4869b" x="365.902738" y="114.646222" style="fill: #1f77b4; stroke: #1f77b4"/>
     <use xlink:href="#m0962e4869b" x="373.155774" y="113.317906" style="fill: #1f77b4; stroke: #1f77b4"/>
     <use xlink:href="#m0962e4869b" x="387.120575" y="113.413929" style="fill: #1f77b4; stroke: #1f77b4"/>
    </g>
   </g>
   <g id="matplotlib.axis_1">
    <g id="xtick_1">
     <g id="line2d_1">
      <path d="M 63.007301 119.740235 
L 63.007301 41.472 
" clip-path="url(#pa6649b3412)" style="fill: none; stroke: #b0b0b0; stroke-width: 0.8; stroke-linecap: square"/>
     </g>
     <g id="line2d_2">
      <defs>
       <path id="mada88e843d" d="M 0 0 
L 0 3.5 
" style="stroke: #000000; stroke-width: 0.8"/>
      </defs>
      <g>
       <use xlink:href="#mada88e843d" x="63.007301" y="119.740235" style="stroke: #000000; stroke-width: 0.8"/>
      </g>
     </g>
    </g>
    <g id="xtick_2">
     <g id="line2d_3">
      <path d="M 117.134434 119.740235 
L 117.134434 41.472 
" clip-path="url(#pa6649b3412)" style="fill: none; stroke: #b0b0b0; stroke-width: 0.8; stroke-linecap: square"/>
     </g>
     <g id="line2d_4">
      <g>
       <use xlink:href="#mada88e843d" x="117.134434" y="119.740235" style="stroke: #000000; stroke-width: 0.8"/>
      </g>
     </g>
    </g>
    <g id="xtick_3">
     <g id="line2d_5">
      <path d="M 171.261567 119.740235 
L 171.261567 41.472 
" clip-path="url(#pa6649b3412)" style="fill: none; stroke: #b0b0b0; stroke-width: 0.8; stroke-linecap: square"/>
     </g>
     <g id="line2d_6">
      <g>
       <use xlink:href="#mada88e843d" x="171.261567" y="119.740235" style="stroke: #000000; stroke-width: 0.8"/>
      </g>
     </g>
    </g>
    <g id="xtick_4">
     <g id="line2d_7">
      <path d="M 225.3887 119.740235 
L 225.3887 41.472 
" clip-path="url(#pa6649b3412)" style="fill: none; stroke: #b0b0b0; stroke-width: 0.8; stroke-linecap: square"/>
     </g>
     <g id="line2d_8">
      <g>
       <use xlink:href="#mada88e843d" x="225.3887" y="119.740235" style="stroke: #000000; stroke-width: 0.8"/>
      </g>
     </g>
    </g>
    <g id="xtick_5">
     <g id="line2d_9">
      <path d="M 279.515834 119.740235 
L 279.515834 41.472 
" clip-path="url(#pa6649b3412)" style="fill: none; stroke: #b0b0b0; stroke-width: 0.8; stroke-linecap: square"/>
     </g>
     <g id="line2d_10">
      <g>
       <use xlink:href="#mada88e843d" x="279.515834" y="119.740235" style="stroke: #000000; stroke-width: 0.8"/>
      </g>
     </g>
    </g>
    <g id="xtick_6">
     <g id="line2d_11">
      <path d="M 333.642967 119.740235 
L 333.642967 41.472 
" clip-path="url(#pa6649b3412)" style="fill: none; stroke: #b0b0b0; stroke-width: 0.8; stroke-linecap: square"/>
     </g>
     <g id="line2d_12">
      <g>
       <use xlink:href="#mada88e843d" x="333.642967" y="119.740235" style="stroke: #000000; stroke-width: 0.8"/>
      </g>
     </g>
    </g>
    <g id="xtick_7">
     <g id="line2d_13">
      <path d="M 387.7701 119.740235 
L 387.7701 41.472 
" clip-path="url(#pa6649b3412)" style="fill: none; stroke: #b0b0b0; stroke-width: 0.8; stroke-linecap: square"/>
     </g>
     <g id="line2d_14">
      <g>
       <use xlink:href="#mada88e843d" x="387.7701" y="119.740235" style="stroke: #000000; stroke-width: 0.8"/>
      </g>
     </g>
    </g>
   </g>
   <g id="matplotlib.axis_2">
    <g id="ytick_1">
     <g id="line2d_15">
      <path d="M 57.6 83.998925 
L 414.72 83.998925 
" clip-path="url(#pa6649b3412)" style="fill: none; stroke: #b0b0b0; stroke-width: 0.8; stroke-linecap: square"/>
     </g>
     <g id="line2d_16">
      <defs>
       <path id="m78a659d858" d="M 0 0 
L -3.5 0 
" style="stroke: #000000; stroke-width: 0.8"/>
      </defs>
      <g>
       <use xlink:href="#m78a659d858" x="57.6" y="83.998925" style="stroke: #000000; stroke-width: 0.8"/>
      </g>
     </g>
    </g>
    <g id="ytick_2">
     <g id="line2d_17">
      <path d="M 57.6 45.029647 
L 414.72 45.029647 
" clip-path="url(#pa6649b3412)" style="fill: none; stroke: #b0b0b0; stroke-width: 0.8; stroke-linecap: square"/>
     </g>
     <g id="line2d_18">
      <g>
       <use xlink:href="#m78a659d858" x="57.6" y="45.029647" style="stroke: #000000; stroke-width: 0.8"/>
      </g>
     </g>
    </g>
    <g id="text_1">
     <!-- $I / \mathrm{AU}$ -->
     <g transform="translate(44.520313 90.856118)rotate(-90)scale(0.1 -0.1)">
      <defs>
       <path id="DejaVuSans-Oblique-49" d="M 1081 4666 
L 1716 4666 
L 806 0 
L 172 0 
L 1081 4666 
z
" transform="scale(0.015625)"/>
       <path id="DejaVuSans-2f" d="M 1625 4666 
L 2156 4666 
L 531 -594 
L 0 -594 
L 1625 4666 
z
" transform="scale(0.015625)"/>
       <path id="DejaVuSans-41" d="M 2188 4044 
L 1331 1722 
L 3047 1722 
L 2188 4044 
z
M 1831 4666 
L 2547 4666 
L 4325 0 
L 3669 0 
L 3244 1197 
L 1141 1197 
L 716 0 
L 50 0 
L 1831 4666 
z
" transform="scale(0.015625)"/>
       <path id="DejaVuSans-55" d="M 556 4666 
L 1191 4666 
L 1191 1831 
Q 1191 1081 1462 751 
Q 1734 422 2344 422 
Q 2950 422 3222 751 
Q 3494 1081 3494 1831 
L 3494 4666 
L 4128 4666 
L 4128 1753 
Q 4128 841 3676 375 
Q 3225 -91 2344 -91 
Q 1459 -91 1007 375 
Q 556 841 556 1753 
L 556 4666 
z
" transform="scale(0.015625)"/>
      </defs>
      <use xlink:href="#DejaVuSans-Oblique-49" transform="translate(0 0.09375)"/>
      <use xlink:href="#DejaVuSans-2f" transform="translate(29.492188 0.09375)"/>
      <use xlink:href="#DejaVuSans-41" transform="translate(63.183594 0.09375)"/>
      <use xlink:href="#DejaVuSans-55" transform="translate(131.591797 0.09375)"/>
     </g>
    </g>
   </g>
   <g id="line2d_19">
    <path d="M 73.832727 114.134101 
L 74.049236 114.150104 
L 74.698761 114.374158 
L 75.023524 114.150104 
L 75.781304 114.022074 
L 75.889558 114.038078 
L 76.106067 113.894043 
L 76.43083 113.862036 
L 76.539084 113.637982 
L 76.755592 113.685994 
L 77.513372 112.565727 
L 77.946389 111.349437 
L 78.271152 111.013357 
L 78.704169 111.797544 
L 79.137186 112.821788 
L 80.219729 113.701998 
L 80.544492 113.589971 
L 80.977509 112.933815 
L 81.194017 111.877563 
L 81.735289 109.63703 
L 82.060052 109.492995 
L 83.142594 113.109857 
L 83.575611 113.413929 
L 84.658154 114.00607 
L 84.874662 113.942055 
L 85.199425 114.070085 
L 86.390222 113.477944 
L 86.714985 113.557963 
L 86.931494 113.685994 
L 87.039748 113.557963 
L 87.364511 113.701998 
L 87.689273 113.109857 
L 87.905782 112.277658 
L 88.663562 108.916858 
L 88.771816 108.820835 
L 88.88007 108.948866 
L 89.421342 111.397449 
L 89.854359 112.645746 
L 90.287376 113.429933 
L 90.612139 113.766013 
L 91.045156 114.134101 
L 91.478173 114.358154 
L 91.802936 114.326146 
L 92.019444 114.374158 
L 93.42675 114.438173 
L 93.968021 114.598211 
L 94.292784 114.598211 
L 94.509292 114.710238 
L 94.725801 114.694234 
L 95.808343 113.381921 
L 96.024852 113.701998 
L 96.890886 114.454177 
L 96.99914 114.374158 
L 97.215649 114.422169 
L 97.432157 114.470181 
L 98.298192 114.278135 
L 99.055971 111.925575 
L 99.597243 106.964393 
L 99.922006 104.643841 
L 100.03026 104.771871 
L 100.246768 106.500283 
L 100.571531 110.021121 
L 100.896294 111.413453 
L 101.112802 111.733529 
L 101.221057 111.701521 
L 101.437565 111.013357 
L 101.654074 109.236935 
L 102.195345 103.075467 
L 102.303599 103.187494 
L 102.411854 103.459559 
L 102.520108 104.227742 
L 102.953125 109.492995 
L 103.277888 111.301426 
L 103.602651 112.229647 
L 104.035668 112.965822 
L 104.36043 113.365918 
L 105.009956 113.782017 
L 105.11821 113.766013 
L 105.442973 113.958059 
L 106.63377 114.198116 
L 107.066787 114.21412 
L 109.231872 114.742245 
L 109.448381 114.774253 
L 111.396958 114.982302 
L 111.613466 114.950295 
L 113.453789 114.854272 
L 113.670297 114.822264 
L 113.886806 114.870276 
L 114.536332 114.742245 
L 114.75284 114.774253 
L 115.077603 114.646222 
L 115.294111 114.182112 
L 115.835383 112.069609 
L 115.943637 111.98959 
L 116.809671 114.102093 
L 117.459197 114.358154 
L 117.675705 114.21412 
L 117.892214 113.79802 
L 118.541739 111.78154 
L 118.649994 111.861559 
L 118.866502 112.389685 
L 119.083011 112.085613 
L 119.299519 109.845079 
L 119.516028 105.107951 
L 119.840791 94.833505 
L 119.949045 94.001307 
L 120.165553 99.106523 
L 120.490316 107.124432 
L 120.815079 110.181159 
L 121.35635 112.085613 
L 121.681113 112.709761 
L 122.222384 113.33391 
L 122.547147 113.493948 
L 123.088419 113.429933 
L 123.304927 112.549723 
L 123.521436 109.733053 
L 124.062707 98.194305 
L 124.170961 98.834458 
L 124.712233 108.948866 
L 125.036995 110.789304 
L 125.686521 112.469704 
L 126.119538 113.061845 
L 126.444301 113.349914 
L 126.660809 113.397925 
L 126.877318 113.509952 
L 127.202081 113.766013 
L 127.526843 113.87804 
L 127.743352 114.038078 
L 128.609386 114.230123 
L 129.042403 114.438173 
L 129.367166 114.454177 
L 129.908437 114.518192 
L 130.2332 114.614215 
L 130.557963 114.67823 
L 130.774471 114.646222 
L 132.398285 114.822264 
L 132.723048 114.790257 
L 133.156065 114.774253 
L 133.372574 114.742245 
L 134.563371 114.838268 
L 134.671625 114.774253 
L 134.888134 114.854272 
L 135.321151 114.758249 
L 135.537659 114.838268 
L 137.161473 114.838268 
L 137.377982 114.534196 
L 137.702745 112.597735 
L 138.027507 109.909095 
L 138.135762 109.797068 
L 138.568779 112.853796 
L 138.785287 113.397925 
L 139.326559 114.054081 
L 139.86783 114.358154 
L 140.192593 114.422169 
L 140.517355 114.518192 
L 140.842118 114.614215 
L 141.058627 114.67823 
L 141.275135 114.710238 
L 141.491644 114.67823 
L 141.599898 114.726241 
L 141.816407 114.5502 
L 142.249424 114.486184 
L 142.574187 113.701998 
L 142.682441 113.12586 
L 142.898949 109.42898 
L 143.115458 99.522622 
L 143.440221 80.558106 
L 143.548475 81.998449 
L 143.981492 103.763631 
L 144.306255 108.324717 
L 144.631018 110.165156 
L 145.280543 111.861559 
L 146.363086 113.173872 
L 147.22912 113.653986 
L 147.337374 113.605975 
L 147.553883 112.965822 
L 147.9869 109.925098 
L 148.203408 111.493472 
L 148.419917 112.677754 
L 148.636425 113.045841 
L 148.74468 112.99783 
L 148.852934 112.773777 
L 148.961188 112.277658 
L 149.394205 108.548771 
L 150.043731 112.613739 
L 150.476748 113.301902 
L 150.909765 113.653986 
L 151.126274 113.79802 
L 151.342782 113.958059 
L 151.884053 114.022074 
L 152.100562 114.070085 
L 152.317071 114.134101 
L 152.533579 114.198116 
L 152.641833 114.102093 
L 152.858342 114.34215 
L 153.07485 114.34215 
L 153.399613 114.34215 
L 153.616122 114.438173 
L 154.482156 114.582207 
L 154.59041 114.534196 
L 154.915173 114.646222 
L 155.781207 114.470181 
L 155.997716 114.102093 
L 156.10597 114.150104 
L 156.214224 113.894043 
L 156.322478 113.33391 
L 156.430733 112.133624 
L 156.538987 108.724813 
L 156.972004 79.917954 
L 157.513275 107.364489 
L 157.729784 109.220931 
L 158.162801 110.837316 
L 158.812327 112.101617 
L 159.245344 112.645746 
L 159.570106 112.837792 
L 160.869158 113.701998 
L 161.735192 114.070085 
L 162.168209 114.198116 
L 162.492972 114.246127 
L 166.065362 114.662226 
L 167.472668 114.582207 
L 167.689176 114.118097 
L 167.905685 112.597735 
L 168.230448 105.52405 
L 168.338702 105.860131 
L 168.771719 111.589495 
L 169.096482 112.853796 
L 169.529499 113.413929 
L 169.746007 113.557963 
L 170.179025 114.038078 
L 170.503787 114.134101 
L 170.720296 114.150104 
L 171.478076 114.438173 
L 171.802839 114.438173 
L 172.127601 114.502188 
L 172.885381 114.67823 
L 173.10189 114.662226 
L 173.318398 114.758249 
L 173.534907 114.694234 
L 173.751415 114.67823 
L 174.076178 114.598211 
L 174.509195 114.406165 
L 174.833958 113.990066 
L 174.942212 113.718001 
L 175.050467 112.421693 
L 175.158721 109.781064 
L 175.266975 103.427551 
L 175.591738 55.800211 
L 175.699992 58.64889 
L 176.133009 102.275277 
L 176.457772 107.812595 
L 176.782535 109.861083 
L 177.323806 111.525479 
L 178.081586 112.4537 
L 178.298095 112.677754 
L 178.622857 112.949819 
L 180.46318 113.910047 
L 180.787943 113.910047 
L 181.437468 114.182112 
L 182.195248 114.390161 
L 182.411757 114.438173 
L 182.628265 114.438173 
L 182.953028 114.454177 
L 183.277791 114.454177 
L 184.468588 114.710238 
L 184.793351 114.67823 
L 185.442876 114.806261 
L 185.767639 114.758249 
L 186.525419 114.88628 
L 190.314318 114.918287 
L 190.530827 114.966299 
L 191.072098 114.950295 
L 191.180352 115.046318 
L 191.396861 115.01431 
L 192.046386 114.982302 
L 192.262895 114.742245 
L 192.371149 114.422169 
L 192.587658 111.013357 
L 192.804166 106.804355 
L 192.912421 106.708332 
L 193.345438 112.165632 
L 193.6702 113.221883 
L 194.103217 113.974062 
L 194.536235 114.246127 
L 194.860997 114.438173 
L 195.077506 114.422169 
L 195.510523 114.662226 
L 197.350845 114.870276 
L 197.675608 114.838268 
L 197.892117 114.88628 
L 198.108625 114.934291 
L 198.541642 115.030314 
L 199.191168 115.01431 
L 199.407676 114.966299 
L 199.732439 115.078325 
L 199.948948 115.078325 
L 200.381965 114.998306 
L 201.464508 115.078325 
L 201.572762 115.158344 
L 201.897525 115.030314 
L 202.438796 114.966299 
L 202.655304 114.662226 
L 202.763559 114.390161 
L 202.871813 113.605975 
L 202.980067 111.557487 
L 203.088322 107.140435 
L 203.521339 70.555725 
L 204.06261 104.899902 
L 204.387373 108.75682 
L 204.712136 110.43722 
L 205.253407 112.005594 
L 205.794678 112.949819 
L 206.985475 113.862036 
L 207.418492 114.102093 
L 207.743255 114.150104 
L 209.475323 114.598211 
L 210.124849 114.34215 
L 210.233103 113.846032 
L 210.341357 112.741769 
L 210.774374 101.187018 
L 210.990883 106.052176 
L 211.315646 110.917335 
L 211.640409 112.229647 
L 212.073426 113.157868 
L 213.264223 114.070085 
L 214.346765 114.438173 
L 214.996291 114.5502 
L 215.429308 114.598211 
L 215.645816 114.710238 
L 215.970579 114.67823 
L 216.403596 114.822264 
L 217.810902 114.918287 
L 218.02741 114.902283 
L 218.243919 114.838268 
L 219.326462 114.902283 
L 219.651224 114.822264 
L 219.867733 114.806261 
L 220.30075 113.750009 
L 220.409004 112.933815 
L 220.517258 110.005117 
L 220.733767 91.20064 
L 221.05853 45.029647 
L 221.166784 52.343388 
L 221.491547 98.00226 
L 221.708055 105.283993 
L 222.032818 108.804832 
L 222.465835 110.581255 
L 222.898852 111.413453 
L 223.440124 112.245651 
L 223.548378 112.309666 
L 223.873141 112.725765 
L 224.414412 113.141864 
L 225.713463 113.79802 
L 227.66204 114.358154 
L 227.878549 114.278135 
L 228.311566 114.486184 
L 228.528074 114.470181 
L 228.852837 114.598211 
L 229.1776 114.486184 
L 229.394108 114.582207 
L 229.610617 114.534196 
L 229.827125 114.630219 
L 230.043634 114.710238 
L 230.476651 114.870276 
L 231.017922 114.88628 
L 231.667448 114.982302 
L 231.883956 114.902283 
L 232.208719 115.046318 
L 232.533482 115.062322 
L 232.749991 114.982302 
L 234.26555 115.094329 
L 234.806822 115.190352 
L 235.131584 115.174348 
L 235.348093 115.158344 
L 235.78111 115.206356 
L 235.997619 115.238363 
L 239.570009 115.302379 
L 239.894772 115.382398 
L 240.977315 115.318382 
L 241.193823 115.382398 
L 241.410332 115.286375 
L 241.735095 115.286375 
L 242.601129 115.382398 
L 242.925892 115.414405 
L 243.467163 115.35039 
L 244.224943 115.446413 
L 244.333197 115.478421 
L 244.549706 115.430409 
L 244.766214 115.382398 
L 245.090977 115.414405 
L 245.523994 115.382398 
L 245.848757 115.398402 
L 246.065265 115.430409 
L 246.498282 115.478421 
L 246.714791 115.494424 
L 246.9313 115.382398 
L 248.122096 115.446413 
L 248.663368 115.478421 
L 251.910996 115.55844 
L 252.452267 115.606451 
L 252.77703 115.526432 
L 253.426556 115.606451 
L 253.859573 115.526432 
L 254.184335 115.446413 
L 254.617352 115.542436 
L 254.942115 115.414405 
L 255.158624 115.366394 
L 255.375132 114.67823 
L 255.591641 113.157868 
L 256.024658 106.580302 
L 256.132912 107.156439 
L 256.457675 111.829552 
L 256.674184 112.981826 
L 257.107201 113.87804 
L 257.86498 114.566203 
L 258.081489 114.646222 
L 258.62276 114.838268 
L 261.870388 115.334386 
L 261.978643 115.094329 
L 262.195151 115.238363 
L 264.360236 115.446413 
L 264.468491 115.446413 
L 264.576745 115.334386 
L 265.118016 115.494424 
L 268.690407 115.398402 
L 268.906916 115.398402 
L 269.123424 115.526432 
L 269.339933 115.366394 
L 269.664696 115.414405 
L 269.881204 115.35039 
L 270.205967 114.934291 
L 270.422475 112.99783 
L 270.638984 108.452748 
L 270.963747 92.256892 
L 271.180255 79.6939 
L 271.28851 80.174015 
L 271.829781 104.595829 
L 272.046289 105.540054 
L 272.262798 103.17149 
L 272.479306 100.082755 
L 272.587561 100.002736 
L 273.237086 110.069133 
L 273.670103 111.525479 
L 274.10312 112.341674 
L 275.185663 113.33391 
L 276.701223 114.102093 
L 277.783765 114.486184 
L 278.000274 114.502188 
L 278.216783 114.598211 
L 278.758054 114.694234 
L 281.789173 115.046318 
L 282.005682 114.982302 
L 282.655207 115.062322 
L 282.871716 115.062322 
L 283.088225 115.174348 
L 284.062513 115.126337 
L 284.387276 115.126337 
L 285.794581 115.046318 
L 286.119344 114.630219 
L 286.335853 113.301902 
L 286.552361 109.076896 
L 286.877124 94.401402 
L 287.310141 65.002402 
L 287.418395 66.71481 
L 287.959667 103.555582 
L 288.284429 107.74858 
L 288.609192 109.508999 
L 289.150463 111.205403 
L 290.016498 112.581731 
L 291.640312 113.66999 
L 293.047617 114.182112 
L 293.264126 114.230123 
L 293.588888 114.374158 
L 294.346668 114.614215 
L 294.88794 114.646222 
L 295.537465 114.758249 
L 295.753974 114.774253 
L 298.243822 115.030314 
L 299.21811 115.110333 
L 299.434619 115.174348 
L 300.300653 115.270371 
L 300.841924 115.254367 
L 301.274941 115.254367 
L 301.599704 115.318382 
L 301.816213 115.238363 
L 302.24923 115.35039 
L 302.898755 115.366394 
L 303.764789 115.398402 
L 304.089552 115.334386 
L 304.630824 115.398402 
L 304.847332 115.446413 
L 305.172095 115.414405 
L 305.388603 115.430409 
L 307.120672 115.510428 
L 307.33718 115.494424 
L 307.553689 115.478421 
L 307.986706 115.494424 
L 308.09496 115.206356 
L 308.419723 115.398402 
L 308.636231 115.398402 
L 309.177503 115.494424 
L 310.3683 115.55844 
L 310.693063 115.494424 
L 311.992114 115.574443 
L 312.208622 115.526432 
L 312.641639 115.55844 
L 312.966402 115.590447 
L 313.291165 115.590447 
L 313.724182 115.654462 
L 314.048945 115.590447 
L 318.054353 115.590447 
L 318.162607 115.734482 
L 318.595624 115.446413 
L 319.136895 113.637982 
L 319.678167 109.76506 
L 319.786421 109.845079 
L 320.219438 112.4537 
L 320.435947 112.501712 
L 320.652455 111.829552 
L 320.760709 111.733529 
L 320.868964 111.797544 
L 321.518489 113.974062 
L 322.059761 114.630219 
L 322.81754 114.966299 
L 324.549609 115.366394 
L 325.415643 115.382398 
L 326.173423 115.478421 
L 326.498185 115.526432 
L 326.931203 115.510428 
L 327.797237 115.654462 
L 328.338508 115.606451 
L 328.663271 115.670466 
L 329.637559 115.702474 
L 333.751221 115.798497 
L 333.96773 115.814501 
L 341.870291 115.910523 
L 343.061088 115.974539 
L 343.710614 115.89452 
L 346.849988 115.974539 
L 347.066496 116.006546 
L 347.93253 115.974539 
L 348.149039 115.974539 
L 348.582056 115.942531 
L 349.772853 116.02255 
L 350.422378 115.814501 
L 350.747141 115.510428 
L 351.180158 114.790257 
L 351.396667 114.310142 
L 351.504921 114.246127 
L 351.72143 114.582207 
L 352.046192 115.206356 
L 352.803972 115.654462 
L 353.236989 115.670466 
L 355.618583 115.926527 
L 356.159854 115.958535 
L 356.484617 115.942531 
L 359.515737 116.038554 
L 360.273517 116.038554 
L 360.598279 116.038554 
L 361.356059 116.038554 
L 361.572568 116.038554 
L 362.330348 116.086565 
L 362.546856 116.038554 
L 362.871619 116.02255 
L 363.088128 115.974539 
L 363.304636 116.038554 
L 364.17067 116.054558 
L 365.253213 115.462417 
L 365.577976 115.158344 
L 366.010993 114.67823 
L 366.335756 115.22236 
L 366.877027 115.702474 
L 369.583384 115.990543 
L 369.799892 115.974539 
L 370.124655 116.02255 
L 371.640215 115.958535 
L 372.28974 115.494424 
L 372.506249 115.126337 
L 372.939266 114.054081 
L 373.155774 113.317906 
L 373.264029 113.445937 
L 373.913554 115.030314 
L 374.238317 115.334386 
L 375.970385 115.734482 
L 376.186894 115.782493 
L 376.944674 115.910523 
L 377.810708 115.878516 
L 378.351979 115.926527 
L 379.542776 115.990543 
L 384.089455 116.070562 
L 384.522472 116.086565 
L 385.388506 116.070562 
L 386.362795 115.062322 
L 386.471049 114.934291 
L 387.120575 113.413929 
L 387.337083 114.166108 
L 387.661846 114.998306 
L 388.203117 115.494424 
L 389.502169 115.766489 
L 389.935186 115.862512 
L 390.368203 115.878516 
L 390.80122 115.926527 
L 391.883762 115.974539 
L 392.425034 116.006546 
L 393.182814 116.006546 
L 395.347899 116.102569 
L 395.88917 116.102569 
L 396.213933 116.118573 
L 396.538696 116.134577 
L 396.863459 116.102569 
L 397.296476 116.118573 
L 397.512984 116.070562 
L 398.054256 116.134577 
L 398.270764 116.102569 
L 398.487273 116.118573 
L 398.487273 116.118573 
" clip-path="url(#pa6649b3412)" style="fill: none; stroke: #1f77b4; stroke-width: 1.5; stroke-linecap: square"/>
   </g>
   <g id="patch_3">
    <path d="M 57.6 119.740235 
L 57.6 41.472 
" style="fill: none; stroke: #000000; stroke-width: 0.8; stroke-linejoin: miter; stroke-linecap: square"/>
   </g>
   <g id="patch_4">
    <path d="M 414.72 119.740235 
L 414.72 41.472 
" style="fill: none; stroke: #000000; stroke-width: 0.8; stroke-linejoin: miter; stroke-linecap: square"/>
   </g>
   <g id="patch_5">
    <path d="M 57.6 119.740235 
L 414.72 119.740235 
" style="fill: none; stroke: #000000; stroke-width: 0.8; stroke-linejoin: miter; stroke-linecap: square"/>
   </g>
   <g id="patch_6">
    <path d="M 57.6 41.472 
L 414.72 41.472 
" style="fill: none; stroke: #000000; stroke-width: 0.8; stroke-linejoin: miter; stroke-linecap: square"/>
   </g>
  </g>
  <g id="axes_2">
   <g id="patch_7">
    <path d="M 57.6 213.662118 
L 414.72 213.662118 
L 414.72 135.393882 
L 57.6 135.393882 
z
" style="fill: #ffffff"/>
   </g>
   <g id="PathCollection_2">
    <g clip-path="url(#p6098058de3)">
     <use xlink:href="#m0962e4869b" x="78.271152" y="204.299486" style="fill: #1f77b4; stroke: #1f77b4"/>
     <use xlink:href="#m0962e4869b" x="81.951797" y="203.843264" style="fill: #1f77b4; stroke: #1f77b4"/>
     <use xlink:href="#m0962e4869b" x="88.771816" y="203.019531" style="fill: #1f77b4; stroke: #1f77b4"/>
     <use xlink:href="#m0962e4869b" x="99.922006" y="201.638193" style="fill: #1f77b4; stroke: #1f77b4"/>
     <use xlink:href="#m0962e4869b" x="102.195345" y="201.346718" style="fill: #1f77b4; stroke: #1f77b4"/>
     <use xlink:href="#m0962e4869b" x="115.943637" y="199.614765" style="fill: #1f77b4; stroke: #1f77b4"/>
     <use xlink:href="#m0962e4869b" x="118.541739" y="199.276823" style="fill: #1f77b4; stroke: #1f77b4"/>
     <use xlink:href="#m0962e4869b" x="119.949045" y="199.082506" style="fill: #1f77b4; stroke: #1f77b4"/>
     <use xlink:href="#m0962e4869b" x="124.062707" y="198.541799" style="fill: #1f77b4; stroke: #1f77b4"/>
     <use xlink:href="#m0962e4869b" x="138.135762" y="196.661997" style="fill: #1f77b4; stroke: #1f77b4"/>
     <use xlink:href="#m0962e4869b" x="143.440221" y="195.918524" style="fill: #1f77b4; stroke: #1f77b4"/>
     <use xlink:href="#m0962e4869b" x="149.394205" y="195.090566" style="fill: #1f77b4; stroke: #1f77b4"/>
     <use xlink:href="#m0962e4869b" x="156.972004" y="194.009152" style="fill: #1f77b4; stroke: #1f77b4"/>
     <use xlink:href="#m0962e4869b" x="168.230448" y="192.374358" style="fill: #1f77b4; stroke: #1f77b4"/>
     <use xlink:href="#m0962e4869b" x="175.591738" y="191.271822" style="fill: #1f77b4; stroke: #1f77b4"/>
     <use xlink:href="#m0962e4869b" x="192.912421" y="188.640098" style="fill: #1f77b4; stroke: #1f77b4"/>
     <use xlink:href="#m0962e4869b" x="203.521339" y="186.937716" style="fill: #1f77b4; stroke: #1f77b4"/>
     <use xlink:href="#m0962e4869b" x="210.774374" y="185.754919" style="fill: #1f77b4; stroke: #1f77b4"/>
     <use xlink:href="#m0962e4869b" x="221.05853" y="184.022966" style="fill: #1f77b4; stroke: #1f77b4"/>
     <use xlink:href="#m0962e4869b" x="256.024658" y="177.804833" style="fill: #1f77b4; stroke: #1f77b4"/>
     <use xlink:href="#m0962e4869b" x="271.180255" y="174.890083" style="fill: #1f77b4; stroke: #1f77b4"/>
     <use xlink:href="#m0962e4869b" x="272.587561" y="174.636627" style="fill: #1f77b4; stroke: #1f77b4"/>
     <use xlink:href="#m0962e4869b" x="287.310141" y="171.662737" style="fill: #1f77b4; stroke: #1f77b4"/>
     <use xlink:href="#m0962e4869b" x="319.678167" y="164.654665" style="fill: #1f77b4; stroke: #1f77b4"/>
     <use xlink:href="#m0962e4869b" x="320.760709" y="164.405433" style="fill: #1f77b4; stroke: #1f77b4"/>
     <use xlink:href="#m0962e4869b" x="351.504921" y="157.017176" style="fill: #1f77b4; stroke: #1f77b4"/>
     <use xlink:href="#m0962e4869b" x="365.902738" y="153.261795" style="fill: #1f77b4; stroke: #1f77b4"/>
     <use xlink:href="#m0962e4869b" x="373.155774" y="151.289059" style="fill: #1f77b4; stroke: #1f77b4"/>
     <use xlink:href="#m0962e4869b" x="387.120575" y="147.398502" style="fill: #1f77b4; stroke: #1f77b4"/>
    </g>
   </g>
   <g id="PolyCollection_1">
    <path d="M 73.832727 199.629445 
L 73.832727 210.104471 
L 77.112066 209.705403 
L 80.391405 209.304545 
L 83.670744 208.901818 
L 86.950083 208.497141 
L 90.229421 208.090436 
L 93.50876 207.681622 
L 96.788099 207.270619 
L 100.067438 206.857349 
L 103.346777 206.441732 
L 106.626116 206.023687 
L 109.905455 205.603136 
L 113.184793 205.179999 
L 116.464132 204.754196 
L 119.743471 204.325648 
L 123.02281 203.894275 
L 126.302149 203.459997 
L 129.581488 203.022734 
L 132.860826 202.582408 
L 136.140165 202.138939 
L 139.419504 201.692246 
L 142.698843 201.242251 
L 145.978182 200.788874 
L 149.257521 200.332034 
L 152.53686 199.871654 
L 155.816198 199.407652 
L 159.095537 198.939949 
L 162.374876 198.468466 
L 165.654215 197.993124 
L 168.933554 197.513841 
L 172.212893 197.03054 
L 175.492231 196.54314 
L 178.77157 196.051561 
L 182.050909 195.555725 
L 185.330248 195.055551 
L 188.609587 194.550959 
L 191.888926 194.041871 
L 195.168264 193.528207 
L 198.447603 193.009887 
L 201.726942 192.486831 
L 205.006281 191.95896 
L 208.28562 191.426194 
L 211.564959 190.888453 
L 214.844298 190.345659 
L 218.123636 189.797731 
L 221.402975 189.24459 
L 224.682314 188.686155 
L 227.961653 188.122349 
L 231.240992 187.55309 
L 234.520331 186.9783 
L 237.799669 186.397898 
L 241.079008 185.811805 
L 244.358347 185.219942 
L 247.637686 184.622229 
L 250.917025 184.018586 
L 254.196364 183.408934 
L 257.475702 182.793193 
L 260.755041 182.171283 
L 264.03438 181.543125 
L 267.313719 180.90864 
L 270.593058 180.267747 
L 273.872397 179.620367 
L 277.151736 178.96642 
L 280.431074 178.305828 
L 283.710413 177.638509 
L 286.989752 176.964385 
L 290.269091 176.283376 
L 293.54843 175.595403 
L 296.827769 174.900385 
L 300.107107 174.198243 
L 303.386446 173.488898 
L 306.665785 172.77227 
L 309.945124 172.048279 
L 313.224463 171.316846 
L 316.503802 170.577891 
L 319.78314 169.831335 
L 323.062479 169.077098 
L 326.341818 168.315099 
L 329.621157 167.545261 
L 332.900496 166.767502 
L 336.179835 165.981744 
L 339.459174 165.187907 
L 342.738512 164.385912 
L 346.017851 163.575677 
L 349.29719 162.757125 
L 352.576529 161.930176 
L 355.855868 161.094749 
L 359.135207 160.250765 
L 362.414545 159.398145 
L 365.693884 158.536809 
L 368.973223 157.666677 
L 372.252562 156.78767 
L 375.531901 155.899709 
L 378.81124 155.002713 
L 382.090579 154.096603 
L 385.369917 153.181299 
L 388.649256 152.256722 
L 391.928595 151.322792 
L 395.207934 150.379429 
L 398.487273 149.426555 
L 398.487273 138.951529 
L 398.487273 138.951529 
L 395.207934 139.904404 
L 391.928595 140.847766 
L 388.649256 141.781696 
L 385.369917 142.706273 
L 382.090579 143.621577 
L 378.81124 144.527687 
L 375.531901 145.424683 
L 372.252562 146.312645 
L 368.973223 147.191652 
L 365.693884 148.061783 
L 362.414545 148.923119 
L 359.135207 149.775739 
L 355.855868 150.619723 
L 352.576529 151.45515 
L 349.29719 152.2821 
L 346.017851 153.100652 
L 342.738512 153.910886 
L 339.459174 154.712882 
L 336.179835 155.506719 
L 332.900496 156.292477 
L 329.621157 157.070235 
L 326.341818 157.840074 
L 323.062479 158.602072 
L 319.78314 159.356309 
L 316.503802 160.102866 
L 313.224463 160.841821 
L 309.945124 161.573254 
L 306.665785 162.297245 
L 303.386446 163.013873 
L 300.107107 163.723218 
L 296.827769 164.425359 
L 293.54843 165.120377 
L 290.269091 165.808351 
L 286.989752 166.48936 
L 283.710413 167.163484 
L 280.431074 167.830802 
L 277.151736 168.491395 
L 273.872397 169.145341 
L 270.593058 169.792721 
L 267.313719 170.433614 
L 264.03438 171.0681 
L 260.755041 171.696258 
L 257.475702 172.318167 
L 254.196364 172.933908 
L 250.917025 173.543561 
L 247.637686 174.147204 
L 244.358347 174.744917 
L 241.079008 175.33678 
L 237.799669 175.922872 
L 234.520331 176.503274 
L 231.240992 177.078064 
L 227.961653 177.647323 
L 224.682314 178.21113 
L 221.402975 178.769564 
L 218.123636 179.322705 
L 214.844298 179.870633 
L 211.564959 180.413428 
L 208.28562 180.951168 
L 205.006281 181.483934 
L 201.726942 182.011805 
L 198.447603 182.534861 
L 195.168264 183.053181 
L 191.888926 183.566846 
L 188.609587 184.075934 
L 185.330248 184.580525 
L 182.050909 185.080699 
L 178.77157 185.576535 
L 175.492231 186.068114 
L 172.212893 186.555514 
L 168.933554 187.038816 
L 165.654215 187.518098 
L 162.374876 187.993441 
L 159.095537 188.464924 
L 155.816198 188.932626 
L 152.53686 189.396628 
L 149.257521 189.857009 
L 145.978182 190.313848 
L 142.698843 190.767226 
L 139.419504 191.217221 
L 136.140165 191.663913 
L 132.860826 192.107383 
L 129.581488 192.547709 
L 126.302149 192.984971 
L 123.02281 193.419249 
L 119.743471 193.850622 
L 116.464132 194.279171 
L 113.184793 194.704974 
L 109.905455 195.128111 
L 106.626116 195.548662 
L 103.346777 195.966706 
L 100.067438 196.382324 
L 96.788099 196.795594 
L 93.50876 197.206596 
L 90.229421 197.61541 
L 86.950083 198.022116 
L 83.670744 198.426792 
L 80.391405 198.82952 
L 77.112066 199.230377 
L 73.832727 199.629445 
z
" clip-path="url(#p6098058de3)" style="fill: #ff7f0e"/>
   </g>
   <g id="matplotlib.axis_3">
    <g id="xtick_8">
     <g id="line2d_20">
      <path d="M 63.007301 213.662118 
L 63.007301 135.393882 
" clip-path="url(#p6098058de3)" style="fill: none; stroke: #b0b0b0; stroke-width: 0.8; stroke-linecap: square"/>
     </g>
     <g id="line2d_21">
      <g>
       <use xlink:href="#mada88e843d" x="63.007301" y="213.662118" style="stroke: #000000; stroke-width: 0.8"/>
      </g>
     </g>
    </g>
    <g id="xtick_9">
     <g id="line2d_22">
      <path d="M 117.134434 213.662118 
L 117.134434 135.393882 
" clip-path="url(#p6098058de3)" style="fill: none; stroke: #b0b0b0; stroke-width: 0.8; stroke-linecap: square"/>
     </g>
     <g id="line2d_23">
      <g>
       <use xlink:href="#mada88e843d" x="117.134434" y="213.662118" style="stroke: #000000; stroke-width: 0.8"/>
      </g>
     </g>
    </g>
    <g id="xtick_10">
     <g id="line2d_24">
      <path d="M 171.261567 213.662118 
L 171.261567 135.393882 
" clip-path="url(#p6098058de3)" style="fill: none; stroke: #b0b0b0; stroke-width: 0.8; stroke-linecap: square"/>
     </g>
     <g id="line2d_25">
      <g>
       <use xlink:href="#mada88e843d" x="171.261567" y="213.662118" style="stroke: #000000; stroke-width: 0.8"/>
      </g>
     </g>
    </g>
    <g id="xtick_11">
     <g id="line2d_26">
      <path d="M 225.3887 213.662118 
L 225.3887 135.393882 
" clip-path="url(#p6098058de3)" style="fill: none; stroke: #b0b0b0; stroke-width: 0.8; stroke-linecap: square"/>
     </g>
     <g id="line2d_27">
      <g>
       <use xlink:href="#mada88e843d" x="225.3887" y="213.662118" style="stroke: #000000; stroke-width: 0.8"/>
      </g>
     </g>
    </g>
    <g id="xtick_12">
     <g id="line2d_28">
      <path d="M 279.515834 213.662118 
L 279.515834 135.393882 
" clip-path="url(#p6098058de3)" style="fill: none; stroke: #b0b0b0; stroke-width: 0.8; stroke-linecap: square"/>
     </g>
     <g id="line2d_29">
      <g>
       <use xlink:href="#mada88e843d" x="279.515834" y="213.662118" style="stroke: #000000; stroke-width: 0.8"/>
      </g>
     </g>
    </g>
    <g id="xtick_13">
     <g id="line2d_30">
      <path d="M 333.642967 213.662118 
L 333.642967 135.393882 
" clip-path="url(#p6098058de3)" style="fill: none; stroke: #b0b0b0; stroke-width: 0.8; stroke-linecap: square"/>
     </g>
     <g id="line2d_31">
      <g>
       <use xlink:href="#mada88e843d" x="333.642967" y="213.662118" style="stroke: #000000; stroke-width: 0.8"/>
      </g>
     </g>
    </g>
    <g id="xtick_14">
     <g id="line2d_32">
      <path d="M 387.7701 213.662118 
L 387.7701 135.393882 
" clip-path="url(#p6098058de3)" style="fill: none; stroke: #b0b0b0; stroke-width: 0.8; stroke-linecap: square"/>
     </g>
     <g id="line2d_33">
      <g>
       <use xlink:href="#mada88e843d" x="387.7701" y="213.662118" style="stroke: #000000; stroke-width: 0.8"/>
      </g>
     </g>
    </g>
    <g id="text_2">
     <!-- $x / \mathrm{Steps}$ -->
     <g transform="translate(217.51 228.740243)scale(0.1 -0.1)">
      <defs>
       <path id="DejaVuSans-Oblique-78" d="M 3841 3500 
L 2234 1784 
L 3219 0 
L 2559 0 
L 1819 1388 
L 531 0 
L -166 0 
L 1556 1844 
L 641 3500 
L 1300 3500 
L 1972 2234 
L 3144 3500 
L 3841 3500 
z
" transform="scale(0.015625)"/>
       <path id="DejaVuSans-53" d="M 3425 4513 
L 3425 3897 
Q 3066 4069 2747 4153 
Q 2428 4238 2131 4238 
Q 1616 4238 1336 4038 
Q 1056 3838 1056 3469 
Q 1056 3159 1242 3001 
Q 1428 2844 1947 2747 
L 2328 2669 
Q 3034 2534 3370 2195 
Q 3706 1856 3706 1288 
Q 3706 609 3251 259 
Q 2797 -91 1919 -91 
Q 1588 -91 1214 -16 
Q 841 59 441 206 
L 441 856 
Q 825 641 1194 531 
Q 1563 422 1919 422 
Q 2459 422 2753 634 
Q 3047 847 3047 1241 
Q 3047 1584 2836 1778 
Q 2625 1972 2144 2069 
L 1759 2144 
Q 1053 2284 737 2584 
Q 422 2884 422 3419 
Q 422 4038 858 4394 
Q 1294 4750 2059 4750 
Q 2388 4750 2728 4690 
Q 3069 4631 3425 4513 
z
" transform="scale(0.015625)"/>
       <path id="DejaVuSans-74" d="M 1172 4494 
L 1172 3500 
L 2356 3500 
L 2356 3053 
L 1172 3053 
L 1172 1153 
Q 1172 725 1289 603 
Q 1406 481 1766 481 
L 2356 481 
L 2356 0 
L 1766 0 
Q 1100 0 847 248 
Q 594 497 594 1153 
L 594 3053 
L 172 3053 
L 172 3500 
L 594 3500 
L 594 4494 
L 1172 4494 
z
" transform="scale(0.015625)"/>
       <path id="DejaVuSans-65" d="M 3597 1894 
L 3597 1613 
L 953 1613 
Q 991 1019 1311 708 
Q 1631 397 2203 397 
Q 2534 397 2845 478 
Q 3156 559 3463 722 
L 3463 178 
Q 3153 47 2828 -22 
Q 2503 -91 2169 -91 
Q 1331 -91 842 396 
Q 353 884 353 1716 
Q 353 2575 817 3079 
Q 1281 3584 2069 3584 
Q 2775 3584 3186 3129 
Q 3597 2675 3597 1894 
z
M 3022 2063 
Q 3016 2534 2758 2815 
Q 2500 3097 2075 3097 
Q 1594 3097 1305 2825 
Q 1016 2553 972 2059 
L 3022 2063 
z
" transform="scale(0.015625)"/>
       <path id="DejaVuSans-70" d="M 1159 525 
L 1159 -1331 
L 581 -1331 
L 581 3500 
L 1159 3500 
L 1159 2969 
Q 1341 3281 1617 3432 
Q 1894 3584 2278 3584 
Q 2916 3584 3314 3078 
Q 3713 2572 3713 1747 
Q 3713 922 3314 415 
Q 2916 -91 2278 -91 
Q 1894 -91 1617 61 
Q 1341 213 1159 525 
z
M 3116 1747 
Q 3116 2381 2855 2742 
Q 2594 3103 2138 3103 
Q 1681 3103 1420 2742 
Q 1159 2381 1159 1747 
Q 1159 1113 1420 752 
Q 1681 391 2138 391 
Q 2594 391 2855 752 
Q 3116 1113 3116 1747 
z
" transform="scale(0.015625)"/>
       <path id="DejaVuSans-73" d="M 2834 3397 
L 2834 2853 
Q 2591 2978 2328 3040 
Q 2066 3103 1784 3103 
Q 1356 3103 1142 2972 
Q 928 2841 928 2578 
Q 928 2378 1081 2264 
Q 1234 2150 1697 2047 
L 1894 2003 
Q 2506 1872 2764 1633 
Q 3022 1394 3022 966 
Q 3022 478 2636 193 
Q 2250 -91 1575 -91 
Q 1294 -91 989 -36 
Q 684 19 347 128 
L 347 722 
Q 666 556 975 473 
Q 1284 391 1588 391 
Q 1994 391 2212 530 
Q 2431 669 2431 922 
Q 2431 1156 2273 1281 
Q 2116 1406 1581 1522 
L 1381 1569 
Q 847 1681 609 1914 
Q 372 2147 372 2553 
Q 372 3047 722 3315 
Q 1072 3584 1716 3584 
Q 2034 3584 2315 3537 
Q 2597 3491 2834 3397 
z
" transform="scale(0.015625)"/>
      </defs>
      <use xlink:href="#DejaVuSans-Oblique-78" transform="translate(0 0.78125)"/>
      <use xlink:href="#DejaVuSans-2f" transform="translate(59.179688 0.78125)"/>
      <use xlink:href="#DejaVuSans-53" transform="translate(92.871094 0.78125)"/>
      <use xlink:href="#DejaVuSans-74" transform="translate(156.347656 0.78125)"/>
      <use xlink:href="#DejaVuSans-65" transform="translate(195.556641 0.78125)"/>
      <use xlink:href="#DejaVuSans-70" transform="translate(257.080078 0.78125)"/>
      <use xlink:href="#DejaVuSans-73" transform="translate(320.556641 0.78125)"/>
     </g>
    </g>
   </g>
   <g id="matplotlib.axis_4">
    <g id="ytick_3">
     <g id="line2d_34">
      <path d="M 57.6 202.318301 
L 414.72 202.318301 
" clip-path="url(#p6098058de3)" style="fill: none; stroke: #b0b0b0; stroke-width: 0.8; stroke-linecap: square"/>
     </g>
     <g id="line2d_35">
      <g>
       <use xlink:href="#m78a659d858" x="57.6" y="202.318301" style="stroke: #000000; stroke-width: 0.8"/>
      </g>
     </g>
     <g id="text_3">
      <!-- 500 -->
      <g transform="translate(31.5125 206.11752)scale(0.1 -0.1)">
       <defs>
        <path id="DejaVuSans-35" d="M 691 4666 
L 3169 4666 
L 3169 4134 
L 1269 4134 
L 1269 2991 
Q 1406 3038 1543 3061 
Q 1681 3084 1819 3084 
Q 2600 3084 3056 2656 
Q 3513 2228 3513 1497 
Q 3513 744 3044 326 
Q 2575 -91 1722 -91 
Q 1428 -91 1123 -41 
Q 819 9 494 109 
L 494 744 
Q 775 591 1075 516 
Q 1375 441 1709 441 
Q 2250 441 2565 725 
Q 2881 1009 2881 1497 
Q 2881 1984 2565 2268 
Q 2250 2553 1709 2553 
Q 1456 2553 1204 2497 
Q 953 2441 691 2322 
L 691 4666 
z
" transform="scale(0.015625)"/>
        <path id="DejaVuSans-30" d="M 2034 4250 
Q 1547 4250 1301 3770 
Q 1056 3291 1056 2328 
Q 1056 1369 1301 889 
Q 1547 409 2034 409 
Q 2525 409 2770 889 
Q 3016 1369 3016 2328 
Q 3016 3291 2770 3770 
Q 2525 4250 2034 4250 
z
M 2034 4750 
Q 2819 4750 3233 4129 
Q 3647 3509 3647 2328 
Q 3647 1150 3233 529 
Q 2819 -91 2034 -91 
Q 1250 -91 836 529 
Q 422 1150 422 2328 
Q 422 3509 836 4129 
Q 1250 4750 2034 4750 
z
" transform="scale(0.015625)"/>
       </defs>
       <use xlink:href="#DejaVuSans-35"/>
       <use xlink:href="#DejaVuSans-30" x="63.623047"/>
       <use xlink:href="#DejaVuSans-30" x="127.246094"/>
      </g>
     </g>
    </g>
    <g id="ytick_4">
     <g id="line2d_36">
      <path d="M 57.6 160.075551 
L 414.72 160.075551 
" clip-path="url(#p6098058de3)" style="fill: none; stroke: #b0b0b0; stroke-width: 0.8; stroke-linecap: square"/>
     </g>
     <g id="line2d_37">
      <g>
       <use xlink:href="#m78a659d858" x="57.6" y="160.075551" style="stroke: #000000; stroke-width: 0.8"/>
      </g>
     </g>
     <g id="text_4">
      <!-- 600 -->
      <g transform="translate(31.5125 163.87477)scale(0.1 -0.1)">
       <defs>
        <path id="DejaVuSans-36" d="M 2113 2584 
Q 1688 2584 1439 2293 
Q 1191 2003 1191 1497 
Q 1191 994 1439 701 
Q 1688 409 2113 409 
Q 2538 409 2786 701 
Q 3034 994 3034 1497 
Q 3034 2003 2786 2293 
Q 2538 2584 2113 2584 
z
M 3366 4563 
L 3366 3988 
Q 3128 4100 2886 4159 
Q 2644 4219 2406 4219 
Q 1781 4219 1451 3797 
Q 1122 3375 1075 2522 
Q 1259 2794 1537 2939 
Q 1816 3084 2150 3084 
Q 2853 3084 3261 2657 
Q 3669 2231 3669 1497 
Q 3669 778 3244 343 
Q 2819 -91 2113 -91 
Q 1303 -91 875 529 
Q 447 1150 447 2328 
Q 447 3434 972 4092 
Q 1497 4750 2381 4750 
Q 2619 4750 2861 4703 
Q 3103 4656 3366 4563 
z
" transform="scale(0.015625)"/>
       </defs>
       <use xlink:href="#DejaVuSans-36"/>
       <use xlink:href="#DejaVuSans-30" x="63.623047"/>
       <use xlink:href="#DejaVuSans-30" x="127.246094"/>
      </g>
     </g>
    </g>
    <g id="text_5">
     <!-- $\lambda / \mathrm{nm}$ -->
     <g transform="translate(25.432812 187.228)rotate(-90)scale(0.1 -0.1)">
      <defs>
       <path id="DejaVuSans-Oblique-3bb" d="M 2350 4316 
L 3125 0 
L 2516 0 
L 2038 2588 
L 328 0 
L -281 0 
L 1903 3356 
L 1794 3975 
Q 1725 4369 1391 4369 
L 1091 4369 
L 1184 4863 
L 1550 4856 
Q 2253 4847 2350 4316 
z
" transform="scale(0.015625)"/>
       <path id="DejaVuSans-6e" d="M 3513 2113 
L 3513 0 
L 2938 0 
L 2938 2094 
Q 2938 2591 2744 2837 
Q 2550 3084 2163 3084 
Q 1697 3084 1428 2787 
Q 1159 2491 1159 1978 
L 1159 0 
L 581 0 
L 581 3500 
L 1159 3500 
L 1159 2956 
Q 1366 3272 1645 3428 
Q 1925 3584 2291 3584 
Q 2894 3584 3203 3211 
Q 3513 2838 3513 2113 
z
" transform="scale(0.015625)"/>
       <path id="DejaVuSans-6d" d="M 3328 2828 
Q 3544 3216 3844 3400 
Q 4144 3584 4550 3584 
Q 5097 3584 5394 3201 
Q 5691 2819 5691 2113 
L 5691 0 
L 5113 0 
L 5113 2094 
Q 5113 2597 4934 2840 
Q 4756 3084 4391 3084 
Q 3944 3084 3684 2787 
Q 3425 2491 3425 1978 
L 3425 0 
L 2847 0 
L 2847 2094 
Q 2847 2600 2669 2842 
Q 2491 3084 2119 3084 
Q 1678 3084 1418 2786 
Q 1159 2488 1159 1978 
L 1159 0 
L 581 0 
L 581 3500 
L 1159 3500 
L 1159 2956 
Q 1356 3278 1631 3431 
Q 1906 3584 2284 3584 
Q 2666 3584 2933 3390 
Q 3200 3197 3328 2828 
z
" transform="scale(0.015625)"/>
      </defs>
      <use xlink:href="#DejaVuSans-Oblique-3bb" transform="translate(0 0.015625)"/>
      <use xlink:href="#DejaVuSans-2f" transform="translate(59.179688 0.015625)"/>
      <use xlink:href="#DejaVuSans-6e" transform="translate(92.871094 0.015625)"/>
      <use xlink:href="#DejaVuSans-6d" transform="translate(156.25 0.015625)"/>
     </g>
    </g>
   </g>
   <g id="line2d_38">
    <path d="M 73.832727 204.866958 
L 77.112066 204.46789 
L 80.391405 204.067033 
L 83.670744 203.664305 
L 86.950083 203.259628 
L 90.229421 202.852923 
L 93.50876 202.444109 
L 96.788099 202.033106 
L 100.067438 201.619836 
L 103.346777 201.204219 
L 106.626116 200.786175 
L 109.905455 200.365624 
L 113.184793 199.942486 
L 116.464132 199.516683 
L 119.743471 199.088135 
L 123.02281 198.656762 
L 126.302149 198.222484 
L 129.581488 197.785222 
L 132.860826 197.344896 
L 136.140165 196.901426 
L 139.419504 196.454734 
L 142.698843 196.004738 
L 145.978182 195.551361 
L 149.257521 195.094522 
L 152.53686 194.634141 
L 155.816198 194.170139 
L 159.095537 193.702436 
L 162.374876 193.230954 
L 165.654215 192.755611 
L 168.933554 192.276328 
L 172.212893 191.793027 
L 175.492231 191.305627 
L 178.77157 190.814048 
L 182.050909 190.318212 
L 185.330248 189.818038 
L 188.609587 189.313447 
L 191.888926 188.804359 
L 195.168264 188.290694 
L 198.447603 187.772374 
L 201.726942 187.249318 
L 205.006281 186.721447 
L 208.28562 186.188681 
L 211.564959 185.65094 
L 214.844298 185.108146 
L 218.123636 184.560218 
L 221.402975 184.007077 
L 224.682314 183.448643 
L 227.961653 182.884836 
L 231.240992 182.315577 
L 234.520331 181.740787 
L 237.799669 181.160385 
L 241.079008 180.574293 
L 244.358347 179.98243 
L 247.637686 179.384716 
L 250.917025 178.781074 
L 254.196364 178.171421 
L 257.475702 177.55568 
L 260.755041 176.93377 
L 264.03438 176.305613 
L 267.313719 175.671127 
L 270.593058 175.030234 
L 273.872397 174.382854 
L 277.151736 173.728908 
L 280.431074 173.068315 
L 283.710413 172.400996 
L 286.989752 171.726872 
L 290.269091 171.045864 
L 293.54843 170.35789 
L 296.827769 169.662872 
L 300.107107 168.960731 
L 303.386446 168.251386 
L 306.665785 167.534757 
L 309.945124 166.810767 
L 313.224463 166.079334 
L 316.503802 165.340379 
L 319.78314 164.593822 
L 323.062479 163.839585 
L 326.341818 163.077587 
L 329.621157 162.307748 
L 332.900496 161.52999 
L 336.179835 160.744232 
L 339.459174 159.950395 
L 342.738512 159.148399 
L 346.017851 158.338165 
L 349.29719 157.519612 
L 352.576529 156.692663 
L 355.855868 155.857236 
L 359.135207 155.013252 
L 362.414545 154.160632 
L 365.693884 153.299296 
L 368.973223 152.429164 
L 372.252562 151.550158 
L 375.531901 150.662196 
L 378.81124 149.7652 
L 382.090579 148.85909 
L 385.369917 147.943786 
L 388.649256 147.019209 
L 391.928595 146.085279 
L 395.207934 145.141917 
L 398.487273 144.189042 
" clip-path="url(#p6098058de3)" style="fill: none; stroke-dasharray: 5.55,2.4; stroke-dashoffset: 0; stroke: #ff0000; stroke-width: 1.5"/>
   </g>
   <g id="patch_8">
    <path d="M 57.6 213.662118 
L 57.6 135.393882 
" style="fill: none; stroke: #000000; stroke-width: 0.8; stroke-linejoin: miter; stroke-linecap: square"/>
   </g>
   <g id="patch_9">
    <path d="M 414.72 213.662118 
L 414.72 135.393882 
" style="fill: none; stroke: #000000; stroke-width: 0.8; stroke-linejoin: miter; stroke-linecap: square"/>
   </g>
   <g id="patch_10">
    <path d="M 57.6 213.662118 
L 414.72 213.662118 
" style="fill: none; stroke: #000000; stroke-width: 0.8; stroke-linejoin: miter; stroke-linecap: square"/>
   </g>
   <g id="patch_11">
    <path d="M 57.6 135.393882 
L 414.72 135.393882 
" style="fill: none; stroke: #000000; stroke-width: 0.8; stroke-linejoin: miter; stroke-linecap: square"/>
   </g>
   <g id="legend_1">
    <g id="patch_12">
     <path d="M 64.6 158.693882 
L 379 158.693882 
Q 381 158.693882 381 156.693882 
L 381 142.393882 
Q 381 140.393882 379 140.393882 
L 64.6 140.393882 
Q 62.6 140.393882 62.6 142.393882 
L 62.6 156.693882 
Q 62.6 158.693882 64.6 158.693882 
z
" style="fill: #ffffff; opacity: 0.8; stroke: #cccccc; stroke-linejoin: miter"/>
    </g>
    <g id="line2d_39">
     <path d="M 66.6 149.114195 
L 76.6 149.114195 
L 86.6 149.114195 
" style="fill: none; stroke-dasharray: 5.55,2.4; stroke-dashoffset: 0; stroke: #ff0000; stroke-width: 1.5"/>
    </g>
    <g id="text_6">
     <!-- $1,13 \cdot 10^{-12}x^3 - 1,52 \cdot 10^{-8}x^2 + 3,04\cdot 10^{-3}x + 4,61 \cdot 10^{2}$ -->
     <g transform="translate(94.6 152.614195)scale(0.1 -0.1)">
      <defs>
       <path id="DejaVuSans-31" d="M 794 531 
L 1825 531 
L 1825 4091 
L 703 3866 
L 703 4441 
L 1819 4666 
L 2450 4666 
L 2450 531 
L 3481 531 
L 3481 0 
L 794 0 
L 794 531 
z
" transform="scale(0.015625)"/>
       <path id="DejaVuSans-2c" d="M 750 794 
L 1409 794 
L 1409 256 
L 897 -744 
L 494 -744 
L 750 256 
L 750 794 
z
" transform="scale(0.015625)"/>
       <path id="DejaVuSans-33" d="M 2597 2516 
Q 3050 2419 3304 2112 
Q 3559 1806 3559 1356 
Q 3559 666 3084 287 
Q 2609 -91 1734 -91 
Q 1441 -91 1130 -33 
Q 819 25 488 141 
L 488 750 
Q 750 597 1062 519 
Q 1375 441 1716 441 
Q 2309 441 2620 675 
Q 2931 909 2931 1356 
Q 2931 1769 2642 2001 
Q 2353 2234 1838 2234 
L 1294 2234 
L 1294 2753 
L 1863 2753 
Q 2328 2753 2575 2939 
Q 2822 3125 2822 3475 
Q 2822 3834 2567 4026 
Q 2313 4219 1838 4219 
Q 1578 4219 1281 4162 
Q 984 4106 628 3988 
L 628 4550 
Q 988 4650 1302 4700 
Q 1616 4750 1894 4750 
Q 2613 4750 3031 4423 
Q 3450 4097 3450 3541 
Q 3450 3153 3228 2886 
Q 3006 2619 2597 2516 
z
" transform="scale(0.015625)"/>
       <path id="DejaVuSans-22c5" d="M 684 2619 
L 1344 2619 
L 1344 1825 
L 684 1825 
L 684 2619 
z
" transform="scale(0.015625)"/>
       <path id="DejaVuSans-2212" d="M 678 2272 
L 4684 2272 
L 4684 1741 
L 678 1741 
L 678 2272 
z
" transform="scale(0.015625)"/>
       <path id="DejaVuSans-32" d="M 1228 531 
L 3431 531 
L 3431 0 
L 469 0 
L 469 531 
Q 828 903 1448 1529 
Q 2069 2156 2228 2338 
Q 2531 2678 2651 2914 
Q 2772 3150 2772 3378 
Q 2772 3750 2511 3984 
Q 2250 4219 1831 4219 
Q 1534 4219 1204 4116 
Q 875 4013 500 3803 
L 500 4441 
Q 881 4594 1212 4672 
Q 1544 4750 1819 4750 
Q 2544 4750 2975 4387 
Q 3406 4025 3406 3419 
Q 3406 3131 3298 2873 
Q 3191 2616 2906 2266 
Q 2828 2175 2409 1742 
Q 1991 1309 1228 531 
z
" transform="scale(0.015625)"/>
       <path id="DejaVuSans-38" d="M 2034 2216 
Q 1584 2216 1326 1975 
Q 1069 1734 1069 1313 
Q 1069 891 1326 650 
Q 1584 409 2034 409 
Q 2484 409 2743 651 
Q 3003 894 3003 1313 
Q 3003 1734 2745 1975 
Q 2488 2216 2034 2216 
z
M 1403 2484 
Q 997 2584 770 2862 
Q 544 3141 544 3541 
Q 544 4100 942 4425 
Q 1341 4750 2034 4750 
Q 2731 4750 3128 4425 
Q 3525 4100 3525 3541 
Q 3525 3141 3298 2862 
Q 3072 2584 2669 2484 
Q 3125 2378 3379 2068 
Q 3634 1759 3634 1313 
Q 3634 634 3220 271 
Q 2806 -91 2034 -91 
Q 1263 -91 848 271 
Q 434 634 434 1313 
Q 434 1759 690 2068 
Q 947 2378 1403 2484 
z
M 1172 3481 
Q 1172 3119 1398 2916 
Q 1625 2713 2034 2713 
Q 2441 2713 2670 2916 
Q 2900 3119 2900 3481 
Q 2900 3844 2670 4047 
Q 2441 4250 2034 4250 
Q 1625 4250 1398 4047 
Q 1172 3844 1172 3481 
z
" transform="scale(0.015625)"/>
       <path id="DejaVuSans-2b" d="M 2944 4013 
L 2944 2272 
L 4684 2272 
L 4684 1741 
L 2944 1741 
L 2944 0 
L 2419 0 
L 2419 1741 
L 678 1741 
L 678 2272 
L 2419 2272 
L 2419 4013 
L 2944 4013 
z
" transform="scale(0.015625)"/>
       <path id="DejaVuSans-34" d="M 2419 4116 
L 825 1625 
L 2419 1625 
L 2419 4116 
z
M 2253 4666 
L 3047 4666 
L 3047 1625 
L 3713 1625 
L 3713 1100 
L 3047 1100 
L 3047 0 
L 2419 0 
L 2419 1100 
L 313 1100 
L 313 1709 
L 2253 4666 
z
" transform="scale(0.015625)"/>
      </defs>
      <use xlink:href="#DejaVuSans-31" transform="translate(0 0.765625)"/>
      <use xlink:href="#DejaVuSans-2c" transform="translate(63.623047 0.765625)"/>
      <use xlink:href="#DejaVuSans-31" transform="translate(114.892578 0.765625)"/>
      <use xlink:href="#DejaVuSans-33" transform="translate(178.515625 0.765625)"/>
      <use xlink:href="#DejaVuSans-22c5" transform="translate(261.621094 0.765625)"/>
      <use xlink:href="#DejaVuSans-31" transform="translate(312.890625 0.765625)"/>
      <use xlink:href="#DejaVuSans-30" transform="translate(376.513672 0.765625)"/>
      <use xlink:href="#DejaVuSans-2212" transform="translate(441.09375 39.046875)scale(0.7)"/>
      <use xlink:href="#DejaVuSans-31" transform="translate(499.746094 39.046875)scale(0.7)"/>
      <use xlink:href="#DejaVuSans-32" transform="translate(544.282227 39.046875)scale(0.7)"/>
      <use xlink:href="#DejaVuSans-Oblique-78" transform="translate(591.552734 0.765625)"/>
      <use xlink:href="#DejaVuSans-33" transform="translate(655.198568 39.046875)scale(0.7)"/>
      <use xlink:href="#DejaVuSans-2212" transform="translate(721.951497 0.765625)"/>
      <use xlink:href="#DejaVuSans-31" transform="translate(825.222982 0.765625)"/>
      <use xlink:href="#DejaVuSans-2c" transform="translate(888.846029 0.765625)"/>
      <use xlink:href="#DejaVuSans-35" transform="translate(940.11556 0.765625)"/>
      <use xlink:href="#DejaVuSans-32" transform="translate(1003.738607 0.765625)"/>
      <use xlink:href="#DejaVuSans-22c5" transform="translate(1086.844076 0.765625)"/>
      <use xlink:href="#DejaVuSans-31" transform="translate(1138.113607 0.765625)"/>
      <use xlink:href="#DejaVuSans-30" transform="translate(1201.736654 0.765625)"/>
      <use xlink:href="#DejaVuSans-2212" transform="translate(1266.316732 39.046875)scale(0.7)"/>
      <use xlink:href="#DejaVuSans-38" transform="translate(1324.969076 39.046875)scale(0.7)"/>
      <use xlink:href="#DejaVuSans-Oblique-78" transform="translate(1372.239583 0.765625)"/>
      <use xlink:href="#DejaVuSans-32" transform="translate(1435.885417 39.046875)scale(0.7)"/>
      <use xlink:href="#DejaVuSans-2b" transform="translate(1502.638346 0.765625)"/>
      <use xlink:href="#DejaVuSans-33" transform="translate(1605.909831 0.765625)"/>
      <use xlink:href="#DejaVuSans-2c" transform="translate(1669.532878 0.765625)"/>
      <use xlink:href="#DejaVuSans-30" transform="translate(1720.802409 0.765625)"/>
      <use xlink:href="#DejaVuSans-34" transform="translate(1784.425456 0.765625)"/>
      <use xlink:href="#DejaVuSans-22c5" transform="translate(1867.530924 0.765625)"/>
      <use xlink:href="#DejaVuSans-31" transform="translate(1918.800456 0.765625)"/>
      <use xlink:href="#DejaVuSans-30" transform="translate(1982.423503 0.765625)"/>
      <use xlink:href="#DejaVuSans-2212" transform="translate(2047.003581 39.046875)scale(0.7)"/>
      <use xlink:href="#DejaVuSans-33" transform="translate(2105.655924 39.046875)scale(0.7)"/>
      <use xlink:href="#DejaVuSans-Oblique-78" transform="translate(2152.926432 0.765625)"/>
      <use xlink:href="#DejaVuSans-2b" transform="translate(2231.588542 0.765625)"/>
      <use xlink:href="#DejaVuSans-34" transform="translate(2334.860026 0.765625)"/>
      <use xlink:href="#DejaVuSans-2c" transform="translate(2398.483073 0.765625)"/>
      <use xlink:href="#DejaVuSans-36" transform="translate(2449.752604 0.765625)"/>
      <use xlink:href="#DejaVuSans-31" transform="translate(2513.375651 0.765625)"/>
      <use xlink:href="#DejaVuSans-22c5" transform="translate(2596.48112 0.765625)"/>
      <use xlink:href="#DejaVuSans-31" transform="translate(2647.750651 0.765625)"/>
      <use xlink:href="#DejaVuSans-30" transform="translate(2711.373698 0.765625)"/>
      <use xlink:href="#DejaVuSans-32" transform="translate(2775.953776 39.046875)scale(0.7)"/>
     </g>
    </g>
   </g>
  </g>
  <g id="axes_3">
   <g id="patch_13">
    <path d="M 57.6 307.584 
L 414.72 307.584 
L 414.72 229.315765 
L 57.6 229.315765 
z
" style="fill: #ffffff"/>
   </g>
   <g id="matplotlib.axis_5">
    <g id="xtick_15">
     <g id="line2d_40">
      <g>
       <use xlink:href="#mada88e843d" x="63.007301" y="307.584" style="stroke: #000000; stroke-width: 0.8"/>
      </g>
     </g>
     <g id="text_7">
      <!-- 10000 -->
      <g transform="translate(47.101051 322.182437)scale(0.1 -0.1)">
       <use xlink:href="#DejaVuSans-31"/>
       <use xlink:href="#DejaVuSans-30" x="63.623047"/>
       <use xlink:href="#DejaVuSans-30" x="127.246094"/>
       <use xlink:href="#DejaVuSans-30" x="190.869141"/>
       <use xlink:href="#DejaVuSans-30" x="254.492188"/>
      </g>
     </g>
    </g>
    <g id="xtick_16">
     <g id="line2d_41">
      <g>
       <use xlink:href="#mada88e843d" x="117.134434" y="307.584" style="stroke: #000000; stroke-width: 0.8"/>
      </g>
     </g>
     <g id="text_8">
      <!-- 15000 -->
      <g transform="translate(101.228184 322.182437)scale(0.1 -0.1)">
       <use xlink:href="#DejaVuSans-31"/>
       <use xlink:href="#DejaVuSans-35" x="63.623047"/>
       <use xlink:href="#DejaVuSans-30" x="127.246094"/>
       <use xlink:href="#DejaVuSans-30" x="190.869141"/>
       <use xlink:href="#DejaVuSans-30" x="254.492188"/>
      </g>
     </g>
    </g>
    <g id="xtick_17">
     <g id="line2d_42">
      <g>
       <use xlink:href="#mada88e843d" x="171.261567" y="307.584" style="stroke: #000000; stroke-width: 0.8"/>
      </g>
     </g>
     <g id="text_9">
      <!-- 20000 -->
      <g transform="translate(155.355317 322.182437)scale(0.1 -0.1)">
       <use xlink:href="#DejaVuSans-32"/>
       <use xlink:href="#DejaVuSans-30" x="63.623047"/>
       <use xlink:href="#DejaVuSans-30" x="127.246094"/>
       <use xlink:href="#DejaVuSans-30" x="190.869141"/>
       <use xlink:href="#DejaVuSans-30" x="254.492188"/>
      </g>
     </g>
    </g>
    <g id="xtick_18">
     <g id="line2d_43">
      <g>
       <use xlink:href="#mada88e843d" x="225.3887" y="307.584" style="stroke: #000000; stroke-width: 0.8"/>
      </g>
     </g>
     <g id="text_10">
      <!-- 25000 -->
      <g transform="translate(209.48245 322.182437)scale(0.1 -0.1)">
       <use xlink:href="#DejaVuSans-32"/>
       <use xlink:href="#DejaVuSans-35" x="63.623047"/>
       <use xlink:href="#DejaVuSans-30" x="127.246094"/>
       <use xlink:href="#DejaVuSans-30" x="190.869141"/>
       <use xlink:href="#DejaVuSans-30" x="254.492188"/>
      </g>
     </g>
    </g>
    <g id="xtick_19">
     <g id="line2d_44">
      <g>
       <use xlink:href="#mada88e843d" x="279.515834" y="307.584" style="stroke: #000000; stroke-width: 0.8"/>
      </g>
     </g>
     <g id="text_11">
      <!-- 30000 -->
      <g transform="translate(263.609584 322.182437)scale(0.1 -0.1)">
       <use xlink:href="#DejaVuSans-33"/>
       <use xlink:href="#DejaVuSans-30" x="63.623047"/>
       <use xlink:href="#DejaVuSans-30" x="127.246094"/>
       <use xlink:href="#DejaVuSans-30" x="190.869141"/>
       <use xlink:href="#DejaVuSans-30" x="254.492188"/>
      </g>
     </g>
    </g>
    <g id="xtick_20">
     <g id="line2d_45">
      <g>
       <use xlink:href="#mada88e843d" x="333.642967" y="307.584" style="stroke: #000000; stroke-width: 0.8"/>
      </g>
     </g>
     <g id="text_12">
      <!-- 35000 -->
      <g transform="translate(317.736717 322.182437)scale(0.1 -0.1)">
       <use xlink:href="#DejaVuSans-33"/>
       <use xlink:href="#DejaVuSans-35" x="63.623047"/>
       <use xlink:href="#DejaVuSans-30" x="127.246094"/>
       <use xlink:href="#DejaVuSans-30" x="190.869141"/>
       <use xlink:href="#DejaVuSans-30" x="254.492188"/>
      </g>
     </g>
    </g>
    <g id="xtick_21">
     <g id="line2d_46">
      <g>
       <use xlink:href="#mada88e843d" x="387.7701" y="307.584" style="stroke: #000000; stroke-width: 0.8"/>
      </g>
     </g>
     <g id="text_13">
      <!-- 40000 -->
      <g transform="translate(371.86385 322.182437)scale(0.1 -0.1)">
       <use xlink:href="#DejaVuSans-34"/>
       <use xlink:href="#DejaVuSans-30" x="63.623047"/>
       <use xlink:href="#DejaVuSans-30" x="127.246094"/>
       <use xlink:href="#DejaVuSans-30" x="190.869141"/>
       <use xlink:href="#DejaVuSans-30" x="254.492188"/>
      </g>
     </g>
    </g>
   </g>
   <g id="matplotlib.axis_6">
    <g id="ytick_5">
     <g id="line2d_47">
      <g>
       <use xlink:href="#m78a659d858" x="57.6" y="296.912459" style="stroke: #000000; stroke-width: 0.8"/>
      </g>
     </g>
     <g id="text_14">
      <!-- 0.1 -->
      <g transform="translate(26.317187 300.711678)scale(0.1 -0.1)">
       <defs>
        <path id="DejaVuSans-2e" d="M 684 794 
L 1344 794 
L 1344 0 
L 684 0 
L 684 794 
z
" transform="scale(0.015625)"/>
       </defs>
       <use xlink:href="#DejaVuSans-2212"/>
       <use xlink:href="#DejaVuSans-30" x="83.789062"/>
       <use xlink:href="#DejaVuSans-2e" x="147.412109"/>
       <use xlink:href="#DejaVuSans-31" x="179.199219"/>
      </g>
     </g>
    </g>
    <g id="ytick_6">
     <g id="line2d_48">
      <g>
       <use xlink:href="#m78a659d858" x="57.6" y="268.615637" style="stroke: #000000; stroke-width: 0.8"/>
      </g>
     </g>
     <g id="text_15">
      <!-- 0.0 -->
      <g transform="translate(34.696875 272.414855)scale(0.1 -0.1)">
       <use xlink:href="#DejaVuSans-30"/>
       <use xlink:href="#DejaVuSans-2e" x="63.623047"/>
       <use xlink:href="#DejaVuSans-30" x="95.410156"/>
      </g>
     </g>
    </g>
    <g id="ytick_7">
     <g id="line2d_49">
      <g>
       <use xlink:href="#m78a659d858" x="57.6" y="240.318814" style="stroke: #000000; stroke-width: 0.8"/>
      </g>
     </g>
     <g id="text_16">
      <!-- 0.1 -->
      <g transform="translate(34.696875 244.118032)scale(0.1 -0.1)">
       <use xlink:href="#DejaVuSans-30"/>
       <use xlink:href="#DejaVuSans-2e" x="63.623047"/>
       <use xlink:href="#DejaVuSans-31" x="95.410156"/>
      </g>
     </g>
    </g>
   </g>
   <g id="line2d_50">
    <path d="M 78.271152 286.654644 
L 81.951797 290.304847 
L 88.771816 278.275765 
L 99.922006 268.629475 
L 102.195345 271.096844 
L 115.943637 248.307495 
L 118.541739 247.63547 
L 119.949045 254.328138 
L 124.062707 253.589967 
L 138.135762 247.173272 
L 143.440221 257.908186 
L 149.394205 258.45897 
L 156.972004 266.31888 
L 168.230448 272.00991 
L 175.591738 281.310042 
L 192.912421 271.588824 
L 203.521339 284.265107 
L 210.774374 286.112344 
L 221.05853 297.056267 
L 256.024658 284.730414 
L 271.180255 285.168025 
L 272.587561 269.048995 
L 287.310141 267.212882 
L 319.678167 243.946987 
L 320.760709 244.741 
L 351.504921 232.873412 
L 365.902738 256.790539 
L 373.155774 280.290405 
L 387.120575 304.026353 
" clip-path="url(#p11a9bdc431)" style="fill: none; stroke: #1f77b4; stroke-width: 1.5; stroke-linecap: square"/>
   </g>
   <g id="patch_14">
    <path d="M 57.6 307.584 
L 57.6 229.315765 
" style="fill: none; stroke: #000000; stroke-width: 0.8; stroke-linejoin: miter; stroke-linecap: square"/>
   </g>
   <g id="patch_15">
    <path d="M 414.72 307.584 
L 414.72 229.315765 
" style="fill: none; stroke: #000000; stroke-width: 0.8; stroke-linejoin: miter; stroke-linecap: square"/>
   </g>
   <g id="patch_16">
    <path d="M 57.6 307.584 
L 414.72 307.584 
" style="fill: none; stroke: #000000; stroke-width: 0.8; stroke-linejoin: miter; stroke-linecap: square"/>
   </g>
   <g id="patch_17">
    <path d="M 57.6 229.315765 
L 414.72 229.315765 
" style="fill: none; stroke: #000000; stroke-width: 0.8; stroke-linejoin: miter; stroke-linecap: square"/>
   </g>
  </g>
 </g>
 <defs>
  <clipPath id="pa6649b3412">
   <rect x="57.6" y="41.472" width="357.12" height="78.268235"/>
  </clipPath>
  <clipPath id="p6098058de3">
   <rect x="57.6" y="135.393882" width="357.12" height="78.268235"/>
  </clipPath>
  <clipPath id="p11a9bdc431">
   <rect x="57.6" y="229.315765" width="357.12" height="78.268235"/>
  </clipPath>
 </defs>
</svg>
