<?xml version="1.0" encoding="utf-8" standalone="no"?>
<!DOCTYPE svg PUBLIC "-//W3C//DTD SVG 1.1//EN"
  "http://www.w3.org/Graphics/SVG/1.1/DTD/svg11.dtd">
<svg xmlns:xlink="http://www.w3.org/1999/xlink" width="460.8pt" height="345.6pt" viewBox="0 0 460.8 345.6" xmlns="http://www.w3.org/2000/svg" version="1.1">
 <metadata>
  <rdf:RDF xmlns:dc="http://purl.org/dc/elements/1.1/" xmlns:cc="http://creativecommons.org/ns#" xmlns:rdf="http://www.w3.org/1999/02/22-rdf-syntax-ns#">
   <cc:Work>
    <dc:type rdf:resource="http://purl.org/dc/dcmitype/StillImage"/>
    <dc:date>2023-01-18T21:44:52.888808</dc:date>
    <dc:format>image/svg+xml</dc:format>
    <dc:creator>
     <cc:Agent>
      <dc:title>Matplotlib v3.5.2, https://matplotlib.org/</dc:title>
     </cc:Agent>
    </dc:creator>
   </cc:Work>
  </rdf:RDF>
 </metadata>
 <defs>
  <style type="text/css">*{stroke-linejoin: round; stroke-linecap: butt}</style>
 </defs>
 <g id="figure_1">
  <g id="patch_1">
   <path d="M 0 345.6 
L 460.8 345.6 
L 460.8 0 
L 0 0 
z
" style="fill: #ffffff"/>
  </g>
  <g id="axes_1">
   <g id="patch_2">
    <path d="M 57.6 307.584 
L 414.72 307.584 
L 414.72 41.472 
L 57.6 41.472 
z
" style="fill: #ffffff"/>
   </g>
   <g id="PathCollection_1">
    <defs>
     <path id="m81d3f69d9b" d="M 0 3 
C 0.795609 3 1.55874 2.683901 2.12132 2.12132 
C 2.683901 1.55874 3 0.795609 3 0 
C 3 -0.795609 2.683901 -1.55874 2.12132 -2.12132 
C 1.55874 -2.683901 0.795609 -3 0 -3 
C -0.795609 -3 -1.55874 -2.683901 -2.12132 -2.12132 
C -2.683901 -1.55874 -3 -0.795609 -3 0 
C -3 0.795609 -2.683901 1.55874 -2.12132 2.12132 
C -1.55874 2.683901 -0.795609 3 0 3 
z
" style="stroke: #1f77b4"/>
    </defs>
    <g clip-path="url(#p0de4289c02)">
     <use xlink:href="#m81d3f69d9b" x="70.106509" y="186.098087" style="fill: #1f77b4; stroke: #1f77b4"/>
     <use xlink:href="#m81d3f69d9b" x="72.642159" y="186.098087" style="fill: #1f77b4; stroke: #1f77b4"/>
     <use xlink:href="#m81d3f69d9b" x="74.841514" y="184.941078" style="fill: #1f77b4; stroke: #1f77b4"/>
     <use xlink:href="#m81d3f69d9b" x="77.63246" y="186.098087" style="fill: #1f77b4; stroke: #1f77b4"/>
     <use xlink:href="#m81d3f69d9b" x="80.320819" y="183.78407" style="fill: #1f77b4; stroke: #1f77b4"/>
     <use xlink:href="#m81d3f69d9b" x="83.258498" y="184.941078" style="fill: #1f77b4; stroke: #1f77b4"/>
     <use xlink:href="#m81d3f69d9b" x="86.568369" y="184.941078" style="fill: #1f77b4; stroke: #1f77b4"/>
     <use xlink:href="#m81d3f69d9b" x="89.899522" y="183.78407" style="fill: #1f77b4; stroke: #1f77b4"/>
     <use xlink:href="#m81d3f69d9b" x="93.252473" y="181.470052" style="fill: #1f77b4; stroke: #1f77b4"/>
     <use xlink:href="#m81d3f69d9b" x="96.990719" y="183.78407" style="fill: #1f77b4; stroke: #1f77b4"/>
     <use xlink:href="#m81d3f69d9b" x="100.878985" y="183.78407" style="fill: #1f77b4; stroke: #1f77b4"/>
     <use xlink:href="#m81d3f69d9b" x="104.920882" y="179.156035" style="fill: #1f77b4; stroke: #1f77b4"/>
     <use xlink:href="#m81d3f69d9b" x="109.244315" y="181.470052" style="fill: #1f77b4; stroke: #1f77b4"/>
     <use xlink:href="#m81d3f69d9b" x="113.982108" y="177.999026" style="fill: #1f77b4; stroke: #1f77b4"/>
     <use xlink:href="#m81d3f69d9b" x="118.387269" y="183.78407" style="fill: #1f77b4; stroke: #1f77b4"/>
     <use xlink:href="#m81d3f69d9b" x="123.343912" y="182.627061" style="fill: #1f77b4; stroke: #1f77b4"/>
     <use xlink:href="#m81d3f69d9b" x="128.481655" y="184.941078" style="fill: #1f77b4; stroke: #1f77b4"/>
     <use xlink:href="#m81d3f69d9b" x="133.806161" y="190.726122" style="fill: #1f77b4; stroke: #1f77b4"/>
     <use xlink:href="#m81d3f69d9b" x="139.455582" y="187.255096" style="fill: #1f77b4; stroke: #1f77b4"/>
     <use xlink:href="#m81d3f69d9b" x="145.307387" y="187.255096" style="fill: #1f77b4; stroke: #1f77b4"/>
     <use xlink:href="#m81d3f69d9b" x="151.368543" y="189.569113" style="fill: #1f77b4; stroke: #1f77b4"/>
     <use xlink:href="#m81d3f69d9b" x="157.646412" y="184.941078" style="fill: #1f77b4; stroke: #1f77b4"/>
     <use xlink:href="#m81d3f69d9b" x="164.288096" y="183.78407" style="fill: #1f77b4; stroke: #1f77b4"/>
     <use xlink:href="#m81d3f69d9b" x="171.025141" y="180.313043" style="fill: #1f77b4; stroke: #1f77b4"/>
     <use xlink:href="#m81d3f69d9b" x="178.147103" y="181.470052" style="fill: #1f77b4; stroke: #1f77b4"/>
     <use xlink:href="#m81d3f69d9b" x="185.669859" y="184.941078" style="fill: #1f77b4; stroke: #1f77b4"/>
     <use xlink:href="#m81d3f69d9b" x="193.165895" y="189.569113" style="fill: #1f77b4; stroke: #1f77b4"/>
     <use xlink:href="#m81d3f69d9b" x="200.932426" y="188.412104" style="fill: #1f77b4; stroke: #1f77b4"/>
     <use xlink:href="#m81d3f69d9b" x="209.133192" y="182.627061" style="fill: #1f77b4; stroke: #1f77b4"/>
     <use xlink:href="#m81d3f69d9b" x="217.631541" y="177.999026" style="fill: #1f77b4; stroke: #1f77b4"/>
     <use xlink:href="#m81d3f69d9b" x="226.280833" y="169.899965" style="fill: #1f77b4; stroke: #1f77b4"/>
     <use xlink:href="#m81d3f69d9b" x="235.24651" y="161.800904" style="fill: #1f77b4; stroke: #1f77b4"/>
     <use xlink:href="#m81d3f69d9b" x="244.70603" y="154.858852" style="fill: #1f77b4; stroke: #1f77b4"/>
     <use xlink:href="#m81d3f69d9b" x="254.514607" y="143.288765" style="fill: #1f77b4; stroke: #1f77b4"/>
     <use xlink:href="#m81d3f69d9b" x="264.344398" y="135.189704" style="fill: #1f77b4; stroke: #1f77b4"/>
     <use xlink:href="#m81d3f69d9b" x="274.888217" y="125.933635" style="fill: #1f77b4; stroke: #1f77b4"/>
     <use xlink:href="#m81d3f69d9b" x="285.469894" y="118.991583" style="fill: #1f77b4; stroke: #1f77b4"/>
     <use xlink:href="#m81d3f69d9b" x="296.447417" y="116.677565" style="fill: #1f77b4; stroke: #1f77b4"/>
    </g>
   </g>
   <g id="PathCollection_2">
    <defs>
     <path id="m0064e8d2d4" d="M 0 3 
C 0.795609 3 1.55874 2.683901 2.12132 2.12132 
C 2.683901 1.55874 3 0.795609 3 0 
C 3 -0.795609 2.683901 -1.55874 2.12132 -2.12132 
C 1.55874 -2.683901 0.795609 -3 0 -3 
C -0.795609 -3 -1.55874 -2.683901 -2.12132 -2.12132 
C -2.683901 -1.55874 -3 -0.795609 -3 0 
C -3 0.795609 -2.683901 1.55874 -2.12132 2.12132 
C -1.55874 2.683901 -0.795609 3 0 3 
z
" style="stroke: #ff7f0e"/>
    </defs>
    <g clip-path="url(#p0de4289c02)">
     <use xlink:href="#m0064e8d2d4" x="206.993607" y="86.595339" style="fill: #ff7f0e; stroke: #ff7f0e"/>
     <use xlink:href="#m0064e8d2d4" x="214.833837" y="95.851409" style="fill: #ff7f0e; stroke: #ff7f0e"/>
     <use xlink:href="#m0064e8d2d4" x="222.802753" y="105.107478" style="fill: #ff7f0e; stroke: #ff7f0e"/>
     <use xlink:href="#m0064e8d2d4" x="231.223875" y="114.363548" style="fill: #ff7f0e; stroke: #ff7f0e"/>
     <use xlink:href="#m0064e8d2d4" x="239.953904" y="121.3056" style="fill: #ff7f0e; stroke: #ff7f0e"/>
     <use xlink:href="#m0064e8d2d4" x="249.005058" y="130.56167" style="fill: #ff7f0e; stroke: #ff7f0e"/>
     <use xlink:href="#m0064e8d2d4" x="258.221018" y="139.817739" style="fill: #ff7f0e; stroke: #ff7f0e"/>
     <use xlink:href="#m0064e8d2d4" x="268.122518" y="147.9168" style="fill: #ff7f0e; stroke: #ff7f0e"/>
     <use xlink:href="#m0064e8d2d4" x="277.864919" y="156.015861" style="fill: #ff7f0e; stroke: #ff7f0e"/>
     <use xlink:href="#m0064e8d2d4" x="288.148564" y="159.486887" style="fill: #ff7f0e; stroke: #ff7f0e"/>
     <use xlink:href="#m0064e8d2d4" x="298.816" y="159.486887" style="fill: #ff7f0e; stroke: #ff7f0e"/>
     <use xlink:href="#m0064e8d2d4" x="309.51027" y="159.486887" style="fill: #ff7f0e; stroke: #ff7f0e"/>
     <use xlink:href="#m0064e8d2d4" x="320.984865" y="159.486887" style="fill: #ff7f0e; stroke: #ff7f0e"/>
     <use xlink:href="#m0064e8d2d4" x="334.251652" y="167.585948" style="fill: #ff7f0e; stroke: #ff7f0e"/>
     <use xlink:href="#m0064e8d2d4" x="345.843212" y="182.627061" style="fill: #ff7f0e; stroke: #ff7f0e"/>
     <use xlink:href="#m0064e8d2d4" x="357.668032" y="198.825183" style="fill: #ff7f0e; stroke: #ff7f0e"/>
     <use xlink:href="#m0064e8d2d4" x="370.144083" y="215.023304" style="fill: #ff7f0e; stroke: #ff7f0e"/>
     <use xlink:href="#m0064e8d2d4" x="382.879972" y="233.535443" style="fill: #ff7f0e; stroke: #ff7f0e"/>
     <use xlink:href="#m0064e8d2d4" x="395.665737" y="252.047583" style="fill: #ff7f0e; stroke: #ff7f0e"/>
     <use xlink:href="#m0064e8d2d4" x="409.372457" y="270.559722" style="fill: #ff7f0e; stroke: #ff7f0e"/>
    </g>
   </g>
   <g id="matplotlib.axis_1">
    <g id="xtick_1">
     <g id="line2d_1">
      <path d="M 120.00932 307.584 
L 120.00932 41.472 
" clip-path="url(#p0de4289c02)" style="fill: none; stroke: #b0b0b0; stroke-width: 0.8; stroke-linecap: square"/>
     </g>
     <g id="line2d_2">
      <defs>
       <path id="m9a7ff5f371" d="M 0 0 
L 0 3.5 
" style="stroke: #000000; stroke-width: 0.8"/>
      </defs>
      <g>
       <use xlink:href="#m9a7ff5f371" x="120.00932" y="307.584" style="stroke: #000000; stroke-width: 0.8"/>
      </g>
     </g>
     <g id="text_1">
      <!-- 520 -->
      <g transform="translate(110.46557 322.182437)scale(0.1 -0.1)">
       <defs>
        <path id="DejaVuSans-35" d="M 691 4666 
L 3169 4666 
L 3169 4134 
L 1269 4134 
L 1269 2991 
Q 1406 3038 1543 3061 
Q 1681 3084 1819 3084 
Q 2600 3084 3056 2656 
Q 3513 2228 3513 1497 
Q 3513 744 3044 326 
Q 2575 -91 1722 -91 
Q 1428 -91 1123 -41 
Q 819 9 494 109 
L 494 744 
Q 775 591 1075 516 
Q 1375 441 1709 441 
Q 2250 441 2565 725 
Q 2881 1009 2881 1497 
Q 2881 1984 2565 2268 
Q 2250 2553 1709 2553 
Q 1456 2553 1204 2497 
Q 953 2441 691 2322 
L 691 4666 
z
" transform="scale(0.015625)"/>
        <path id="DejaVuSans-32" d="M 1228 531 
L 3431 531 
L 3431 0 
L 469 0 
L 469 531 
Q 828 903 1448 1529 
Q 2069 2156 2228 2338 
Q 2531 2678 2651 2914 
Q 2772 3150 2772 3378 
Q 2772 3750 2511 3984 
Q 2250 4219 1831 4219 
Q 1534 4219 1204 4116 
Q 875 4013 500 3803 
L 500 4441 
Q 881 4594 1212 4672 
Q 1544 4750 1819 4750 
Q 2544 4750 2975 4387 
Q 3406 4025 3406 3419 
Q 3406 3131 3298 2873 
Q 3191 2616 2906 2266 
Q 2828 2175 2409 1742 
Q 1991 1309 1228 531 
z
" transform="scale(0.015625)"/>
        <path id="DejaVuSans-30" d="M 2034 4250 
Q 1547 4250 1301 3770 
Q 1056 3291 1056 2328 
Q 1056 1369 1301 889 
Q 1547 409 2034 409 
Q 2525 409 2770 889 
Q 3016 1369 3016 2328 
Q 3016 3291 2770 3770 
Q 2525 4250 2034 4250 
z
M 2034 4750 
Q 2819 4750 3233 4129 
Q 3647 3509 3647 2328 
Q 3647 1150 3233 529 
Q 2819 -91 2034 -91 
Q 1250 -91 836 529 
Q 422 1150 422 2328 
Q 422 3509 836 4129 
Q 1250 4750 2034 4750 
z
" transform="scale(0.015625)"/>
       </defs>
       <use xlink:href="#DejaVuSans-35"/>
       <use xlink:href="#DejaVuSans-32" x="63.623047"/>
       <use xlink:href="#DejaVuSans-30" x="127.246094"/>
      </g>
     </g>
    </g>
    <g id="xtick_2">
     <g id="line2d_3">
      <path d="M 189.35301 307.584 
L 189.35301 41.472 
" clip-path="url(#p0de4289c02)" style="fill: none; stroke: #b0b0b0; stroke-width: 0.8; stroke-linecap: square"/>
     </g>
     <g id="line2d_4">
      <g>
       <use xlink:href="#m9a7ff5f371" x="189.35301" y="307.584" style="stroke: #000000; stroke-width: 0.8"/>
      </g>
     </g>
     <g id="text_2">
      <!-- 540 -->
      <g transform="translate(179.80926 322.182437)scale(0.1 -0.1)">
       <defs>
        <path id="DejaVuSans-34" d="M 2419 4116 
L 825 1625 
L 2419 1625 
L 2419 4116 
z
M 2253 4666 
L 3047 4666 
L 3047 1625 
L 3713 1625 
L 3713 1100 
L 3047 1100 
L 3047 0 
L 2419 0 
L 2419 1100 
L 313 1100 
L 313 1709 
L 2253 4666 
z
" transform="scale(0.015625)"/>
       </defs>
       <use xlink:href="#DejaVuSans-35"/>
       <use xlink:href="#DejaVuSans-34" x="63.623047"/>
       <use xlink:href="#DejaVuSans-30" x="127.246094"/>
      </g>
     </g>
    </g>
    <g id="xtick_3">
     <g id="line2d_5">
      <path d="M 258.696699 307.584 
L 258.696699 41.472 
" clip-path="url(#p0de4289c02)" style="fill: none; stroke: #b0b0b0; stroke-width: 0.8; stroke-linecap: square"/>
     </g>
     <g id="line2d_6">
      <g>
       <use xlink:href="#m9a7ff5f371" x="258.696699" y="307.584" style="stroke: #000000; stroke-width: 0.8"/>
      </g>
     </g>
     <g id="text_3">
      <!-- 560 -->
      <g transform="translate(249.152949 322.182437)scale(0.1 -0.1)">
       <defs>
        <path id="DejaVuSans-36" d="M 2113 2584 
Q 1688 2584 1439 2293 
Q 1191 2003 1191 1497 
Q 1191 994 1439 701 
Q 1688 409 2113 409 
Q 2538 409 2786 701 
Q 3034 994 3034 1497 
Q 3034 2003 2786 2293 
Q 2538 2584 2113 2584 
z
M 3366 4563 
L 3366 3988 
Q 3128 4100 2886 4159 
Q 2644 4219 2406 4219 
Q 1781 4219 1451 3797 
Q 1122 3375 1075 2522 
Q 1259 2794 1537 2939 
Q 1816 3084 2150 3084 
Q 2853 3084 3261 2657 
Q 3669 2231 3669 1497 
Q 3669 778 3244 343 
Q 2819 -91 2113 -91 
Q 1303 -91 875 529 
Q 447 1150 447 2328 
Q 447 3434 972 4092 
Q 1497 4750 2381 4750 
Q 2619 4750 2861 4703 
Q 3103 4656 3366 4563 
z
" transform="scale(0.015625)"/>
       </defs>
       <use xlink:href="#DejaVuSans-35"/>
       <use xlink:href="#DejaVuSans-36" x="63.623047"/>
       <use xlink:href="#DejaVuSans-30" x="127.246094"/>
      </g>
     </g>
    </g>
    <g id="xtick_4">
     <g id="line2d_7">
      <path d="M 328.040388 307.584 
L 328.040388 41.472 
" clip-path="url(#p0de4289c02)" style="fill: none; stroke: #b0b0b0; stroke-width: 0.8; stroke-linecap: square"/>
     </g>
     <g id="line2d_8">
      <g>
       <use xlink:href="#m9a7ff5f371" x="328.040388" y="307.584" style="stroke: #000000; stroke-width: 0.8"/>
      </g>
     </g>
     <g id="text_4">
      <!-- 580 -->
      <g transform="translate(318.496638 322.182437)scale(0.1 -0.1)">
       <defs>
        <path id="DejaVuSans-38" d="M 2034 2216 
Q 1584 2216 1326 1975 
Q 1069 1734 1069 1313 
Q 1069 891 1326 650 
Q 1584 409 2034 409 
Q 2484 409 2743 651 
Q 3003 894 3003 1313 
Q 3003 1734 2745 1975 
Q 2488 2216 2034 2216 
z
M 1403 2484 
Q 997 2584 770 2862 
Q 544 3141 544 3541 
Q 544 4100 942 4425 
Q 1341 4750 2034 4750 
Q 2731 4750 3128 4425 
Q 3525 4100 3525 3541 
Q 3525 3141 3298 2862 
Q 3072 2584 2669 2484 
Q 3125 2378 3379 2068 
Q 3634 1759 3634 1313 
Q 3634 634 3220 271 
Q 2806 -91 2034 -91 
Q 1263 -91 848 271 
Q 434 634 434 1313 
Q 434 1759 690 2068 
Q 947 2378 1403 2484 
z
M 1172 3481 
Q 1172 3119 1398 2916 
Q 1625 2713 2034 2713 
Q 2441 2713 2670 2916 
Q 2900 3119 2900 3481 
Q 2900 3844 2670 4047 
Q 2441 4250 2034 4250 
Q 1625 4250 1398 4047 
Q 1172 3844 1172 3481 
z
" transform="scale(0.015625)"/>
       </defs>
       <use xlink:href="#DejaVuSans-35"/>
       <use xlink:href="#DejaVuSans-38" x="63.623047"/>
       <use xlink:href="#DejaVuSans-30" x="127.246094"/>
      </g>
     </g>
    </g>
    <g id="xtick_5">
     <g id="line2d_9">
      <path d="M 397.384078 307.584 
L 397.384078 41.472 
" clip-path="url(#p0de4289c02)" style="fill: none; stroke: #b0b0b0; stroke-width: 0.8; stroke-linecap: square"/>
     </g>
     <g id="line2d_10">
      <g>
       <use xlink:href="#m9a7ff5f371" x="397.384078" y="307.584" style="stroke: #000000; stroke-width: 0.8"/>
      </g>
     </g>
     <g id="text_5">
      <!-- 600 -->
      <g transform="translate(387.840328 322.182437)scale(0.1 -0.1)">
       <use xlink:href="#DejaVuSans-36"/>
       <use xlink:href="#DejaVuSans-30" x="63.623047"/>
       <use xlink:href="#DejaVuSans-30" x="127.246094"/>
      </g>
     </g>
    </g>
    <g id="text_6">
     <!-- $\lambda / \mathrm{nm}$ -->
     <g transform="translate(223.46 335.860562)scale(0.1 -0.1)">
      <defs>
       <path id="DejaVuSans-Oblique-3bb" d="M 2350 4316 
L 3125 0 
L 2516 0 
L 2038 2588 
L 328 0 
L -281 0 
L 1903 3356 
L 1794 3975 
Q 1725 4369 1391 4369 
L 1091 4369 
L 1184 4863 
L 1550 4856 
Q 2253 4847 2350 4316 
z
" transform="scale(0.015625)"/>
       <path id="DejaVuSans-2f" d="M 1625 4666 
L 2156 4666 
L 531 -594 
L 0 -594 
L 1625 4666 
z
" transform="scale(0.015625)"/>
       <path id="DejaVuSans-6e" d="M 3513 2113 
L 3513 0 
L 2938 0 
L 2938 2094 
Q 2938 2591 2744 2837 
Q 2550 3084 2163 3084 
Q 1697 3084 1428 2787 
Q 1159 2491 1159 1978 
L 1159 0 
L 581 0 
L 581 3500 
L 1159 3500 
L 1159 2956 
Q 1366 3272 1645 3428 
Q 1925 3584 2291 3584 
Q 2894 3584 3203 3211 
Q 3513 2838 3513 2113 
z
" transform="scale(0.015625)"/>
       <path id="DejaVuSans-6d" d="M 3328 2828 
Q 3544 3216 3844 3400 
Q 4144 3584 4550 3584 
Q 5097 3584 5394 3201 
Q 5691 2819 5691 2113 
L 5691 0 
L 5113 0 
L 5113 2094 
Q 5113 2597 4934 2840 
Q 4756 3084 4391 3084 
Q 3944 3084 3684 2787 
Q 3425 2491 3425 1978 
L 3425 0 
L 2847 0 
L 2847 2094 
Q 2847 2600 2669 2842 
Q 2491 3084 2119 3084 
Q 1678 3084 1418 2786 
Q 1159 2488 1159 1978 
L 1159 0 
L 581 0 
L 581 3500 
L 1159 3500 
L 1159 2956 
Q 1356 3278 1631 3431 
Q 1906 3584 2284 3584 
Q 2666 3584 2933 3390 
Q 3200 3197 3328 2828 
z
" transform="scale(0.015625)"/>
      </defs>
      <use xlink:href="#DejaVuSans-Oblique-3bb" transform="translate(0 0.015625)"/>
      <use xlink:href="#DejaVuSans-2f" transform="translate(59.179688 0.015625)"/>
      <use xlink:href="#DejaVuSans-6e" transform="translate(92.871094 0.015625)"/>
      <use xlink:href="#DejaVuSans-6d" transform="translate(156.25 0.015625)"/>
     </g>
    </g>
   </g>
   <g id="matplotlib.axis_2">
    <g id="ytick_1">
     <g id="line2d_11">
      <path d="M 57.6 261.303652 
L 414.72 261.303652 
" clip-path="url(#p0de4289c02)" style="fill: none; stroke: #b0b0b0; stroke-width: 0.8; stroke-linecap: square"/>
     </g>
     <g id="line2d_12">
      <defs>
       <path id="m2ff8a235c9" d="M 0 0 
L -3.5 0 
" style="stroke: #000000; stroke-width: 0.8"/>
      </defs>
      <g>
       <use xlink:href="#m2ff8a235c9" x="57.6" y="261.303652" style="stroke: #000000; stroke-width: 0.8"/>
      </g>
     </g>
     <g id="text_7">
      <!-- 0.05 -->
      <g transform="translate(28.334375 265.102871)scale(0.1 -0.1)">
       <defs>
        <path id="DejaVuSans-2e" d="M 684 794 
L 1344 794 
L 1344 0 
L 684 0 
L 684 794 
z
" transform="scale(0.015625)"/>
       </defs>
       <use xlink:href="#DejaVuSans-30"/>
       <use xlink:href="#DejaVuSans-2e" x="63.623047"/>
       <use xlink:href="#DejaVuSans-30" x="95.410156"/>
       <use xlink:href="#DejaVuSans-35" x="159.033203"/>
      </g>
     </g>
    </g>
    <g id="ytick_2">
     <g id="line2d_13">
      <path d="M 57.6 203.453217 
L 414.72 203.453217 
" clip-path="url(#p0de4289c02)" style="fill: none; stroke: #b0b0b0; stroke-width: 0.8; stroke-linecap: square"/>
     </g>
     <g id="line2d_14">
      <g>
       <use xlink:href="#m2ff8a235c9" x="57.6" y="203.453217" style="stroke: #000000; stroke-width: 0.8"/>
      </g>
     </g>
     <g id="text_8">
      <!-- 0.10 -->
      <g transform="translate(28.334375 207.252436)scale(0.1 -0.1)">
       <defs>
        <path id="DejaVuSans-31" d="M 794 531 
L 1825 531 
L 1825 4091 
L 703 3866 
L 703 4441 
L 1819 4666 
L 2450 4666 
L 2450 531 
L 3481 531 
L 3481 0 
L 794 0 
L 794 531 
z
" transform="scale(0.015625)"/>
       </defs>
       <use xlink:href="#DejaVuSans-30"/>
       <use xlink:href="#DejaVuSans-2e" x="63.623047"/>
       <use xlink:href="#DejaVuSans-31" x="95.410156"/>
       <use xlink:href="#DejaVuSans-30" x="159.033203"/>
      </g>
     </g>
    </g>
    <g id="ytick_3">
     <g id="line2d_15">
      <path d="M 57.6 145.602783 
L 414.72 145.602783 
" clip-path="url(#p0de4289c02)" style="fill: none; stroke: #b0b0b0; stroke-width: 0.8; stroke-linecap: square"/>
     </g>
     <g id="line2d_16">
      <g>
       <use xlink:href="#m2ff8a235c9" x="57.6" y="145.602783" style="stroke: #000000; stroke-width: 0.8"/>
      </g>
     </g>
     <g id="text_9">
      <!-- 0.15 -->
      <g transform="translate(28.334375 149.402001)scale(0.1 -0.1)">
       <use xlink:href="#DejaVuSans-30"/>
       <use xlink:href="#DejaVuSans-2e" x="63.623047"/>
       <use xlink:href="#DejaVuSans-31" x="95.410156"/>
       <use xlink:href="#DejaVuSans-35" x="159.033203"/>
      </g>
     </g>
    </g>
    <g id="ytick_4">
     <g id="line2d_17">
      <path d="M 57.6 87.752348 
L 414.72 87.752348 
" clip-path="url(#p0de4289c02)" style="fill: none; stroke: #b0b0b0; stroke-width: 0.8; stroke-linecap: square"/>
     </g>
     <g id="line2d_18">
      <g>
       <use xlink:href="#m2ff8a235c9" x="57.6" y="87.752348" style="stroke: #000000; stroke-width: 0.8"/>
      </g>
     </g>
     <g id="text_10">
      <!-- 0.20 -->
      <g transform="translate(28.334375 91.551567)scale(0.1 -0.1)">
       <use xlink:href="#DejaVuSans-30"/>
       <use xlink:href="#DejaVuSans-2e" x="63.623047"/>
       <use xlink:href="#DejaVuSans-32" x="95.410156"/>
       <use xlink:href="#DejaVuSans-30" x="159.033203"/>
      </g>
     </g>
    </g>
    <g id="text_11">
     <!-- $I / \mathrm{AU}$ -->
     <g transform="translate(22.254688 184.778)rotate(-90)scale(0.1 -0.1)">
      <defs>
       <path id="DejaVuSans-Oblique-49" d="M 1081 4666 
L 1716 4666 
L 806 0 
L 172 0 
L 1081 4666 
z
" transform="scale(0.015625)"/>
       <path id="DejaVuSans-41" d="M 2188 4044 
L 1331 1722 
L 3047 1722 
L 2188 4044 
z
M 1831 4666 
L 2547 4666 
L 4325 0 
L 3669 0 
L 3244 1197 
L 1141 1197 
L 716 0 
L 50 0 
L 1831 4666 
z
" transform="scale(0.015625)"/>
       <path id="DejaVuSans-55" d="M 556 4666 
L 1191 4666 
L 1191 1831 
Q 1191 1081 1462 751 
Q 1734 422 2344 422 
Q 2950 422 3222 751 
Q 3494 1081 3494 1831 
L 3494 4666 
L 4128 4666 
L 4128 1753 
Q 4128 841 3676 375 
Q 3225 -91 2344 -91 
Q 1459 -91 1007 375 
Q 556 841 556 1753 
L 556 4666 
z
" transform="scale(0.015625)"/>
      </defs>
      <use xlink:href="#DejaVuSans-Oblique-49" transform="translate(0 0.09375)"/>
      <use xlink:href="#DejaVuSans-2f" transform="translate(29.492188 0.09375)"/>
      <use xlink:href="#DejaVuSans-41" transform="translate(63.183594 0.09375)"/>
      <use xlink:href="#DejaVuSans-55" transform="translate(131.591797 0.09375)"/>
     </g>
    </g>
   </g>
   <g id="line2d_19">
    <path d="M 57.596268 188.412104 
L 57.708792 189.569113 
L 57.821338 187.255096 
L 57.933904 188.412104 
L 58.046493 186.098087 
L 58.159102 187.255096 
L 58.384385 187.255096 
L 58.497058 188.412104 
L 58.609753 188.412104 
L 58.72247 189.569113 
L 58.835208 188.412104 
L 58.947967 188.412104 
L 59.060748 189.569113 
L 59.173551 188.412104 
L 59.39922 188.412104 
L 59.512088 187.255096 
L 59.624977 184.941078 
L 59.85082 184.941078 
L 59.963774 187.255096 
L 60.52887 187.255096 
L 60.641955 186.098087 
L 60.86819 186.098087 
L 60.981341 184.941078 
L 61.207708 184.941078 
L 61.320924 183.78407 
L 61.434163 183.78407 
L 61.547423 182.627061 
L 61.660706 186.098087 
L 61.77401 186.098087 
L 61.887337 187.255096 
L 62.454304 187.255096 
L 62.794751 183.78407 
L 62.908277 183.78407 
L 63.021827 182.627061 
L 63.248992 182.627061 
L 63.817299 188.412104 
L 63.931028 188.412104 
L 64.158553 186.098087 
L 64.27235 186.098087 
L 64.386169 184.941078 
L 64.500011 184.941078 
L 64.613876 183.78407 
L 64.727763 183.78407 
L 65.069562 180.313043 
L 65.753775 187.255096 
L 65.86789 187.255096 
L 66.210375 183.78407 
L 66.324583 183.78407 
L 66.438813 182.627061 
L 66.553067 182.627061 
L 66.781644 180.313043 
L 67.239076 180.313043 
L 67.467931 183.78407 
L 67.582393 184.941078 
L 67.696879 184.941078 
L 67.811388 186.098087 
L 67.925921 184.941078 
L 68.040477 184.941078 
L 68.155056 183.78407 
L 68.269659 181.470052 
L 68.384285 182.627061 
L 68.498935 181.470052 
L 68.613608 181.470052 
L 68.728305 180.313043 
L 68.843025 181.470052 
L 69.072536 177.999026 
L 69.302142 177.999026 
L 69.416981 176.842017 
L 69.761638 182.627061 
L 70.106509 186.098087 
L 70.221514 186.098087 
L 70.336542 184.941078 
L 70.451595 184.941078 
L 71.142412 177.999026 
L 71.257633 177.999026 
L 71.488145 175.685009 
L 71.603438 175.685009 
L 71.834095 177.999026 
L 71.94946 177.999026 
L 72.295701 183.78407 
L 72.411163 184.941078 
L 72.526649 184.941078 
L 72.642159 186.098087 
L 72.757694 184.941078 
L 72.873254 184.941078 
L 73.104445 181.470052 
L 73.220078 181.470052 
L 73.567123 175.685009 
L 73.682853 175.685009 
L 73.798608 174.528 
L 74.030192 174.528 
L 74.146021 172.213983 
L 74.261875 173.370991 
L 74.377753 175.685009 
L 74.493656 175.685009 
L 74.841514 184.941078 
L 74.957516 184.941078 
L 75.189594 182.627061 
L 75.305671 182.627061 
L 75.421772 183.78407 
L 75.65405 180.313043 
L 75.886427 177.999026 
L 76.002654 177.999026 
L 76.118905 176.842017 
L 76.467809 176.842017 
L 76.700537 173.370991 
L 76.933367 173.370991 
L 77.63246 186.098087 
L 77.749064 184.941078 
L 77.865693 184.941078 
L 78.099029 181.470052 
L 78.215735 180.313043 
L 78.332466 180.313043 
L 78.682813 174.528 
L 78.916505 172.213983 
L 79.03339 172.213983 
L 79.1503 171.056974 
L 79.267236 171.056974 
L 79.618199 167.585948 
L 79.735237 168.742957 
L 80.320819 183.78407 
L 80.438013 183.78407 
L 80.555233 182.627061 
L 80.907048 182.627061 
L 81.141721 180.313043 
L 81.376499 176.842017 
L 81.493927 175.685009 
L 81.728862 171.056974 
L 82.199045 166.428939 
L 82.316657 164.114922 
L 82.434295 165.27193 
L 82.551959 165.27193 
L 82.787366 169.899965 
L 83.140675 182.627061 
L 83.258498 184.941078 
L 83.376347 184.941078 
L 83.848008 180.313043 
L 84.083998 175.685009 
L 84.202033 175.685009 
L 84.438184 173.370991 
L 84.674441 173.370991 
L 84.79261 172.213983 
L 84.910805 172.213983 
L 85.029027 169.899965 
L 85.147277 169.899965 
L 85.502185 164.114922 
L 85.620542 164.114922 
L 85.738926 162.957913 
L 85.857337 164.114922 
L 86.568369 184.941078 
L 86.686969 184.941078 
L 86.805596 183.78407 
L 86.924251 183.78407 
L 87.042933 180.313043 
L 87.161642 181.470052 
L 87.517933 175.685009 
L 87.636751 174.528 
L 87.874469 169.899965 
L 87.99337 168.742957 
L 88.350236 162.957913 
L 88.469246 162.957913 
L 88.707349 159.486887 
L 88.826442 158.329878 
L 89.06471 160.643896 
L 89.183886 162.957913 
L 89.78018 182.627061 
L 89.899522 183.78407 
L 90.018892 183.78407 
L 90.13829 182.627061 
L 90.377168 179.156035 
L 90.616159 176.842017 
L 90.735696 176.842017 
L 90.974854 171.056974 
L 91.094475 171.056974 
L 91.214125 169.899965 
L 91.333802 167.585948 
L 91.453507 167.585948 
L 91.693002 165.27193 
L 91.93261 161.800904 
L 92.052456 161.800904 
L 92.292233 158.329878 
L 92.532123 156.015861 
L 92.65211 157.17287 
L 93.372631 181.470052 
L 93.492818 180.313043 
L 93.613032 177.999026 
L 93.733276 177.999026 
L 93.973848 175.685009 
L 94.214535 172.213983 
L 94.334922 174.528 
L 94.575781 172.213983 
L 94.937284 164.114922 
L 95.178431 158.329878 
L 95.299047 157.17287 
L 95.419693 157.17287 
L 95.66107 153.701843 
L 95.781802 152.544835 
L 96.023353 146.759791 
L 96.144172 146.759791 
L 96.385897 152.544835 
L 96.869697 181.470052 
L 96.990719 183.78407 
L 97.111771 183.78407 
L 97.353962 181.470052 
L 97.717469 175.685009 
L 97.838697 175.685009 
L 98.202555 167.585948 
L 98.445275 164.114922 
L 98.566679 162.957913 
L 98.931068 154.858852 
L 99.05259 154.858852 
L 99.174142 152.544835 
L 99.295723 152.544835 
L 99.417334 150.230817 
L 99.660645 150.230817 
L 99.782345 146.759791 
L 99.904075 146.759791 
L 100.025834 145.602783 
L 100.147623 145.602783 
L 100.391291 154.858852 
L 100.878985 183.78407 
L 101.000984 182.627061 
L 101.489277 172.213983 
L 101.611426 168.742957 
L 101.733604 168.742957 
L 101.978052 165.27193 
L 102.22262 162.957913 
L 102.467308 158.329878 
L 102.589698 158.329878 
L 102.957049 152.544835 
L 103.07956 152.544835 
L 103.447275 144.445774 
L 103.937989 135.189704 
L 104.060743 135.189704 
L 104.183528 136.346713 
L 104.42919 149.073809 
L 104.920882 179.156035 
L 105.166912 176.842017 
L 105.536188 169.899965 
L 105.659341 169.899965 
L 105.782526 168.742957 
L 105.905741 168.742957 
L 106.152265 162.957913 
L 106.522282 153.701843 
L 106.769115 153.701843 
L 106.892579 154.858852 
L 107.263155 146.759791 
L 107.386743 142.131757 
L 107.510362 142.131757 
L 107.634012 139.817739 
L 107.757693 139.817739 
L 108.00515 137.503722 
L 108.37657 127.090643 
L 108.500439 128.247652 
L 108.62434 132.875687 
L 109.244315 181.470052 
L 109.368405 181.470052 
L 110.611041 158.329878 
L 110.735479 158.329878 
L 111.108984 150.230817 
L 111.482777 142.131757 
L 111.607438 143.288765 
L 112.106403 131.718678 
L 112.231225 130.56167 
L 112.356079 130.56167 
L 112.730832 127.090643 
L 112.980829 131.718678 
L 113.356066 154.858852 
L 113.606386 173.370991 
L 113.731594 176.842017 
L 113.856835 176.842017 
L 113.982108 177.999026 
L 114.107414 177.999026 
L 114.483525 172.213983 
L 114.608961 171.056974 
L 115.236627 156.015861 
L 115.362259 156.015861 
L 115.990905 140.974748 
L 116.116733 140.974748 
L 116.242594 137.503722 
L 116.368487 139.817739 
L 116.87239 128.247652 
L 117.124539 123.619617 
L 117.250663 124.776626 
L 117.37682 122.462609 
L 117.629233 124.776626 
L 117.75549 129.404661 
L 118.387269 183.78407 
L 118.513725 183.78407 
L 118.640214 182.627061 
L 119.399847 162.957913 
L 119.52657 161.800904 
L 120.033794 153.701843 
L 120.287608 151.387826 
L 120.414565 151.387826 
L 120.668581 146.759791 
L 121.558697 130.56167 
L 121.685992 125.933635 
L 121.81332 125.933635 
L 122.195509 117.834574 
L 122.322973 114.363548 
L 122.450471 115.520557 
L 122.70557 125.933635 
L 123.343912 182.627061 
L 123.471683 182.627061 
L 123.727328 177.999026 
L 123.855201 176.842017 
L 124.111051 176.842017 
L 124.623163 161.800904 
L 124.751277 160.643896 
L 125.520685 146.759791 
L 125.64904 146.759791 
L 126.034314 138.66073 
L 126.4199 132.875687 
L 126.548499 131.718678 
L 126.934502 124.776626 
L 127.063239 120.148591 
L 127.192011 120.148591 
L 127.44966 114.363548 
L 127.578537 114.363548 
L 127.707449 116.677565 
L 127.836396 122.462609 
L 128.481655 184.941078 
L 128.610812 184.941078 
L 128.998495 179.156035 
L 129.257126 176.842017 
L 129.90432 161.800904 
L 130.422712 152.544835 
L 131.071501 132.875687 
L 131.201365 132.875687 
L 131.331265 134.032696 
L 131.591172 128.247652 
L 132.371749 109.735513 
L 132.501971 109.735513 
L 132.632228 110.892522 
L 132.89285 108.578504 
L 133.023215 112.04953 
L 133.153616 121.3056 
L 133.67558 186.098087 
L 133.806161 190.726122 
L 134.19812 181.470052 
L 134.459607 181.470052 
L 135.113958 161.800904 
L 135.375953 158.329878 
L 135.507005 157.17287 
L 136.16281 145.602783 
L 136.425387 139.817739 
L 137.213997 120.148591 
L 137.345561 118.991583 
L 137.608798 113.206539 
L 137.740471 112.04953 
L 138.003928 107.421496 
L 138.135712 107.421496 
L 138.399391 100.479443 
L 138.663217 108.578504 
L 138.927191 140.974748 
L 139.323429 186.098087 
L 139.455582 187.255096 
L 139.720001 184.941078 
L 140.381697 172.213983 
L 140.911724 154.858852 
L 141.044324 154.858852 
L 141.309636 150.230817 
L 141.575098 144.445774 
L 141.973572 136.346713 
L 142.106472 136.346713 
L 143.037823 114.363548 
L 143.704205 103.95047 
L 143.837595 102.793461 
L 144.371533 93.537391 
L 144.63873 116.677565 
L 145.17358 186.098087 
L 145.307387 187.255096 
L 145.575117 184.941078 
L 146.111034 173.370991 
L 146.245109 171.056974 
L 146.916059 151.387826 
L 147.587969 134.032696 
L 147.857002 134.032696 
L 147.991576 132.875687 
L 148.395532 118.991583 
L 148.93468 108.578504 
L 149.069564 109.735513 
L 149.204487 107.421496 
L 149.609488 97.008417 
L 149.879683 97.008417 
L 150.285267 87.752348 
L 150.42054 90.066365 
L 150.555852 95.851409 
L 150.826593 132.875687 
L 151.232997 186.098087 
L 151.368543 189.569113 
L 151.639754 183.78407 
L 152.590227 154.858852 
L 152.726166 152.544835 
L 152.998163 145.602783 
L 153.13422 143.288765 
L 153.678846 128.247652 
L 153.815101 128.247652 
L 153.951396 129.404661 
L 154.08773 129.404661 
L 154.496971 116.677565 
L 154.769998 107.421496 
L 154.90657 106.264487 
L 155.453259 97.008417 
L 155.726843 88.909357 
L 155.863695 85.43833 
L 156.000586 86.595339 
L 156.137518 86.595339 
L 156.27449 85.43833 
L 156.685645 79.653287 
L 156.822777 84.281322 
L 157.097161 121.3056 
L 157.371706 176.842017 
L 157.509039 183.78407 
L 157.646412 184.941078 
L 157.783825 183.78407 
L 157.921279 181.470052 
L 158.471496 166.428939 
L 158.746847 161.800904 
L 159.711851 130.56167 
L 159.849871 129.404661 
L 160.126033 124.776626 
L 160.264175 124.776626 
L 160.540581 118.991583 
L 160.955496 106.264487 
L 161.23231 99.322435 
L 161.509288 93.537391 
L 161.925061 83.124313 
L 162.063734 83.124313 
L 162.479999 73.868243 
L 162.618836 73.868243 
L 163.174596 64.612174 
L 163.313639 69.240209 
L 163.452723 78.496278 
L 164.148764 181.470052 
L 164.288096 183.78407 
L 164.70634 175.685009 
L 165.404244 156.015861 
L 165.963315 134.032696 
L 166.243101 124.776626 
L 166.523053 118.991583 
L 166.663092 118.991583 
L 166.803173 117.834574 
L 166.943295 118.991583 
L 167.363914 105.107478 
L 167.784909 93.537391 
L 168.065783 84.281322 
L 168.487409 77.33927 
L 168.628035 77.33927 
L 168.909413 71.554226 
L 169.050166 71.554226 
L 169.19096 70.397217 
L 169.331797 71.554226 
L 169.754561 64.612174 
L 170.036616 64.612174 
L 170.177706 69.240209 
L 170.460015 110.892522 
L 170.742493 166.428939 
L 171.025141 180.313043 
L 171.166529 179.156035 
L 171.874106 164.114922 
L 172.015749 162.957913 
L 172.724607 136.346713 
L 173.008449 127.090643 
L 173.576649 112.04953 
L 173.718806 113.206539 
L 173.861006 113.206539 
L 174.003249 112.04953 
L 174.572651 91.223374 
L 174.857611 95.851409 
L 175.000156 94.6944 
L 175.999179 70.397217 
L 176.142069 70.397217 
L 176.857174 55.356104 
L 177.000325 53.042087 
L 177.14352 56.513113 
L 177.286758 64.612174 
L 178.003603 180.313043 
L 178.147103 181.470052 
L 178.577865 173.370991 
L 179.296677 153.701843 
L 179.728491 143.288765 
L 179.872517 142.131757 
L 180.593306 125.933635 
L 180.737596 124.776626 
L 180.88193 125.933635 
L 181.026308 124.776626 
L 181.459708 113.206539 
L 181.893506 99.322435 
L 183.632691 58.82713 
L 183.777913 57.670122 
L 183.923179 57.670122 
L 184.213845 53.042087 
L 184.504689 61.141148 
L 184.650179 69.240209 
L 184.795713 84.281322 
L 185.232584 173.370991 
L 185.378297 183.78407 
L 185.524055 183.78407 
L 185.669859 184.941078 
L 185.9616 177.999026 
L 186.107538 176.842017 
L 186.837902 161.800904 
L 186.984111 159.486887 
L 187.423006 149.073809 
L 187.715829 143.288765 
L 188.008833 134.032696 
L 188.448679 122.462609 
L 188.888932 114.363548 
L 189.329595 99.322435 
L 190.5067 73.868243 
L 190.948867 66.926191 
L 191.243874 59.984139 
L 191.391447 59.984139 
L 191.686729 55.356104 
L 191.982194 61.141148 
L 192.129996 65.769183 
L 192.277843 76.182261 
L 193.017771 187.255096 
L 193.165895 189.569113 
L 193.314065 188.412104 
L 193.907206 177.999026 
L 194.501087 161.800904 
L 195.095709 144.445774 
L 195.24448 142.131757 
L 195.542163 132.875687 
L 195.691074 131.718678 
L 197.332169 92.380383 
L 197.631157 81.967304 
L 197.930332 77.33927 
L 198.07999 76.182261 
L 198.529245 69.240209 
L 198.679091 64.612174 
L 198.828983 63.455165 
L 199.12891 66.926191 
L 199.278943 68.0832 
L 199.729327 75.025252 
L 199.879549 75.025252 
L 200.029819 77.33927 
L 200.330499 114.363548 
L 200.781874 182.627061 
L 200.932426 188.412104 
L 201.083027 188.412104 
L 203.801951 123.619617 
L 204.256607 109.735513 
L 205.319146 86.595339 
L 205.471129 85.43833 
L 205.62316 80.810296 
L 205.927367 78.496278 
L 206.079542 73.868243 
L 206.231766 72.711235 
L 206.384038 72.711235 
L 206.841142 85.43833 
L 206.993607 86.595339 
L 207.451291 78.496278 
L 207.603949 73.868243 
L 207.756655 72.711235 
L 207.909409 72.711235 
L 208.062213 73.868243 
L 208.215064 77.33927 
L 208.520912 116.677565 
L 208.826955 175.685009 
L 209.133192 182.627061 
L 209.439623 176.842017 
L 211.282303 137.503722 
L 211.5901 131.718678 
L 212.823251 97.008417 
L 212.977616 97.008417 
L 213.13203 94.6944 
L 213.441005 86.595339 
L 213.595567 85.43833 
L 213.750178 85.43833 
L 214.214307 81.967304 
L 214.369116 84.281322 
L 214.678881 94.6944 
L 214.833837 95.851409 
L 215.454159 86.595339 
L 215.764617 77.33927 
L 216.386129 66.926191 
L 216.541632 68.0832 
L 216.697184 71.554226 
L 216.852785 85.43833 
L 217.319889 167.585948 
L 217.47569 176.842017 
L 217.631541 177.999026 
L 218.099393 169.899965 
L 218.255444 166.428939 
L 218.567695 156.015861 
L 219.036447 143.288765 
L 219.349199 136.346713 
L 220.131957 123.619617 
L 220.915972 103.95047 
L 221.22993 95.851409 
L 221.386985 93.537391 
L 221.54409 93.537391 
L 221.701246 94.6944 
L 222.015709 86.595339 
L 222.173017 85.43833 
L 222.330375 87.752348 
L 222.802753 105.107478 
L 222.960313 105.107478 
L 223.117924 101.636452 
L 223.275586 101.636452 
L 223.433299 99.322435 
L 223.591063 93.537391 
L 223.748877 92.380383 
L 224.064658 86.595339 
L 224.222625 81.967304 
L 224.380643 80.810296 
L 224.696831 72.711235 
L 225.171495 65.769183 
L 225.329819 65.769183 
L 225.488193 73.868243 
L 225.646619 91.223374 
L 226.122202 165.27193 
L 226.280833 169.899965 
L 226.439514 169.899965 
L 227.233689 151.387826 
L 227.71081 137.503722 
L 228.825893 115.520557 
L 228.985397 115.520557 
L 229.464217 100.479443 
L 230.103368 90.066365 
L 230.263285 85.43833 
L 230.423253 85.43833 
L 230.583274 86.595339 
L 230.743346 90.066365 
L 231.223875 114.363548 
L 231.384155 113.206539 
L 231.70487 107.421496 
L 232.186334 99.322435 
L 232.50757 94.6944 
L 232.668266 90.066365 
L 232.829014 88.909357 
L 234.11688 62.298157 
L 234.278098 62.298157 
L 234.439369 65.769183 
L 234.600692 76.182261 
L 235.24651 161.800904 
L 235.408095 161.800904 
L 235.731424 156.015861 
L 236.702673 134.032696 
L 237.026844 125.933635 
L 237.675819 109.735513 
L 238.488228 88.909357 
L 238.813563 85.43833 
L 238.976309 84.281322 
L 239.301962 87.752348 
L 239.627827 107.421496 
L 239.953904 121.3056 
L 240.280194 118.991583 
L 240.770029 106.264487 
L 240.933414 103.95047 
L 241.260343 95.851409 
L 241.587486 92.380383 
L 241.751138 91.223374 
L 242.078602 83.124313 
L 242.570198 75.025252 
L 243.062277 66.926191 
L 243.390598 64.612174 
L 243.554839 64.612174 
L 243.719134 66.926191 
L 243.883482 73.868243 
L 244.047884 87.752348 
L 244.541413 152.544835 
L 244.70603 154.858852 
L 244.870701 153.701843 
L 246.850966 109.735513 
L 247.181768 102.793461 
L 247.512786 97.008417 
L 247.844021 91.223374 
L 248.009721 90.066365 
L 248.341282 94.6944 
L 248.839032 129.404661 
L 249.005058 130.56167 
L 250.168764 107.421496 
L 250.335226 106.264487 
L 251.168357 88.909357 
L 251.335147 87.752348 
L 251.501993 85.43833 
L 251.668893 85.43833 
L 252.002858 77.33927 
L 252.169922 76.182261 
L 253.173465 63.455165 
L 253.50842 69.240209 
L 253.67598 78.496278 
L 254.346771 142.131757 
L 254.514607 143.288765 
L 255.018446 135.189704 
L 256.701511 98.165426 
L 256.870122 99.322435 
L 257.03879 94.6944 
L 257.207512 94.6944 
L 257.376291 92.380383 
L 257.545125 95.851409 
L 257.88296 120.148591 
L 258.221018 139.817739 
L 258.390131 138.66073 
L 258.897804 130.56167 
L 259.06714 123.619617 
L 259.236532 122.462609 
L 259.40598 120.148591 
L 259.575484 120.148591 
L 260.084332 110.892522 
L 260.254059 109.735513 
L 260.423843 103.95047 
L 260.593683 102.793461 
L 261.10354 94.6944 
L 261.443725 87.752348 
L 261.613902 86.595339 
L 261.954425 80.810296 
L 263.318769 62.298157 
L 263.489566 65.769183 
L 263.831329 92.380383 
L 264.173319 129.404661 
L 264.344398 135.189704 
L 264.515535 135.189704 
L 264.686727 132.875687 
L 265.200646 121.3056 
L 265.543543 116.677565 
L 265.715076 112.04953 
L 265.886666 110.892522 
L 266.230017 103.95047 
L 266.401777 102.793461 
L 266.745469 99.322435 
L 266.917401 99.322435 
L 267.089389 100.479443 
L 267.261435 108.578504 
L 267.777913 146.759791 
L 267.950187 146.759791 
L 268.122518 147.9168 
L 268.294906 146.759791 
L 268.639853 140.974748 
L 268.985029 136.346713 
L 269.503223 122.462609 
L 269.676068 121.3056 
L 270.021932 114.363548 
L 270.19495 114.363548 
L 270.541158 107.421496 
L 271.060902 99.322435 
L 271.581163 86.595339 
L 272.623241 73.868243 
L 272.797123 72.711235 
L 273.319115 66.926191 
L 273.493228 66.926191 
L 273.841627 69.240209 
L 274.015914 78.496278 
L 274.539122 121.3056 
L 274.888217 125.933635 
L 275.062851 122.462609 
L 275.237544 121.3056 
L 275.761971 112.04953 
L 275.936896 110.892522 
L 276.111879 107.421496 
L 276.286921 106.264487 
L 276.462021 101.636452 
L 276.637179 100.479443 
L 276.812395 101.636452 
L 276.98767 106.264487 
L 277.163003 114.363548 
L 277.513844 149.073809 
L 277.689353 154.858852 
L 277.864919 156.015861 
L 278.040544 156.015861 
L 278.39197 151.387826 
L 278.74363 144.445774 
L 279.623805 128.247652 
L 280.152614 120.148591 
L 280.681951 110.892522 
L 281.035137 108.578504 
L 283.86912 72.711235 
L 284.046746 71.554226 
L 284.224432 71.554226 
L 284.402177 72.711235 
L 284.757845 91.223374 
L 285.113751 114.363548 
L 285.291793 117.834574 
L 285.469894 118.991583 
L 285.826276 116.677565 
L 286.004555 114.363548 
L 286.182895 114.363548 
L 286.361294 110.892522 
L 286.539752 109.735513 
L 286.71827 109.735513 
L 286.896848 105.107478 
L 287.254183 107.421496 
L 287.611756 132.875687 
L 287.790632 150.230817 
L 288.148564 159.486887 
L 288.32762 158.329878 
L 288.685911 152.544835 
L 288.865146 147.9168 
L 289.044441 146.759791 
L 289.403211 140.974748 
L 290.480962 125.933635 
L 290.840693 118.991583 
L 291.020649 120.148591 
L 291.200665 118.991583 
L 291.560877 114.363548 
L 291.741074 114.363548 
L 291.921331 109.735513 
L 292.101648 109.735513 
L 292.462464 102.793461 
L 293.00414 97.008417 
L 293.18482 95.851409 
L 294.089125 84.281322 
L 294.270168 85.43833 
L 294.994946 77.33927 
L 295.357699 79.653287 
L 295.720695 92.380383 
L 296.083934 112.04953 
L 296.265645 115.520557 
L 296.447417 116.677565 
L 296.993097 109.735513 
L 297.175113 109.735513 
L 297.539327 106.264487 
L 297.721525 107.421496 
L 297.903785 112.04953 
L 298.268488 138.66073 
L 298.633435 158.329878 
L 298.816 159.486887 
L 299.181314 157.17287 
L 299.546873 151.387826 
L 299.729745 150.230817 
L 300.095672 143.288765 
L 300.278727 140.974748 
L 300.645023 134.032696 
L 301.011564 130.56167 
L 301.194927 129.404661 
L 301.378351 132.875687 
L 301.745384 132.875687 
L 302.296396 122.462609 
L 302.664045 120.148591 
L 304.505997 98.165426 
L 304.690533 97.008417 
L 305.059789 93.537391 
L 305.244511 93.537391 
L 305.429294 92.380383 
L 305.61414 92.380383 
L 305.984017 88.909357 
L 306.169049 88.909357 
L 306.354143 86.595339 
L 306.539299 86.595339 
L 306.724517 87.752348 
L 306.909797 90.066365 
L 307.280545 106.264487 
L 307.466012 110.892522 
L 307.651542 112.04953 
L 308.022788 109.735513 
L 308.208505 109.735513 
L 308.394284 107.421496 
L 308.580125 108.578504 
L 308.951996 124.776626 
L 309.324116 153.701843 
L 309.51027 159.486887 
L 309.696486 159.486887 
L 310.069107 156.015861 
L 310.255512 154.858852 
L 310.628508 149.073809 
L 311.375255 140.974748 
L 311.562098 139.817739 
L 311.749004 143.288765 
L 311.935974 143.288765 
L 312.123006 144.445774 
L 313.433992 129.404661 
L 313.621528 128.247652 
L 314.184514 122.462609 
L 314.748069 118.991583 
L 315.124088 115.520557 
L 315.312193 114.363548 
L 315.876886 108.578504 
L 316.065244 107.421496 
L 316.253665 107.421496 
L 316.819309 100.479443 
L 317.007984 101.636452 
L 317.57439 94.6944 
L 317.763319 94.6944 
L 317.952312 93.537391 
L 318.141369 93.537391 
L 318.70892 101.636452 
L 319.087606 113.206539 
L 319.277044 112.04953 
L 319.466547 113.206539 
L 319.656113 113.206539 
L 320.035437 118.991583 
L 320.225195 128.247652 
L 320.604902 153.701843 
L 320.794852 158.329878 
L 320.984865 159.486887 
L 321.174943 158.329878 
L 321.365085 156.015861 
L 321.55529 156.015861 
L 322.126292 150.230817 
L 322.316754 149.073809 
L 322.50728 150.230817 
L 322.888525 156.015861 
L 323.079244 156.015861 
L 323.460875 152.544835 
L 323.651786 151.387826 
L 324.033803 147.9168 
L 324.224908 146.759791 
L 324.416077 143.288765 
L 324.60731 142.131757 
L 325.181398 136.346713 
L 325.756066 132.875687 
L 325.947752 132.875687 
L 326.331316 127.090643 
L 326.907147 123.619617 
L 327.483562 117.834574 
L 327.675829 116.677565 
L 328.060559 116.677565 
L 328.253021 115.520557 
L 328.63814 112.04953 
L 328.830797 110.892522 
L 329.023519 110.892522 
L 329.216306 108.578504 
L 329.409157 109.735513 
L 329.602074 109.735513 
L 329.795056 108.578504 
L 330.181216 108.578504 
L 330.567635 110.892522 
L 331.147754 120.148591 
L 331.341257 121.3056 
L 331.534825 123.619617 
L 332.309753 160.643896 
L 332.503648 161.800904 
L 332.891635 159.486887 
L 333.085726 159.486887 
L 333.279883 157.17287 
L 333.668394 159.486887 
L 334.057167 167.585948 
L 334.446202 167.585948 
L 335.030247 164.114922 
L 335.419939 158.329878 
L 335.614884 158.329878 
L 336.004971 156.015861 
L 336.590595 150.230817 
L 337.763622 143.288765 
L 337.959358 140.974748 
L 338.15516 140.974748 
L 338.546961 137.503722 
L 338.939028 135.189704 
L 339.13516 135.189704 
L 339.331359 134.032696 
L 339.527624 134.032696 
L 339.723955 132.875687 
L 339.920352 132.875687 
L 340.313346 129.404661 
L 340.509942 128.247652 
L 340.903334 130.56167 
L 341.10013 128.247652 
L 341.296992 128.247652 
L 341.49392 127.090643 
L 341.690915 127.090643 
L 342.2823 123.619617 
L 342.479561 124.776626 
L 342.676889 124.776626 
L 343.071744 130.56167 
L 343.466866 137.503722 
L 344.45584 168.742957 
L 344.851897 168.742957 
L 345.644815 181.470052 
L 345.843212 182.627061 
L 346.041675 181.470052 
L 346.240206 179.156035 
L 346.438804 179.156035 
L 346.836201 175.685009 
L 347.035 174.528 
L 347.4328 171.056974 
L 347.631801 169.899965 
L 347.830869 167.585948 
L 348.030004 168.742957 
L 348.428476 165.27193 
L 348.627813 165.27193 
L 348.827218 166.428939 
L 349.425835 160.643896 
L 349.625509 159.486887 
L 349.82525 157.17287 
L 350.025059 158.329878 
L 350.224936 158.329878 
L 350.624891 156.015861 
L 351.025117 156.015861 
L 351.625963 152.544835 
L 351.82638 154.858852 
L 352.227418 152.544835 
L 352.428038 152.544835 
L 352.628726 151.387826 
L 352.829482 151.387826 
L 353.030306 149.073809 
L 353.231198 150.230817 
L 353.432158 150.230817 
L 353.633185 149.073809 
L 353.834281 150.230817 
L 354.035444 149.073809 
L 354.437975 149.073809 
L 354.639343 147.9168 
L 355.042282 150.230817 
L 355.243853 149.073809 
L 355.848977 157.17287 
L 356.454714 179.156035 
L 357.061066 187.255096 
L 357.668032 198.825183 
L 357.870491 196.511165 
L 358.073019 196.511165 
L 358.478279 194.197148 
L 358.681012 195.354157 
L 359.086683 191.88313 
L 359.289621 191.88313 
L 359.695704 189.569113 
L 359.898848 189.569113 
L 360.508693 186.098087 
L 360.712112 183.78407 
L 360.915599 184.941078 
L 361.119156 184.941078 
L 361.322781 183.78407 
L 361.730238 183.78407 
L 362.137971 181.470052 
L 362.545979 181.470052 
L 362.750086 180.313043 
L 363.362823 180.313043 
L 363.771659 177.999026 
L 364.590161 177.999026 
L 364.79496 176.842017 
L 364.999827 177.999026 
L 365.204764 176.842017 
L 365.614846 176.842017 
L 365.81999 175.685009 
L 366.025205 175.685009 
L 366.230488 176.842017 
L 366.435841 175.685009 
L 367.052316 175.685009 
L 367.257946 176.842017 
L 367.463647 175.685009 
L 367.669416 175.685009 
L 367.875255 177.999026 
L 368.081164 177.999026 
L 368.287142 179.156035 
L 368.699308 187.255096 
L 369.730941 213.866296 
L 369.937477 215.023304 
L 370.350759 215.023304 
L 370.557504 213.866296 
L 370.971205 213.866296 
L 371.17816 212.709287 
L 371.59228 212.709287 
L 371.799445 210.39527 
L 372.00668 210.39527 
L 372.213985 209.238261 
L 372.421361 209.238261 
L 372.628806 208.081252 
L 372.836321 209.238261 
L 373.043907 206.924243 
L 373.251562 208.081252 
L 373.459288 206.924243 
L 374.290894 206.924243 
L 374.498971 205.767235 
L 374.707119 206.924243 
L 375.123625 203.453217 
L 376.792466 203.453217 
L 377.001389 204.610226 
L 377.210382 204.610226 
L 377.419446 203.453217 
L 378.256408 203.453217 
L 378.465825 202.296209 
L 378.884872 204.610226 
L 379.094502 203.453217 
L 379.304202 203.453217 
L 379.513973 204.610226 
L 379.723816 203.453217 
L 379.933729 204.610226 
L 380.353768 204.610226 
L 380.563894 206.924243 
L 380.774091 205.767235 
L 380.984359 205.767235 
L 381.194699 206.924243 
L 381.61559 212.709287 
L 382.458227 231.221426 
L 383.090952 234.692452 
L 383.302003 233.535443 
L 383.513125 234.692452 
L 383.724319 233.535443 
L 383.935584 233.535443 
L 384.14692 232.378435 
L 384.99298 232.378435 
L 385.204674 231.221426 
L 385.416439 231.221426 
L 385.628275 232.378435 
L 386.052164 230.064417 
L 386.476338 230.064417 
L 386.688533 231.221426 
L 386.900799 230.064417 
L 387.113138 230.064417 
L 387.325547 228.907409 
L 387.538029 230.064417 
L 387.750583 228.907409 
L 387.963208 230.064417 
L 389.027412 230.064417 
L 389.240468 228.907409 
L 389.666798 228.907409 
L 389.88007 230.064417 
L 390.093415 228.907409 
L 390.306831 228.907409 
L 390.52032 230.064417 
L 391.374996 230.064417 
L 391.588846 231.221426 
L 393.087816 231.221426 
L 393.302244 232.378435 
L 393.516745 232.378435 
L 393.731317 233.535443 
L 394.160681 233.535443 
L 394.375471 234.692452 
L 394.805269 239.320487 
L 395.450511 250.890574 
L 395.881035 253.204591 
L 396.527367 253.204591 
L 396.742957 252.047583 
L 396.958619 253.204591 
L 397.174354 253.204591 
L 397.390162 252.047583 
L 397.606043 253.204591 
L 397.821996 252.047583 
L 398.038023 252.047583 
L 398.254123 250.890574 
L 398.68654 253.204591 
L 398.902859 252.047583 
L 399.11925 252.047583 
L 399.335715 250.890574 
L 399.552253 252.047583 
L 399.768863 250.890574 
L 399.985547 252.047583 
L 400.202304 250.890574 
L 400.419134 252.047583 
L 400.636037 252.047583 
L 400.853014 250.890574 
L 401.070064 252.047583 
L 402.156412 252.047583 
L 402.373902 253.204591 
L 403.898386 253.204591 
L 404.116464 254.3616 
L 404.334615 253.204591 
L 404.55284 253.204591 
L 404.771138 254.3616 
L 404.98951 253.204591 
L 405.207956 253.204591 
L 405.645069 255.518609 
L 405.863736 254.3616 
L 406.082477 255.518609 
L 406.301291 255.518609 
L 406.52018 256.675617 
L 407.396472 256.675617 
L 407.61573 257.832626 
L 408.713129 268.245704 
L 409.152607 270.559722 
L 409.81238 270.559722 
L 410.032453 269.402713 
L 410.472821 271.71673 
L 410.693117 270.559722 
L 410.913487 271.71673 
L 411.133931 271.71673 
L 411.354449 270.559722 
L 412.016451 270.559722 
L 412.237267 271.71673 
L 412.458158 270.559722 
L 412.679123 270.559722 
L 412.900163 271.71673 
L 413.121277 271.71673 
L 413.563729 269.402713 
L 413.785066 270.559722 
L 414.449528 270.559722 
L 414.671164 271.71673 
L 414.892875 270.559722 
L 414.892875 270.559722 
" clip-path="url(#p0de4289c02)" style="fill: none; stroke: #1f77b4; stroke-width: 1.5; stroke-linecap: square"/>
   </g>
   <g id="patch_3">
    <path d="M 57.6 307.584 
L 57.6 41.472 
" style="fill: none; stroke: #000000; stroke-width: 0.8; stroke-linejoin: miter; stroke-linecap: square"/>
   </g>
   <g id="patch_4">
    <path d="M 414.72 307.584 
L 414.72 41.472 
" style="fill: none; stroke: #000000; stroke-width: 0.8; stroke-linejoin: miter; stroke-linecap: square"/>
   </g>
   <g id="patch_5">
    <path d="M 57.6 307.584 
L 414.72 307.584 
" style="fill: none; stroke: #000000; stroke-width: 0.8; stroke-linejoin: miter; stroke-linecap: square"/>
   </g>
   <g id="patch_6">
    <path d="M 57.6 41.472 
L 414.72 41.472 
" style="fill: none; stroke: #000000; stroke-width: 0.8; stroke-linejoin: miter; stroke-linecap: square"/>
   </g>
  </g>
 </g>
 <defs>
  <clipPath id="p0de4289c02">
   <rect x="57.6" y="41.472" width="357.12" height="266.112"/>
  </clipPath>
 </defs>
</svg>
