<?xml version="1.0" encoding="utf-8" standalone="no"?>
<!DOCTYPE svg PUBLIC "-//W3C//DTD SVG 1.1//EN"
  "http://www.w3.org/Graphics/SVG/1.1/DTD/svg11.dtd">
<svg xmlns:xlink="http://www.w3.org/1999/xlink" width="460.8pt" height="345.6pt" viewBox="0 0 460.8 345.6" xmlns="http://www.w3.org/2000/svg" version="1.1">
 <metadata>
  <rdf:RDF xmlns:dc="http://purl.org/dc/elements/1.1/" xmlns:cc="http://creativecommons.org/ns#" xmlns:rdf="http://www.w3.org/1999/02/22-rdf-syntax-ns#">
   <cc:Work>
    <dc:type rdf:resource="http://purl.org/dc/dcmitype/StillImage"/>
    <dc:date>2023-01-18T15:34:07.717207</dc:date>
    <dc:format>image/svg+xml</dc:format>
    <dc:creator>
     <cc:Agent>
      <dc:title>Matplotlib v3.5.2, https://matplotlib.org/</dc:title>
     </cc:Agent>
    </dc:creator>
   </cc:Work>
  </rdf:RDF>
 </metadata>
 <defs>
  <style type="text/css">*{stroke-linejoin: round; stroke-linecap: butt}</style>
 </defs>
 <g id="figure_1">
  <g id="patch_1">
   <path d="M 0 345.6 
L 460.8 345.6 
L 460.8 0 
L 0 0 
z
" style="fill: #ffffff"/>
  </g>
  <g id="axes_1">
   <g id="patch_2">
    <path d="M 57.6 162.432 
L 414.72 162.432 
L 414.72 41.472 
L 57.6 41.472 
z
" style="fill: #ffffff"/>
   </g>
   <g id="PathCollection_1">
    <defs>
     <path id="m002de8da65" d="M 0 3 
C 0.795609 3 1.55874 2.683901 2.12132 2.12132 
C 2.683901 1.55874 3 0.795609 3 0 
C 3 -0.795609 2.683901 -1.55874 2.12132 -2.12132 
C 1.55874 -2.683901 0.795609 -3 0 -3 
C -0.795609 -3 -1.55874 -2.683901 -2.12132 -2.12132 
C -2.683901 -1.55874 -3 -0.795609 -3 0 
C -3 0.795609 -2.683901 1.55874 -2.12132 2.12132 
C -1.55874 2.683901 -0.795609 3 0 3 
z
" style="stroke: #1f77b4"/>
    </defs>
    <g clip-path="url(#p7494798f4e)">
     <use xlink:href="#m002de8da65" x="96.222696" y="146.97822" style="fill: #1f77b4; stroke: #1f77b4"/>
     <use xlink:href="#m002de8da65" x="107.41768" y="140.237617" style="fill: #1f77b4; stroke: #1f77b4"/>
     <use xlink:href="#m002de8da65" x="118.612665" y="129.003279" style="fill: #1f77b4; stroke: #1f77b4"/>
     <use xlink:href="#m002de8da65" x="124.210157" y="120.015808" style="fill: #1f77b4; stroke: #1f77b4"/>
     <use xlink:href="#m002de8da65" x="129.807649" y="113.275205" style="fill: #1f77b4; stroke: #1f77b4"/>
     <use xlink:href="#m002de8da65" x="135.405141" y="102.040867" style="fill: #1f77b4; stroke: #1f77b4"/>
     <use xlink:href="#m002de8da65" x="141.002633" y="84.065925" style="fill: #1f77b4; stroke: #1f77b4"/>
     <use xlink:href="#m002de8da65" x="146.600125" y="75.078455" style="fill: #1f77b4; stroke: #1f77b4"/>
     <use xlink:href="#m002de8da65" x="152.197618" y="57.103514" style="fill: #1f77b4; stroke: #1f77b4"/>
     <use xlink:href="#m002de8da65" x="157.79511" y="50.362911" style="fill: #1f77b4; stroke: #1f77b4"/>
     <use xlink:href="#m002de8da65" x="163.392602" y="48.116043" style="fill: #1f77b4; stroke: #1f77b4"/>
     <use xlink:href="#m002de8da65" x="168.990094" y="54.856646" style="fill: #1f77b4; stroke: #1f77b4"/>
     <use xlink:href="#m002de8da65" x="174.587586" y="68.337852" style="fill: #1f77b4; stroke: #1f77b4"/>
     <use xlink:href="#m002de8da65" x="180.185078" y="79.57219" style="fill: #1f77b4; stroke: #1f77b4"/>
     <use xlink:href="#m002de8da65" x="185.782571" y="93.053396" style="fill: #1f77b4; stroke: #1f77b4"/>
     <use xlink:href="#m002de8da65" x="191.380063" y="104.287734" style="fill: #1f77b4; stroke: #1f77b4"/>
     <use xlink:href="#m002de8da65" x="196.977555" y="108.78147" style="fill: #1f77b4; stroke: #1f77b4"/>
     <use xlink:href="#m002de8da65" x="208.172539" y="122.262676" style="fill: #1f77b4; stroke: #1f77b4"/>
     <use xlink:href="#m002de8da65" x="219.367524" y="129.003279" style="fill: #1f77b4; stroke: #1f77b4"/>
     <use xlink:href="#m002de8da65" x="230.562508" y="137.990749" style="fill: #1f77b4; stroke: #1f77b4"/>
     <use xlink:href="#m002de8da65" x="241.757492" y="140.237617" style="fill: #1f77b4; stroke: #1f77b4"/>
     <use xlink:href="#m002de8da65" x="252.952476" y="146.97822" style="fill: #1f77b4; stroke: #1f77b4"/>
     <use xlink:href="#m002de8da65" x="264.147461" y="146.97822" style="fill: #1f77b4; stroke: #1f77b4"/>
    </g>
   </g>
   <g id="PathCollection_2">
    <defs>
     <path id="m5c1c1495a9" d="M 0 3 
C 0.795609 3 1.55874 2.683901 2.12132 2.12132 
C 2.683901 1.55874 3 0.795609 3 0 
C 3 -0.795609 2.683901 -1.55874 2.12132 -2.12132 
C 1.55874 -2.683901 0.795609 -3 0 -3 
C -0.795609 -3 -1.55874 -2.683901 -2.12132 -2.12132 
C -2.683901 -1.55874 -3 -0.795609 -3 0 
C -3 0.795609 -2.683901 1.55874 -2.12132 2.12132 
C -1.55874 2.683901 -0.795609 3 0 3 
z
" style="stroke: #ff7f0e"/>
    </defs>
    <g clip-path="url(#p7494798f4e)">
     <use xlink:href="#m5c1c1495a9" x="79.430219" y="155.965691" style="fill: #ff7f0e; stroke: #ff7f0e"/>
     <use xlink:href="#m5c1c1495a9" x="73.832727" y="153.718823" style="fill: #ff7f0e; stroke: #ff7f0e"/>
     <use xlink:href="#m5c1c1495a9" x="90.625204" y="144.731352" style="fill: #ff7f0e; stroke: #ff7f0e"/>
     <use xlink:href="#m5c1c1495a9" x="85.027712" y="151.471955" style="fill: #ff7f0e; stroke: #ff7f0e"/>
     <use xlink:href="#m5c1c1495a9" x="101.820188" y="137.990749" style="fill: #ff7f0e; stroke: #ff7f0e"/>
     <use xlink:href="#m5c1c1495a9" x="96.222696" y="144.731352" style="fill: #ff7f0e; stroke: #ff7f0e"/>
     <use xlink:href="#m5c1c1495a9" x="113.015172" y="129.003279" style="fill: #ff7f0e; stroke: #ff7f0e"/>
     <use xlink:href="#m5c1c1495a9" x="107.41768" y="133.497014" style="fill: #ff7f0e; stroke: #ff7f0e"/>
     <use xlink:href="#m5c1c1495a9" x="124.210157" y="122.262676" style="fill: #ff7f0e; stroke: #ff7f0e"/>
     <use xlink:href="#m5c1c1495a9" x="118.612665" y="126.756411" style="fill: #ff7f0e; stroke: #ff7f0e"/>
     <use xlink:href="#m5c1c1495a9" x="135.405141" y="115.522073" style="fill: #ff7f0e; stroke: #ff7f0e"/>
     <use xlink:href="#m5c1c1495a9" x="129.807649" y="115.522073" style="fill: #ff7f0e; stroke: #ff7f0e"/>
     <use xlink:href="#m5c1c1495a9" x="146.600125" y="106.534602" style="fill: #ff7f0e; stroke: #ff7f0e"/>
     <use xlink:href="#m5c1c1495a9" x="141.002633" y="111.028337" style="fill: #ff7f0e; stroke: #ff7f0e"/>
     <use xlink:href="#m5c1c1495a9" x="157.79511" y="111.028337" style="fill: #ff7f0e; stroke: #ff7f0e"/>
     <use xlink:href="#m5c1c1495a9" x="152.197618" y="111.028337" style="fill: #ff7f0e; stroke: #ff7f0e"/>
     <use xlink:href="#m5c1c1495a9" x="168.990094" y="113.275205" style="fill: #ff7f0e; stroke: #ff7f0e"/>
     <use xlink:href="#m5c1c1495a9" x="163.392602" y="113.275205" style="fill: #ff7f0e; stroke: #ff7f0e"/>
     <use xlink:href="#m5c1c1495a9" x="180.185078" y="122.262676" style="fill: #ff7f0e; stroke: #ff7f0e"/>
     <use xlink:href="#m5c1c1495a9" x="174.587586" y="120.015808" style="fill: #ff7f0e; stroke: #ff7f0e"/>
     <use xlink:href="#m5c1c1495a9" x="191.380063" y="129.003279" style="fill: #ff7f0e; stroke: #ff7f0e"/>
     <use xlink:href="#m5c1c1495a9" x="185.782571" y="126.756411" style="fill: #ff7f0e; stroke: #ff7f0e"/>
     <use xlink:href="#m5c1c1495a9" x="202.575047" y="137.990749" style="fill: #ff7f0e; stroke: #ff7f0e"/>
     <use xlink:href="#m5c1c1495a9" x="196.977555" y="131.250146" style="fill: #ff7f0e; stroke: #ff7f0e"/>
     <use xlink:href="#m5c1c1495a9" x="213.770031" y="140.237617" style="fill: #ff7f0e; stroke: #ff7f0e"/>
     <use xlink:href="#m5c1c1495a9" x="208.172539" y="135.743882" style="fill: #ff7f0e; stroke: #ff7f0e"/>
     <use xlink:href="#m5c1c1495a9" x="224.965016" y="144.731352" style="fill: #ff7f0e; stroke: #ff7f0e"/>
     <use xlink:href="#m5c1c1495a9" x="219.367524" y="140.237617" style="fill: #ff7f0e; stroke: #ff7f0e"/>
     <use xlink:href="#m5c1c1495a9" x="236.16" y="146.97822" style="fill: #ff7f0e; stroke: #ff7f0e"/>
     <use xlink:href="#m5c1c1495a9" x="230.562508" y="144.731352" style="fill: #ff7f0e; stroke: #ff7f0e"/>
     <use xlink:href="#m5c1c1495a9" x="247.354984" y="149.225088" style="fill: #ff7f0e; stroke: #ff7f0e"/>
     <use xlink:href="#m5c1c1495a9" x="241.757492" y="146.97822" style="fill: #ff7f0e; stroke: #ff7f0e"/>
     <use xlink:href="#m5c1c1495a9" x="258.549969" y="151.471955" style="fill: #ff7f0e; stroke: #ff7f0e"/>
     <use xlink:href="#m5c1c1495a9" x="252.952476" y="149.225088" style="fill: #ff7f0e; stroke: #ff7f0e"/>
     <use xlink:href="#m5c1c1495a9" x="264.147461" y="151.471955" style="fill: #ff7f0e; stroke: #ff7f0e"/>
    </g>
   </g>
   <g id="matplotlib.axis_1">
    <g id="xtick_1">
     <g id="line2d_1">
      <defs>
       <path id="m9ff5872eae" d="M 0 0 
L 0 3.5 
" style="stroke: #000000; stroke-width: 0.8"/>
      </defs>
      <g>
       <use xlink:href="#m9ff5872eae" x="96.222696" y="162.432" style="stroke: #000000; stroke-width: 0.8"/>
      </g>
     </g>
    </g>
    <g id="xtick_2">
     <g id="line2d_2">
      <g>
       <use xlink:href="#m9ff5872eae" x="152.197618" y="162.432" style="stroke: #000000; stroke-width: 0.8"/>
      </g>
     </g>
    </g>
    <g id="xtick_3">
     <g id="line2d_3">
      <g>
       <use xlink:href="#m9ff5872eae" x="208.172539" y="162.432" style="stroke: #000000; stroke-width: 0.8"/>
      </g>
     </g>
    </g>
    <g id="xtick_4">
     <g id="line2d_4">
      <g>
       <use xlink:href="#m9ff5872eae" x="264.147461" y="162.432" style="stroke: #000000; stroke-width: 0.8"/>
      </g>
     </g>
    </g>
    <g id="xtick_5">
     <g id="line2d_5">
      <g>
       <use xlink:href="#m9ff5872eae" x="320.122382" y="162.432" style="stroke: #000000; stroke-width: 0.8"/>
      </g>
     </g>
    </g>
    <g id="xtick_6">
     <g id="line2d_6">
      <g>
       <use xlink:href="#m9ff5872eae" x="376.097304" y="162.432" style="stroke: #000000; stroke-width: 0.8"/>
      </g>
     </g>
    </g>
   </g>
   <g id="matplotlib.axis_2">
    <g id="ytick_1">
     <g id="line2d_7">
      <defs>
       <path id="mf7377e3c65" d="M 0 0 
L -3.5 0 
" style="stroke: #000000; stroke-width: 0.8"/>
      </defs>
      <g>
       <use xlink:href="#mf7377e3c65" x="57.6" y="148.975436" style="stroke: #000000; stroke-width: 0.8"/>
      </g>
     </g>
     <g id="text_1">
      <!-- 100 -->
      <g transform="translate(31.5125 152.774654)scale(0.1 -0.1)">
       <defs>
        <path id="DejaVuSans-31" d="M 794 531 
L 1825 531 
L 1825 4091 
L 703 3866 
L 703 4441 
L 1819 4666 
L 2450 4666 
L 2450 531 
L 3481 531 
L 3481 0 
L 794 0 
L 794 531 
z
" transform="scale(0.015625)"/>
        <path id="DejaVuSans-30" d="M 2034 4250 
Q 1547 4250 1301 3770 
Q 1056 3291 1056 2328 
Q 1056 1369 1301 889 
Q 1547 409 2034 409 
Q 2525 409 2770 889 
Q 3016 1369 3016 2328 
Q 3016 3291 2770 3770 
Q 2525 4250 2034 4250 
z
M 2034 4750 
Q 2819 4750 3233 4129 
Q 3647 3509 3647 2328 
Q 3647 1150 3233 529 
Q 2819 -91 2034 -91 
Q 1250 -91 836 529 
Q 422 1150 422 2328 
Q 422 3509 836 4129 
Q 1250 4750 2034 4750 
z
" transform="scale(0.015625)"/>
       </defs>
       <use xlink:href="#DejaVuSans-31"/>
       <use xlink:href="#DejaVuSans-30" x="63.623047"/>
       <use xlink:href="#DejaVuSans-30" x="127.246094"/>
      </g>
     </g>
    </g>
    <g id="ytick_2">
     <g id="line2d_8">
      <g>
       <use xlink:href="#mf7377e3c65" x="57.6" y="124.010239" style="stroke: #000000; stroke-width: 0.8"/>
      </g>
     </g>
     <g id="text_2">
      <!-- 200 -->
      <g transform="translate(31.5125 127.809458)scale(0.1 -0.1)">
       <defs>
        <path id="DejaVuSans-32" d="M 1228 531 
L 3431 531 
L 3431 0 
L 469 0 
L 469 531 
Q 828 903 1448 1529 
Q 2069 2156 2228 2338 
Q 2531 2678 2651 2914 
Q 2772 3150 2772 3378 
Q 2772 3750 2511 3984 
Q 2250 4219 1831 4219 
Q 1534 4219 1204 4116 
Q 875 4013 500 3803 
L 500 4441 
Q 881 4594 1212 4672 
Q 1544 4750 1819 4750 
Q 2544 4750 2975 4387 
Q 3406 4025 3406 3419 
Q 3406 3131 3298 2873 
Q 3191 2616 2906 2266 
Q 2828 2175 2409 1742 
Q 1991 1309 1228 531 
z
" transform="scale(0.015625)"/>
       </defs>
       <use xlink:href="#DejaVuSans-32"/>
       <use xlink:href="#DejaVuSans-30" x="63.623047"/>
       <use xlink:href="#DejaVuSans-30" x="127.246094"/>
      </g>
     </g>
    </g>
    <g id="ytick_3">
     <g id="line2d_9">
      <g>
       <use xlink:href="#mf7377e3c65" x="57.6" y="99.045043" style="stroke: #000000; stroke-width: 0.8"/>
      </g>
     </g>
     <g id="text_3">
      <!-- 300 -->
      <g transform="translate(31.5125 102.844262)scale(0.1 -0.1)">
       <defs>
        <path id="DejaVuSans-33" d="M 2597 2516 
Q 3050 2419 3304 2112 
Q 3559 1806 3559 1356 
Q 3559 666 3084 287 
Q 2609 -91 1734 -91 
Q 1441 -91 1130 -33 
Q 819 25 488 141 
L 488 750 
Q 750 597 1062 519 
Q 1375 441 1716 441 
Q 2309 441 2620 675 
Q 2931 909 2931 1356 
Q 2931 1769 2642 2001 
Q 2353 2234 1838 2234 
L 1294 2234 
L 1294 2753 
L 1863 2753 
Q 2328 2753 2575 2939 
Q 2822 3125 2822 3475 
Q 2822 3834 2567 4026 
Q 2313 4219 1838 4219 
Q 1578 4219 1281 4162 
Q 984 4106 628 3988 
L 628 4550 
Q 988 4650 1302 4700 
Q 1616 4750 1894 4750 
Q 2613 4750 3031 4423 
Q 3450 4097 3450 3541 
Q 3450 3153 3228 2886 
Q 3006 2619 2597 2516 
z
" transform="scale(0.015625)"/>
       </defs>
       <use xlink:href="#DejaVuSans-33"/>
       <use xlink:href="#DejaVuSans-30" x="63.623047"/>
       <use xlink:href="#DejaVuSans-30" x="127.246094"/>
      </g>
     </g>
    </g>
    <g id="ytick_4">
     <g id="line2d_10">
      <g>
       <use xlink:href="#mf7377e3c65" x="57.6" y="74.079847" style="stroke: #000000; stroke-width: 0.8"/>
      </g>
     </g>
     <g id="text_4">
      <!-- 400 -->
      <g transform="translate(31.5125 77.879066)scale(0.1 -0.1)">
       <defs>
        <path id="DejaVuSans-34" d="M 2419 4116 
L 825 1625 
L 2419 1625 
L 2419 4116 
z
M 2253 4666 
L 3047 4666 
L 3047 1625 
L 3713 1625 
L 3713 1100 
L 3047 1100 
L 3047 0 
L 2419 0 
L 2419 1100 
L 313 1100 
L 313 1709 
L 2253 4666 
z
" transform="scale(0.015625)"/>
       </defs>
       <use xlink:href="#DejaVuSans-34"/>
       <use xlink:href="#DejaVuSans-30" x="63.623047"/>
       <use xlink:href="#DejaVuSans-30" x="127.246094"/>
      </g>
     </g>
    </g>
    <g id="ytick_5">
     <g id="line2d_11">
      <g>
       <use xlink:href="#mf7377e3c65" x="57.6" y="49.114651" style="stroke: #000000; stroke-width: 0.8"/>
      </g>
     </g>
     <g id="text_5">
      <!-- 500 -->
      <g transform="translate(31.5125 52.913869)scale(0.1 -0.1)">
       <defs>
        <path id="DejaVuSans-35" d="M 691 4666 
L 3169 4666 
L 3169 4134 
L 1269 4134 
L 1269 2991 
Q 1406 3038 1543 3061 
Q 1681 3084 1819 3084 
Q 2600 3084 3056 2656 
Q 3513 2228 3513 1497 
Q 3513 744 3044 326 
Q 2575 -91 1722 -91 
Q 1428 -91 1123 -41 
Q 819 9 494 109 
L 494 744 
Q 775 591 1075 516 
Q 1375 441 1709 441 
Q 2250 441 2565 725 
Q 2881 1009 2881 1497 
Q 2881 1984 2565 2268 
Q 2250 2553 1709 2553 
Q 1456 2553 1204 2497 
Q 953 2441 691 2322 
L 691 4666 
z
" transform="scale(0.015625)"/>
       </defs>
       <use xlink:href="#DejaVuSans-35"/>
       <use xlink:href="#DejaVuSans-30" x="63.623047"/>
       <use xlink:href="#DejaVuSans-30" x="127.246094"/>
      </g>
     </g>
    </g>
   </g>
   <g id="line2d_12">
    <path d="M 96.222696 148.046193 
L 100.425017 145.118569 
L 104.291153 142.162953 
L 107.989196 139.056593 
L 111.519146 135.790963 
L 114.71291 132.540325 
L 117.738582 129.159738 
L 120.764253 125.441674 
L 123.621832 121.575384 
L 126.47941 117.316818 
L 129.168896 112.905473 
L 131.858382 108.05973 
L 134.547867 102.740782 
L 137.237353 96.920917 
L 140.094932 90.184554 
L 143.288696 82.045841 
L 152.869989 57.075522 
L 154.550918 53.573785 
L 155.89566 51.21423 
L 157.07231 49.533315 
L 158.080868 48.410129 
L 159.089425 47.601055 
L 159.929889 47.176411 
L 160.770353 46.982803 
L 161.610818 47.020269 
L 162.451282 47.285203 
L 163.291746 47.770538 
L 164.300303 48.629306 
L 165.476953 49.983089 
L 166.821696 51.940894 
L 168.334532 54.580581 
L 170.183553 58.286148 
L 172.704946 63.878285 
L 181.781961 84.467842 
L 184.807632 90.56641 
L 187.665211 95.832509 
L 190.522789 100.625901 
L 193.380368 104.975038 
L 196.237946 108.917697 
L 199.095525 112.494202 
L 202.121196 115.925556 
L 205.314961 119.197412 
L 208.508725 122.154058 
L 211.870582 124.969197 
L 215.400532 127.63976 
L 219.098575 130.165841 
L 223.132804 132.648208 
L 227.335125 134.973447 
L 231.873632 137.229378 
L 236.748325 139.400753 
L 241.959204 141.477304 
L 247.674361 143.509374 
L 253.893796 145.475536 
L 260.617511 147.360711 
L 264.147461 148.264478 
L 264.147461 148.264478 
" clip-path="url(#p7494798f4e)" style="fill: none; stroke-dasharray: 5.55,2.4; stroke-dashoffset: 0; stroke: #1f77b4; stroke-width: 1.5"/>
   </g>
   <g id="line2d_13">
    <path d="M 73.832727 156.933818 
L 80.881421 152.870036 
L 87.358599 148.876833 
L 93.454767 144.85425 
L 99.360429 140.688877 
L 105.456597 136.107422 
L 112.314786 130.655297 
L 127.364699 118.553031 
L 131.174804 115.847362 
L 134.413393 113.814694 
L 137.270972 112.283005 
L 139.938045 111.114415 
L 142.414613 110.280424 
L 144.700676 109.73956 
L 146.986739 109.425429 
L 149.272802 109.338539 
L 151.558865 109.473337 
L 154.035433 109.856517 
L 156.512001 110.46642 
L 159.179074 111.347928 
L 162.227158 112.596543 
L 165.656252 114.243739 
L 170.037873 116.608609 
L 176.896061 120.603161 
L 187.75486 126.908643 
L 194.232038 130.396072 
L 200.328206 133.422097 
L 206.233868 136.10771 
L 212.330036 138.6347 
L 218.616709 140.997887 
L 225.284392 143.260015 
L 232.333086 145.407991 
L 239.76279 147.434404 
L 247.76401 149.380066 
L 256.336746 151.230767 
L 264.147461 152.736059 
L 264.147461 152.736059 
" clip-path="url(#p7494798f4e)" style="fill: none; stroke-dasharray: 5.55,2.4; stroke-dashoffset: 0; stroke: #ff7f0e; stroke-width: 1.5"/>
   </g>
   <g id="patch_3">
    <path d="M 57.6 162.432 
L 57.6 41.472 
" style="fill: none; stroke: #000000; stroke-width: 0.8; stroke-linejoin: miter; stroke-linecap: square"/>
   </g>
   <g id="patch_4">
    <path d="M 414.72 162.432 
L 414.72 41.472 
" style="fill: none; stroke: #000000; stroke-width: 0.8; stroke-linejoin: miter; stroke-linecap: square"/>
   </g>
   <g id="patch_5">
    <path d="M 57.6 162.432 
L 414.72 162.432 
" style="fill: none; stroke: #000000; stroke-width: 0.8; stroke-linejoin: miter; stroke-linecap: square"/>
   </g>
   <g id="patch_6">
    <path d="M 57.6 41.472 
L 414.72 41.472 
" style="fill: none; stroke: #000000; stroke-width: 0.8; stroke-linejoin: miter; stroke-linecap: square"/>
   </g>
   <g id="text_6">
    <g id="patch_7">
     <path d="M 75.456 66.56 
L 156.096 66.56 
Q 160.296 66.56 160.296 62.36 
L 160.296 47.52 
Q 160.296 43.32 156.096 43.32 
L 75.456 43.32 
Q 71.256 43.32 71.256 47.52 
L 71.256 62.36 
Q 71.256 66.56 75.456 66.56 
z
" style="fill: #f5deb3; opacity: 0.5; stroke: #000000; stroke-linejoin: miter"/>
    </g>
    <!-- $U_\mathrm{RF} = 72\mathrm{V_{pp}}$ -->
    <g transform="translate(75.456 58.02)scale(0.14 -0.14)">
     <defs>
      <path id="DejaVuSans-Oblique-55" d="M 991 4666 
L 1625 4666 
L 1075 1831 
Q 1041 1641 1027 1517 
Q 1013 1394 1013 1300 
Q 1013 869 1253 645 
Q 1494 422 1959 422 
Q 2563 422 2898 753 
Q 3234 1084 3378 1831 
L 3928 4666 
L 4563 4666 
L 4000 1753 
Q 3816 809 3300 359 
Q 2784 -91 1888 -91 
Q 1188 -91 780 261 
Q 372 613 372 1216 
Q 372 1325 387 1461 
Q 403 1597 434 1753 
L 991 4666 
z
" transform="scale(0.015625)"/>
      <path id="DejaVuSans-52" d="M 2841 2188 
Q 3044 2119 3236 1894 
Q 3428 1669 3622 1275 
L 4263 0 
L 3584 0 
L 2988 1197 
Q 2756 1666 2539 1819 
Q 2322 1972 1947 1972 
L 1259 1972 
L 1259 0 
L 628 0 
L 628 4666 
L 2053 4666 
Q 2853 4666 3247 4331 
Q 3641 3997 3641 3322 
Q 3641 2881 3436 2590 
Q 3231 2300 2841 2188 
z
M 1259 4147 
L 1259 2491 
L 2053 2491 
Q 2509 2491 2742 2702 
Q 2975 2913 2975 3322 
Q 2975 3731 2742 3939 
Q 2509 4147 2053 4147 
L 1259 4147 
z
" transform="scale(0.015625)"/>
      <path id="DejaVuSans-46" d="M 628 4666 
L 3309 4666 
L 3309 4134 
L 1259 4134 
L 1259 2759 
L 3109 2759 
L 3109 2228 
L 1259 2228 
L 1259 0 
L 628 0 
L 628 4666 
z
" transform="scale(0.015625)"/>
      <path id="DejaVuSans-3d" d="M 678 2906 
L 4684 2906 
L 4684 2381 
L 678 2381 
L 678 2906 
z
M 678 1631 
L 4684 1631 
L 4684 1100 
L 678 1100 
L 678 1631 
z
" transform="scale(0.015625)"/>
      <path id="DejaVuSans-37" d="M 525 4666 
L 3525 4666 
L 3525 4397 
L 1831 0 
L 1172 0 
L 2766 4134 
L 525 4134 
L 525 4666 
z
" transform="scale(0.015625)"/>
      <path id="DejaVuSans-56" d="M 1831 0 
L 50 4666 
L 709 4666 
L 2188 738 
L 3669 4666 
L 4325 4666 
L 2547 0 
L 1831 0 
z
" transform="scale(0.015625)"/>
      <path id="DejaVuSans-70" d="M 1159 525 
L 1159 -1331 
L 581 -1331 
L 581 3500 
L 1159 3500 
L 1159 2969 
Q 1341 3281 1617 3432 
Q 1894 3584 2278 3584 
Q 2916 3584 3314 3078 
Q 3713 2572 3713 1747 
Q 3713 922 3314 415 
Q 2916 -91 2278 -91 
Q 1894 -91 1617 61 
Q 1341 213 1159 525 
z
M 3116 1747 
Q 3116 2381 2855 2742 
Q 2594 3103 2138 3103 
Q 1681 3103 1420 2742 
Q 1159 2381 1159 1747 
Q 1159 1113 1420 752 
Q 1681 391 2138 391 
Q 2594 391 2855 752 
Q 3116 1113 3116 1747 
z
" transform="scale(0.015625)"/>
     </defs>
     <use xlink:href="#DejaVuSans-Oblique-55" transform="translate(0 0.78125)"/>
     <use xlink:href="#DejaVuSans-52" transform="translate(73.193359 -15.625)scale(0.7)"/>
     <use xlink:href="#DejaVuSans-46" transform="translate(121.831055 -15.625)scale(0.7)"/>
     <use xlink:href="#DejaVuSans-3d" transform="translate(184.311523 0.78125)"/>
     <use xlink:href="#DejaVuSans-37" transform="translate(287.583008 0.78125)"/>
     <use xlink:href="#DejaVuSans-32" transform="translate(351.206055 0.78125)"/>
     <use xlink:href="#DejaVuSans-56" transform="translate(414.829102 0.78125)"/>
     <use xlink:href="#DejaVuSans-70" transform="translate(484.194336 -15.625)scale(0.7)"/>
     <use xlink:href="#DejaVuSans-70" transform="translate(528.62793 -15.625)scale(0.7)"/>
    </g>
   </g>
   <g id="legend_1">
    <g id="patch_8">
     <path d="M 249.52 110.22825 
L 407.72 110.22825 
Q 409.72 110.22825 409.72 108.22825 
L 409.72 48.472 
Q 409.72 46.472 407.72 46.472 
L 249.52 46.472 
Q 247.52 46.472 247.52 48.472 
L 247.52 108.22825 
Q 247.52 110.22825 249.52 110.22825 
z
" style="fill: #ffffff; opacity: 0.8; stroke: #cccccc; stroke-linejoin: miter"/>
    </g>
    <g id="PathCollection_3">
     <g>
      <use xlink:href="#m002de8da65" x="261.52" y="55.445437" style="fill: #1f77b4; stroke: #1f77b4"/>
     </g>
    </g>
    <g id="text_7">
     <!-- $20.4 \mathrm{Pa}$ -->
     <g transform="translate(279.52 58.070437)scale(0.1 -0.1)">
      <defs>
       <path id="DejaVuSans-2e" d="M 684 794 
L 1344 794 
L 1344 0 
L 684 0 
L 684 794 
z
" transform="scale(0.015625)"/>
       <path id="DejaVuSans-50" d="M 1259 4147 
L 1259 2394 
L 2053 2394 
Q 2494 2394 2734 2622 
Q 2975 2850 2975 3272 
Q 2975 3691 2734 3919 
Q 2494 4147 2053 4147 
L 1259 4147 
z
M 628 4666 
L 2053 4666 
Q 2838 4666 3239 4311 
Q 3641 3956 3641 3272 
Q 3641 2581 3239 2228 
Q 2838 1875 2053 1875 
L 1259 1875 
L 1259 0 
L 628 0 
L 628 4666 
z
" transform="scale(0.015625)"/>
       <path id="DejaVuSans-61" d="M 2194 1759 
Q 1497 1759 1228 1600 
Q 959 1441 959 1056 
Q 959 750 1161 570 
Q 1363 391 1709 391 
Q 2188 391 2477 730 
Q 2766 1069 2766 1631 
L 2766 1759 
L 2194 1759 
z
M 3341 1997 
L 3341 0 
L 2766 0 
L 2766 531 
Q 2569 213 2275 61 
Q 1981 -91 1556 -91 
Q 1019 -91 701 211 
Q 384 513 384 1019 
Q 384 1609 779 1909 
Q 1175 2209 1959 2209 
L 2766 2209 
L 2766 2266 
Q 2766 2663 2505 2880 
Q 2244 3097 1772 3097 
Q 1472 3097 1187 3025 
Q 903 2953 641 2809 
L 641 3341 
Q 956 3463 1253 3523 
Q 1550 3584 1831 3584 
Q 2591 3584 2966 3190 
Q 3341 2797 3341 1997 
z
" transform="scale(0.015625)"/>
      </defs>
      <use xlink:href="#DejaVuSans-32" transform="translate(0 0.78125)"/>
      <use xlink:href="#DejaVuSans-30" transform="translate(63.623047 0.78125)"/>
      <use xlink:href="#DejaVuSans-2e" transform="translate(127.246094 0.78125)"/>
      <use xlink:href="#DejaVuSans-34" transform="translate(159.033203 0.78125)"/>
      <use xlink:href="#DejaVuSans-50" transform="translate(222.65625 0.78125)"/>
      <use xlink:href="#DejaVuSans-61" transform="translate(282.958984 0.78125)"/>
     </g>
    </g>
    <g id="line2d_14">
     <path d="M 251.52 69.250125 
L 261.52 69.250125 
L 271.52 69.250125 
" style="fill: none; stroke-dasharray: 5.55,2.4; stroke-dashoffset: 0; stroke: #1f77b4; stroke-width: 1.5"/>
    </g>
    <g id="text_8">
     <!-- $f_0 = 10.8 \mathrm{Hz}, \gamma_g = 22.3\mathrm{s^-1}$ -->
     <g transform="translate(279.52 72.750125)scale(0.1 -0.1)">
      <defs>
       <path id="DejaVuSans-Oblique-66" d="M 3059 4863 
L 2969 4384 
L 2419 4384 
Q 2106 4384 1964 4261 
Q 1822 4138 1753 3809 
L 1691 3500 
L 2638 3500 
L 2553 3053 
L 1606 3053 
L 1013 0 
L 434 0 
L 1031 3053 
L 481 3053 
L 563 3500 
L 1113 3500 
L 1159 3744 
Q 1278 4363 1576 4613 
Q 1875 4863 2516 4863 
L 3059 4863 
z
" transform="scale(0.015625)"/>
       <path id="DejaVuSans-38" d="M 2034 2216 
Q 1584 2216 1326 1975 
Q 1069 1734 1069 1313 
Q 1069 891 1326 650 
Q 1584 409 2034 409 
Q 2484 409 2743 651 
Q 3003 894 3003 1313 
Q 3003 1734 2745 1975 
Q 2488 2216 2034 2216 
z
M 1403 2484 
Q 997 2584 770 2862 
Q 544 3141 544 3541 
Q 544 4100 942 4425 
Q 1341 4750 2034 4750 
Q 2731 4750 3128 4425 
Q 3525 4100 3525 3541 
Q 3525 3141 3298 2862 
Q 3072 2584 2669 2484 
Q 3125 2378 3379 2068 
Q 3634 1759 3634 1313 
Q 3634 634 3220 271 
Q 2806 -91 2034 -91 
Q 1263 -91 848 271 
Q 434 634 434 1313 
Q 434 1759 690 2068 
Q 947 2378 1403 2484 
z
M 1172 3481 
Q 1172 3119 1398 2916 
Q 1625 2713 2034 2713 
Q 2441 2713 2670 2916 
Q 2900 3119 2900 3481 
Q 2900 3844 2670 4047 
Q 2441 4250 2034 4250 
Q 1625 4250 1398 4047 
Q 1172 3844 1172 3481 
z
" transform="scale(0.015625)"/>
       <path id="DejaVuSans-48" d="M 628 4666 
L 1259 4666 
L 1259 2753 
L 3553 2753 
L 3553 4666 
L 4184 4666 
L 4184 0 
L 3553 0 
L 3553 2222 
L 1259 2222 
L 1259 0 
L 628 0 
L 628 4666 
z
" transform="scale(0.015625)"/>
       <path id="DejaVuSans-7a" d="M 353 3500 
L 3084 3500 
L 3084 2975 
L 922 459 
L 3084 459 
L 3084 0 
L 275 0 
L 275 525 
L 2438 3041 
L 353 3041 
L 353 3500 
z
" transform="scale(0.015625)"/>
       <path id="DejaVuSans-2c" d="M 750 794 
L 1409 794 
L 1409 256 
L 897 -744 
L 494 -744 
L 750 256 
L 750 794 
z
" transform="scale(0.015625)"/>
       <path id="DejaVuSans-Oblique-3b3" d="M 1491 2950 
L 1838 788 
L 3456 3500 
L 4066 3500 
L 1972 0 
L 1713 -1331 
L 1138 -1331 
L 1397 0 
L 988 2613 
Q 925 3006 628 3006 
L 475 3006 
L 569 3500 
L 788 3500 
Q 1403 3500 1491 2950 
z
" transform="scale(0.015625)"/>
       <path id="DejaVuSans-Oblique-67" d="M 3816 3500 
L 3219 434 
Q 3047 -456 2561 -893 
Q 2075 -1331 1253 -1331 
Q 950 -1331 690 -1286 
Q 431 -1241 206 -1147 
L 313 -588 
Q 525 -725 762 -790 
Q 1000 -856 1269 -856 
Q 1816 -856 2167 -557 
Q 2519 -259 2631 300 
L 2681 563 
Q 2441 288 2122 144 
Q 1803 0 1434 0 
Q 903 0 598 351 
Q 294 703 294 1319 
Q 294 1803 478 2267 
Q 663 2731 997 3091 
Q 1219 3328 1514 3456 
Q 1809 3584 2131 3584 
Q 2484 3584 2746 3420 
Q 3009 3256 3138 2956 
L 3238 3500 
L 3816 3500 
z
M 2950 2216 
Q 2950 2641 2750 2872 
Q 2550 3103 2181 3103 
Q 1953 3103 1747 3012 
Q 1541 2922 1394 2759 
Q 1156 2491 1023 2127 
Q 891 1763 891 1375 
Q 891 944 1092 712 
Q 1294 481 1672 481 
Q 2219 481 2584 976 
Q 2950 1472 2950 2216 
z
" transform="scale(0.015625)"/>
       <path id="DejaVuSans-73" d="M 2834 3397 
L 2834 2853 
Q 2591 2978 2328 3040 
Q 2066 3103 1784 3103 
Q 1356 3103 1142 2972 
Q 928 2841 928 2578 
Q 928 2378 1081 2264 
Q 1234 2150 1697 2047 
L 1894 2003 
Q 2506 1872 2764 1633 
Q 3022 1394 3022 966 
Q 3022 478 2636 193 
Q 2250 -91 1575 -91 
Q 1294 -91 989 -36 
Q 684 19 347 128 
L 347 722 
Q 666 556 975 473 
Q 1284 391 1588 391 
Q 1994 391 2212 530 
Q 2431 669 2431 922 
Q 2431 1156 2273 1281 
Q 2116 1406 1581 1522 
L 1381 1569 
Q 847 1681 609 1914 
Q 372 2147 372 2553 
Q 372 3047 722 3315 
Q 1072 3584 1716 3584 
Q 2034 3584 2315 3537 
Q 2597 3491 2834 3397 
z
" transform="scale(0.015625)"/>
       <path id="DejaVuSans-2212" d="M 678 2272 
L 4684 2272 
L 4684 1741 
L 678 1741 
L 678 2272 
z
" transform="scale(0.015625)"/>
      </defs>
      <use xlink:href="#DejaVuSans-Oblique-66" transform="translate(0 0.015625)"/>
      <use xlink:href="#DejaVuSans-30" transform="translate(35.205078 -16.390625)scale(0.7)"/>
      <use xlink:href="#DejaVuSans-3d" transform="translate(101.958008 0.015625)"/>
      <use xlink:href="#DejaVuSans-31" transform="translate(205.229492 0.015625)"/>
      <use xlink:href="#DejaVuSans-30" transform="translate(268.852539 0.015625)"/>
      <use xlink:href="#DejaVuSans-2e" transform="translate(332.475586 0.015625)"/>
      <use xlink:href="#DejaVuSans-38" transform="translate(361.637695 0.015625)"/>
      <use xlink:href="#DejaVuSans-48" transform="translate(425.260742 0.015625)"/>
      <use xlink:href="#DejaVuSans-7a" transform="translate(500.456055 0.015625)"/>
      <use xlink:href="#DejaVuSans-2c" transform="translate(552.946289 0.015625)"/>
      <use xlink:href="#DejaVuSans-Oblique-3b3" transform="translate(604.21582 0.015625)"/>
      <use xlink:href="#DejaVuSans-Oblique-67" transform="translate(663.395508 -16.390625)scale(0.7)"/>
      <use xlink:href="#DejaVuSans-3d" transform="translate(730.045898 0.015625)"/>
      <use xlink:href="#DejaVuSans-32" transform="translate(833.317383 0.015625)"/>
      <use xlink:href="#DejaVuSans-32" transform="translate(896.94043 0.015625)"/>
      <use xlink:href="#DejaVuSans-2e" transform="translate(960.563477 0.015625)"/>
      <use xlink:href="#DejaVuSans-33" transform="translate(992.350586 0.015625)"/>
      <use xlink:href="#DejaVuSans-73" transform="translate(1055.973633 0.015625)"/>
      <use xlink:href="#DejaVuSans-2212" transform="translate(1122.667969 38.296875)scale(0.7)"/>
      <use xlink:href="#DejaVuSans-31" transform="translate(1197.692383 0.015625)"/>
     </g>
    </g>
    <g id="PathCollection_4">
     <g>
      <use xlink:href="#m5c1c1495a9" x="261.52" y="85.823562" style="fill: #ff7f0e; stroke: #ff7f0e"/>
     </g>
    </g>
    <g id="text_9">
     <!-- $35.7 \mathrm{Pa}$ -->
     <g transform="translate(279.52 88.448562)scale(0.1 -0.1)">
      <use xlink:href="#DejaVuSans-33" transform="translate(0 0.78125)"/>
      <use xlink:href="#DejaVuSans-35" transform="translate(63.623047 0.78125)"/>
      <use xlink:href="#DejaVuSans-2e" transform="translate(127.246094 0.78125)"/>
      <use xlink:href="#DejaVuSans-37" transform="translate(151.283203 0.78125)"/>
      <use xlink:href="#DejaVuSans-50" transform="translate(214.90625 0.78125)"/>
      <use xlink:href="#DejaVuSans-61" transform="translate(275.208984 0.78125)"/>
     </g>
    </g>
    <g id="line2d_15">
     <path d="M 251.52 99.62825 
L 261.52 99.62825 
L 271.52 99.62825 
" style="fill: none; stroke-dasharray: 5.55,2.4; stroke-dashoffset: 0; stroke: #ff7f0e; stroke-width: 1.5"/>
    </g>
    <g id="text_10">
     <!-- $f_0 = 10.0 \mathrm{Hz}, \gamma_g = 45.7\mathrm{s^-1}$ -->
     <g transform="translate(279.52 103.12825)scale(0.1 -0.1)">
      <use xlink:href="#DejaVuSans-Oblique-66" transform="translate(0 0.015625)"/>
      <use xlink:href="#DejaVuSans-30" transform="translate(35.205078 -16.390625)scale(0.7)"/>
      <use xlink:href="#DejaVuSans-3d" transform="translate(101.958008 0.015625)"/>
      <use xlink:href="#DejaVuSans-31" transform="translate(205.229492 0.015625)"/>
      <use xlink:href="#DejaVuSans-30" transform="translate(268.852539 0.015625)"/>
      <use xlink:href="#DejaVuSans-2e" transform="translate(332.475586 0.015625)"/>
      <use xlink:href="#DejaVuSans-30" transform="translate(364.262695 0.015625)"/>
      <use xlink:href="#DejaVuSans-48" transform="translate(427.885742 0.015625)"/>
      <use xlink:href="#DejaVuSans-7a" transform="translate(503.081055 0.015625)"/>
      <use xlink:href="#DejaVuSans-2c" transform="translate(555.571289 0.015625)"/>
      <use xlink:href="#DejaVuSans-Oblique-3b3" transform="translate(606.84082 0.015625)"/>
      <use xlink:href="#DejaVuSans-Oblique-67" transform="translate(666.020508 -16.390625)scale(0.7)"/>
      <use xlink:href="#DejaVuSans-3d" transform="translate(732.670898 0.015625)"/>
      <use xlink:href="#DejaVuSans-34" transform="translate(835.942383 0.015625)"/>
      <use xlink:href="#DejaVuSans-35" transform="translate(899.56543 0.015625)"/>
      <use xlink:href="#DejaVuSans-2e" transform="translate(963.188477 0.015625)"/>
      <use xlink:href="#DejaVuSans-37" transform="translate(987.225586 0.015625)"/>
      <use xlink:href="#DejaVuSans-73" transform="translate(1050.848633 0.015625)"/>
      <use xlink:href="#DejaVuSans-2212" transform="translate(1117.542969 38.296875)scale(0.7)"/>
      <use xlink:href="#DejaVuSans-31" transform="translate(1192.567383 0.015625)"/>
     </g>
    </g>
   </g>
  </g>
  <g id="axes_2">
   <g id="patch_9">
    <path d="M 57.6 307.584 
L 414.72 307.584 
L 414.72 186.624 
L 57.6 186.624 
z
" style="fill: #ffffff"/>
   </g>
   <g id="PathCollection_5">
    <g clip-path="url(#p4880d6a12d)">
     <use xlink:href="#m002de8da65" x="191.380063" y="294.207616" style="fill: #1f77b4; stroke: #1f77b4"/>
     <use xlink:href="#m002de8da65" x="185.782571" y="297.853634" style="fill: #1f77b4; stroke: #1f77b4"/>
     <use xlink:href="#m002de8da65" x="202.575047" y="294.207616" style="fill: #1f77b4; stroke: #1f77b4"/>
     <use xlink:href="#m002de8da65" x="196.977555" y="294.207616" style="fill: #1f77b4; stroke: #1f77b4"/>
     <use xlink:href="#m002de8da65" x="213.770031" y="279.623545" style="fill: #1f77b4; stroke: #1f77b4"/>
     <use xlink:href="#m002de8da65" x="208.172539" y="286.915581" style="fill: #1f77b4; stroke: #1f77b4"/>
     <use xlink:href="#m002de8da65" x="224.965016" y="275.977527" style="fill: #1f77b4; stroke: #1f77b4"/>
     <use xlink:href="#m002de8da65" x="219.367524" y="275.977527" style="fill: #1f77b4; stroke: #1f77b4"/>
     <use xlink:href="#m002de8da65" x="236.16" y="254.10142" style="fill: #1f77b4; stroke: #1f77b4"/>
     <use xlink:href="#m002de8da65" x="230.562508" y="261.393456" style="fill: #1f77b4; stroke: #1f77b4"/>
     <use xlink:href="#m002de8da65" x="247.354984" y="232.225312" style="fill: #1f77b4; stroke: #1f77b4"/>
     <use xlink:href="#m002de8da65" x="241.757492" y="243.163366" style="fill: #1f77b4; stroke: #1f77b4"/>
     <use xlink:href="#m002de8da65" x="258.549969" y="203.057169" style="fill: #1f77b4; stroke: #1f77b4"/>
     <use xlink:href="#m002de8da65" x="252.952476" y="221.287259" style="fill: #1f77b4; stroke: #1f77b4"/>
     <use xlink:href="#m002de8da65" x="269.744953" y="195.765134" style="fill: #1f77b4; stroke: #1f77b4"/>
     <use xlink:href="#m002de8da65" x="264.147461" y="195.765134" style="fill: #1f77b4; stroke: #1f77b4"/>
     <use xlink:href="#m002de8da65" x="280.939937" y="213.995223" style="fill: #1f77b4; stroke: #1f77b4"/>
     <use xlink:href="#m002de8da65" x="275.342445" y="199.411151" style="fill: #1f77b4; stroke: #1f77b4"/>
     <use xlink:href="#m002de8da65" x="292.134922" y="235.87133" style="fill: #1f77b4; stroke: #1f77b4"/>
     <use xlink:href="#m002de8da65" x="286.537429" y="228.579295" style="fill: #1f77b4; stroke: #1f77b4"/>
     <use xlink:href="#m002de8da65" x="303.329906" y="257.747438" style="fill: #1f77b4; stroke: #1f77b4"/>
     <use xlink:href="#m002de8da65" x="297.732414" y="250.455402" style="fill: #1f77b4; stroke: #1f77b4"/>
     <use xlink:href="#m002de8da65" x="314.52489" y="268.685491" style="fill: #1f77b4; stroke: #1f77b4"/>
     <use xlink:href="#m002de8da65" x="308.927398" y="265.039473" style="fill: #1f77b4; stroke: #1f77b4"/>
     <use xlink:href="#m002de8da65" x="325.719875" y="275.977527" style="fill: #1f77b4; stroke: #1f77b4"/>
     <use xlink:href="#m002de8da65" x="320.122382" y="275.977527" style="fill: #1f77b4; stroke: #1f77b4"/>
     <use xlink:href="#m002de8da65" x="336.914859" y="286.915581" style="fill: #1f77b4; stroke: #1f77b4"/>
     <use xlink:href="#m002de8da65" x="331.317367" y="283.269563" style="fill: #1f77b4; stroke: #1f77b4"/>
     <use xlink:href="#m002de8da65" x="342.512351" y="286.915581" style="fill: #1f77b4; stroke: #1f77b4"/>
    </g>
   </g>
   <g id="PathCollection_6">
    <g clip-path="url(#p4880d6a12d)">
     <use xlink:href="#m5c1c1495a9" x="247.354984" y="297.853634" style="fill: #ff7f0e; stroke: #ff7f0e"/>
     <use xlink:href="#m5c1c1495a9" x="241.757492" y="297.853634" style="fill: #ff7f0e; stroke: #ff7f0e"/>
     <use xlink:href="#m5c1c1495a9" x="258.549969" y="294.207616" style="fill: #ff7f0e; stroke: #ff7f0e"/>
     <use xlink:href="#m5c1c1495a9" x="252.952476" y="297.853634" style="fill: #ff7f0e; stroke: #ff7f0e"/>
     <use xlink:href="#m5c1c1495a9" x="269.744953" y="290.561599" style="fill: #ff7f0e; stroke: #ff7f0e"/>
     <use xlink:href="#m5c1c1495a9" x="264.147461" y="294.207616" style="fill: #ff7f0e; stroke: #ff7f0e"/>
     <use xlink:href="#m5c1c1495a9" x="280.939937" y="286.915581" style="fill: #ff7f0e; stroke: #ff7f0e"/>
     <use xlink:href="#m5c1c1495a9" x="275.342445" y="290.561599" style="fill: #ff7f0e; stroke: #ff7f0e"/>
     <use xlink:href="#m5c1c1495a9" x="292.134922" y="279.623545" style="fill: #ff7f0e; stroke: #ff7f0e"/>
     <use xlink:href="#m5c1c1495a9" x="286.537429" y="283.269563" style="fill: #ff7f0e; stroke: #ff7f0e"/>
     <use xlink:href="#m5c1c1495a9" x="303.329906" y="275.977527" style="fill: #ff7f0e; stroke: #ff7f0e"/>
     <use xlink:href="#m5c1c1495a9" x="297.732414" y="275.977527" style="fill: #ff7f0e; stroke: #ff7f0e"/>
     <use xlink:href="#m5c1c1495a9" x="314.52489" y="272.331509" style="fill: #ff7f0e; stroke: #ff7f0e"/>
     <use xlink:href="#m5c1c1495a9" x="308.927398" y="275.977527" style="fill: #ff7f0e; stroke: #ff7f0e"/>
     <use xlink:href="#m5c1c1495a9" x="325.719875" y="272.331509" style="fill: #ff7f0e; stroke: #ff7f0e"/>
     <use xlink:href="#m5c1c1495a9" x="320.122382" y="272.331509" style="fill: #ff7f0e; stroke: #ff7f0e"/>
     <use xlink:href="#m5c1c1495a9" x="336.914859" y="279.623545" style="fill: #ff7f0e; stroke: #ff7f0e"/>
     <use xlink:href="#m5c1c1495a9" x="331.317367" y="279.623545" style="fill: #ff7f0e; stroke: #ff7f0e"/>
     <use xlink:href="#m5c1c1495a9" x="348.109843" y="283.269563" style="fill: #ff7f0e; stroke: #ff7f0e"/>
     <use xlink:href="#m5c1c1495a9" x="342.512351" y="279.623545" style="fill: #ff7f0e; stroke: #ff7f0e"/>
     <use xlink:href="#m5c1c1495a9" x="359.304828" y="286.915581" style="fill: #ff7f0e; stroke: #ff7f0e"/>
     <use xlink:href="#m5c1c1495a9" x="353.707335" y="286.915581" style="fill: #ff7f0e; stroke: #ff7f0e"/>
     <use xlink:href="#m5c1c1495a9" x="370.499812" y="290.561599" style="fill: #ff7f0e; stroke: #ff7f0e"/>
     <use xlink:href="#m5c1c1495a9" x="364.90232" y="290.561599" style="fill: #ff7f0e; stroke: #ff7f0e"/>
     <use xlink:href="#m5c1c1495a9" x="381.694796" y="297.853634" style="fill: #ff7f0e; stroke: #ff7f0e"/>
     <use xlink:href="#m5c1c1495a9" x="376.097304" y="294.207616" style="fill: #ff7f0e; stroke: #ff7f0e"/>
     <use xlink:href="#m5c1c1495a9" x="392.889781" y="297.853634" style="fill: #ff7f0e; stroke: #ff7f0e"/>
     <use xlink:href="#m5c1c1495a9" x="387.292288" y="297.853634" style="fill: #ff7f0e; stroke: #ff7f0e"/>
     <use xlink:href="#m5c1c1495a9" x="398.487273" y="297.853634" style="fill: #ff7f0e; stroke: #ff7f0e"/>
    </g>
   </g>
   <g id="matplotlib.axis_3">
    <g id="xtick_7">
     <g id="line2d_16">
      <g>
       <use xlink:href="#m9ff5872eae" x="96.222696" y="307.584" style="stroke: #000000; stroke-width: 0.8"/>
      </g>
     </g>
     <g id="text_11">
      <!-- 5 -->
      <g transform="translate(93.041446 322.182437)scale(0.1 -0.1)">
       <use xlink:href="#DejaVuSans-35"/>
      </g>
     </g>
    </g>
    <g id="xtick_8">
     <g id="line2d_17">
      <g>
       <use xlink:href="#m9ff5872eae" x="152.197618" y="307.584" style="stroke: #000000; stroke-width: 0.8"/>
      </g>
     </g>
     <g id="text_12">
      <!-- 10 -->
      <g transform="translate(145.835118 322.182437)scale(0.1 -0.1)">
       <use xlink:href="#DejaVuSans-31"/>
       <use xlink:href="#DejaVuSans-30" x="63.623047"/>
      </g>
     </g>
    </g>
    <g id="xtick_9">
     <g id="line2d_18">
      <g>
       <use xlink:href="#m9ff5872eae" x="208.172539" y="307.584" style="stroke: #000000; stroke-width: 0.8"/>
      </g>
     </g>
     <g id="text_13">
      <!-- 15 -->
      <g transform="translate(201.810039 322.182437)scale(0.1 -0.1)">
       <use xlink:href="#DejaVuSans-31"/>
       <use xlink:href="#DejaVuSans-35" x="63.623047"/>
      </g>
     </g>
    </g>
    <g id="xtick_10">
     <g id="line2d_19">
      <g>
       <use xlink:href="#m9ff5872eae" x="264.147461" y="307.584" style="stroke: #000000; stroke-width: 0.8"/>
      </g>
     </g>
     <g id="text_14">
      <!-- 20 -->
      <g transform="translate(257.784961 322.182437)scale(0.1 -0.1)">
       <use xlink:href="#DejaVuSans-32"/>
       <use xlink:href="#DejaVuSans-30" x="63.623047"/>
      </g>
     </g>
    </g>
    <g id="xtick_11">
     <g id="line2d_20">
      <g>
       <use xlink:href="#m9ff5872eae" x="320.122382" y="307.584" style="stroke: #000000; stroke-width: 0.8"/>
      </g>
     </g>
     <g id="text_15">
      <!-- 25 -->
      <g transform="translate(313.759882 322.182437)scale(0.1 -0.1)">
       <use xlink:href="#DejaVuSans-32"/>
       <use xlink:href="#DejaVuSans-35" x="63.623047"/>
      </g>
     </g>
    </g>
    <g id="xtick_12">
     <g id="line2d_21">
      <g>
       <use xlink:href="#m9ff5872eae" x="376.097304" y="307.584" style="stroke: #000000; stroke-width: 0.8"/>
      </g>
     </g>
     <g id="text_16">
      <!-- 30 -->
      <g transform="translate(369.734804 322.182437)scale(0.1 -0.1)">
       <use xlink:href="#DejaVuSans-33"/>
       <use xlink:href="#DejaVuSans-30" x="63.623047"/>
      </g>
     </g>
    </g>
   </g>
   <g id="matplotlib.axis_4">
    <g id="ytick_6">
     <g id="line2d_22">
      <g>
       <use xlink:href="#mf7377e3c65" x="57.6" y="303.120105" style="stroke: #000000; stroke-width: 0.8"/>
      </g>
     </g>
     <g id="text_17">
      <!-- 50 -->
      <g transform="translate(37.875 306.919323)scale(0.1 -0.1)">
       <use xlink:href="#DejaVuSans-35"/>
       <use xlink:href="#DejaVuSans-30" x="63.623047"/>
      </g>
     </g>
    </g>
    <g id="ytick_7">
     <g id="line2d_23">
      <g>
       <use xlink:href="#mf7377e3c65" x="57.6" y="282.86445" style="stroke: #000000; stroke-width: 0.8"/>
      </g>
     </g>
     <g id="text_18">
      <!-- 100 -->
      <g transform="translate(31.5125 286.663668)scale(0.1 -0.1)">
       <use xlink:href="#DejaVuSans-31"/>
       <use xlink:href="#DejaVuSans-30" x="63.623047"/>
       <use xlink:href="#DejaVuSans-30" x="127.246094"/>
      </g>
     </g>
    </g>
    <g id="ytick_8">
     <g id="line2d_24">
      <g>
       <use xlink:href="#mf7377e3c65" x="57.6" y="262.608795" style="stroke: #000000; stroke-width: 0.8"/>
      </g>
     </g>
     <g id="text_19">
      <!-- 150 -->
      <g transform="translate(31.5125 266.408014)scale(0.1 -0.1)">
       <use xlink:href="#DejaVuSans-31"/>
       <use xlink:href="#DejaVuSans-35" x="63.623047"/>
       <use xlink:href="#DejaVuSans-30" x="127.246094"/>
      </g>
     </g>
    </g>
    <g id="ytick_9">
     <g id="line2d_25">
      <g>
       <use xlink:href="#mf7377e3c65" x="57.6" y="242.35314" style="stroke: #000000; stroke-width: 0.8"/>
      </g>
     </g>
     <g id="text_20">
      <!-- 200 -->
      <g transform="translate(31.5125 246.152359)scale(0.1 -0.1)">
       <use xlink:href="#DejaVuSans-32"/>
       <use xlink:href="#DejaVuSans-30" x="63.623047"/>
       <use xlink:href="#DejaVuSans-30" x="127.246094"/>
      </g>
     </g>
    </g>
    <g id="ytick_10">
     <g id="line2d_26">
      <g>
       <use xlink:href="#mf7377e3c65" x="57.6" y="222.097485" style="stroke: #000000; stroke-width: 0.8"/>
      </g>
     </g>
     <g id="text_21">
      <!-- 250 -->
      <g transform="translate(31.5125 225.896704)scale(0.1 -0.1)">
       <use xlink:href="#DejaVuSans-32"/>
       <use xlink:href="#DejaVuSans-35" x="63.623047"/>
       <use xlink:href="#DejaVuSans-30" x="127.246094"/>
      </g>
     </g>
    </g>
    <g id="ytick_11">
     <g id="line2d_27">
      <g>
       <use xlink:href="#mf7377e3c65" x="57.6" y="201.84183" style="stroke: #000000; stroke-width: 0.8"/>
      </g>
     </g>
     <g id="text_22">
      <!-- 300 -->
      <g transform="translate(31.5125 205.641049)scale(0.1 -0.1)">
       <use xlink:href="#DejaVuSans-33"/>
       <use xlink:href="#DejaVuSans-30" x="63.623047"/>
       <use xlink:href="#DejaVuSans-30" x="127.246094"/>
      </g>
     </g>
    </g>
   </g>
   <g id="line2d_28">
    <path d="M 185.782571 288.282197 
L 191.430491 286.477536 
L 196.607751 284.590665 
L 201.314351 282.645549 
L 205.707177 280.596484 
L 209.786231 278.456125 
L 213.708397 276.14491 
L 217.316791 273.762535 
L 220.768297 271.216447 
L 224.062917 268.50355 
L 227.200651 265.623565 
L 230.181497 262.579933 
L 233.005457 259.380816 
L 235.829417 255.833128 
L 238.496491 252.122359 
L 241.163564 248.021603 
L 243.830637 243.492483 
L 246.497711 238.502725 
L 249.164784 233.035183 
L 251.988744 226.740448 
L 255.440251 218.46752 
L 261.715717 203.274953 
L 263.598357 199.329213 
L 265.167224 196.531988 
L 266.422317 194.713439 
L 267.520524 193.483965 
L 268.461844 192.729242 
L 269.403164 192.270845 
L 270.187598 192.125068 
L 270.972031 192.198903 
L 271.756464 192.49348 
L 272.540898 193.006584 
L 273.482218 193.902828 
L 274.580424 195.315347 
L 275.835518 197.371689 
L 277.247498 200.17363 
L 278.973251 204.159104 
L 281.169664 209.844745 
L 285.719378 222.444584 
L 289.484658 232.52791 
L 292.308618 239.491135 
L 294.975691 245.505509 
L 297.642764 250.967053 
L 300.309838 255.901873 
L 302.976911 260.351485 
L 305.643984 264.362894 
L 308.311058 267.9831 
L 311.135018 271.438907 
L 313.958978 274.553144 
L 316.939824 277.516167 
L 320.077558 280.321642 
L 323.372178 282.967367 
L 326.823684 285.454391 
L 330.432078 287.786232 
L 334.354244 290.054086 
L 338.590184 292.237009 
L 342.512351 294.047417 
L 342.512351 294.047417 
" clip-path="url(#p4880d6a12d)" style="fill: none; stroke-dasharray: 5.55,2.4; stroke-dashoffset: 0; stroke: #1f77b4; stroke-width: 1.5"/>
   </g>
   <g id="line2d_29">
    <path d="M 241.757492 297.376672 
L 249.601826 295.699936 
L 256.975499 293.898119 
L 263.878512 291.987046 
L 270.624639 289.890164 
L 277.370766 287.557939 
L 284.587552 284.818349 
L 294.628299 280.733757 
L 302.629519 277.563812 
L 307.336119 275.93672 
L 311.101399 274.867453 
L 314.396019 274.160413 
L 317.376866 273.741835 
L 320.200826 273.562792 
L 323.024786 273.609549 
L 325.848746 273.887003 
L 328.672706 274.39043 
L 331.653552 275.151431 
L 334.948172 276.235956 
L 338.556566 277.665656 
L 342.949393 279.655938 
L 349.381746 282.842363 
L 361.618906 288.922591 
L 368.051259 291.840071 
L 374.012953 294.303388 
L 379.974646 296.529476 
L 386.093226 298.579023 
L 392.525579 300.498767 
L 398.487273 302.085818 
L 398.487273 302.085818 
" clip-path="url(#p4880d6a12d)" style="fill: none; stroke-dasharray: 5.55,2.4; stroke-dashoffset: 0; stroke: #ff7f0e; stroke-width: 1.5"/>
   </g>
   <g id="patch_10">
    <path d="M 57.6 307.584 
L 57.6 186.624 
" style="fill: none; stroke: #000000; stroke-width: 0.8; stroke-linejoin: miter; stroke-linecap: square"/>
   </g>
   <g id="patch_11">
    <path d="M 414.72 307.584 
L 414.72 186.624 
" style="fill: none; stroke: #000000; stroke-width: 0.8; stroke-linejoin: miter; stroke-linecap: square"/>
   </g>
   <g id="patch_12">
    <path d="M 57.6 307.584 
L 414.72 307.584 
" style="fill: none; stroke: #000000; stroke-width: 0.8; stroke-linejoin: miter; stroke-linecap: square"/>
   </g>
   <g id="patch_13">
    <path d="M 57.6 186.624 
L 414.72 186.624 
" style="fill: none; stroke: #000000; stroke-width: 0.8; stroke-linejoin: miter; stroke-linecap: square"/>
   </g>
   <g id="text_23">
    <g id="patch_14">
     <path d="M 307.584 211.712 
L 397.184 211.712 
Q 401.384 211.712 401.384 207.512 
L 401.384 192.672 
Q 401.384 188.472 397.184 188.472 
L 307.584 188.472 
Q 303.384 188.472 303.384 192.672 
L 303.384 207.512 
Q 303.384 211.712 307.584 211.712 
z
" style="fill: #f5deb3; opacity: 0.5; stroke: #000000; stroke-linejoin: miter"/>
    </g>
    <!-- $U_\mathrm{RF} = 176\mathrm{V_{pp}}$ -->
    <g transform="translate(307.584 203.172)scale(0.14 -0.14)">
     <defs>
      <path id="DejaVuSans-36" d="M 2113 2584 
Q 1688 2584 1439 2293 
Q 1191 2003 1191 1497 
Q 1191 994 1439 701 
Q 1688 409 2113 409 
Q 2538 409 2786 701 
Q 3034 994 3034 1497 
Q 3034 2003 2786 2293 
Q 2538 2584 2113 2584 
z
M 3366 4563 
L 3366 3988 
Q 3128 4100 2886 4159 
Q 2644 4219 2406 4219 
Q 1781 4219 1451 3797 
Q 1122 3375 1075 2522 
Q 1259 2794 1537 2939 
Q 1816 3084 2150 3084 
Q 2853 3084 3261 2657 
Q 3669 2231 3669 1497 
Q 3669 778 3244 343 
Q 2819 -91 2113 -91 
Q 1303 -91 875 529 
Q 447 1150 447 2328 
Q 447 3434 972 4092 
Q 1497 4750 2381 4750 
Q 2619 4750 2861 4703 
Q 3103 4656 3366 4563 
z
" transform="scale(0.015625)"/>
     </defs>
     <use xlink:href="#DejaVuSans-Oblique-55" transform="translate(0 0.78125)"/>
     <use xlink:href="#DejaVuSans-52" transform="translate(73.193359 -15.625)scale(0.7)"/>
     <use xlink:href="#DejaVuSans-46" transform="translate(121.831055 -15.625)scale(0.7)"/>
     <use xlink:href="#DejaVuSans-3d" transform="translate(184.311523 0.78125)"/>
     <use xlink:href="#DejaVuSans-31" transform="translate(287.583008 0.78125)"/>
     <use xlink:href="#DejaVuSans-37" transform="translate(351.206055 0.78125)"/>
     <use xlink:href="#DejaVuSans-36" transform="translate(414.829102 0.78125)"/>
     <use xlink:href="#DejaVuSans-56" transform="translate(478.452148 0.78125)"/>
     <use xlink:href="#DejaVuSans-70" transform="translate(547.817383 -15.625)scale(0.7)"/>
     <use xlink:href="#DejaVuSans-70" transform="translate(592.250977 -15.625)scale(0.7)"/>
    </g>
   </g>
   <g id="legend_2">
    <g id="patch_15">
     <path d="M 64.6 255.38025 
L 223 255.38025 
Q 225 255.38025 225 253.38025 
L 225 193.624 
Q 225 191.624 223 191.624 
L 64.6 191.624 
Q 62.6 191.624 62.6 193.624 
L 62.6 253.38025 
Q 62.6 255.38025 64.6 255.38025 
z
" style="fill: #ffffff; opacity: 0.8; stroke: #cccccc; stroke-linejoin: miter"/>
    </g>
    <g id="PathCollection_7">
     <g>
      <use xlink:href="#m002de8da65" x="76.6" y="200.597437" style="fill: #1f77b4; stroke: #1f77b4"/>
     </g>
    </g>
    <g id="text_24">
     <!-- $20.4 \mathrm{Pa}$ -->
     <g transform="translate(94.6 203.222437)scale(0.1 -0.1)">
      <use xlink:href="#DejaVuSans-32" transform="translate(0 0.78125)"/>
      <use xlink:href="#DejaVuSans-30" transform="translate(63.623047 0.78125)"/>
      <use xlink:href="#DejaVuSans-2e" transform="translate(127.246094 0.78125)"/>
      <use xlink:href="#DejaVuSans-34" transform="translate(159.033203 0.78125)"/>
      <use xlink:href="#DejaVuSans-50" transform="translate(222.65625 0.78125)"/>
      <use xlink:href="#DejaVuSans-61" transform="translate(282.958984 0.78125)"/>
     </g>
    </g>
    <g id="line2d_30">
     <path d="M 66.6 214.402125 
L 76.6 214.402125 
L 86.6 214.402125 
" style="fill: none; stroke-dasharray: 5.55,2.4; stroke-dashoffset: 0; stroke: #1f77b4; stroke-width: 1.5"/>
    </g>
    <g id="text_25">
     <!-- $f_0 = 20.7 \mathrm{Hz}, \gamma_g = 21.4\mathrm{s^-1}$ -->
     <g transform="translate(94.6 217.902125)scale(0.1 -0.1)">
      <use xlink:href="#DejaVuSans-Oblique-66" transform="translate(0 0.015625)"/>
      <use xlink:href="#DejaVuSans-30" transform="translate(35.205078 -16.390625)scale(0.7)"/>
      <use xlink:href="#DejaVuSans-3d" transform="translate(101.958008 0.015625)"/>
      <use xlink:href="#DejaVuSans-32" transform="translate(205.229492 0.015625)"/>
      <use xlink:href="#DejaVuSans-30" transform="translate(268.852539 0.015625)"/>
      <use xlink:href="#DejaVuSans-2e" transform="translate(332.475586 0.015625)"/>
      <use xlink:href="#DejaVuSans-37" transform="translate(356.512695 0.015625)"/>
      <use xlink:href="#DejaVuSans-48" transform="translate(420.135742 0.015625)"/>
      <use xlink:href="#DejaVuSans-7a" transform="translate(495.331055 0.015625)"/>
      <use xlink:href="#DejaVuSans-2c" transform="translate(547.821289 0.015625)"/>
      <use xlink:href="#DejaVuSans-Oblique-3b3" transform="translate(599.09082 0.015625)"/>
      <use xlink:href="#DejaVuSans-Oblique-67" transform="translate(658.270508 -16.390625)scale(0.7)"/>
      <use xlink:href="#DejaVuSans-3d" transform="translate(724.920898 0.015625)"/>
      <use xlink:href="#DejaVuSans-32" transform="translate(828.192383 0.015625)"/>
      <use xlink:href="#DejaVuSans-31" transform="translate(891.81543 0.015625)"/>
      <use xlink:href="#DejaVuSans-2e" transform="translate(955.438477 0.015625)"/>
      <use xlink:href="#DejaVuSans-34" transform="translate(987.225586 0.015625)"/>
      <use xlink:href="#DejaVuSans-73" transform="translate(1050.848633 0.015625)"/>
      <use xlink:href="#DejaVuSans-2212" transform="translate(1117.542969 38.296875)scale(0.7)"/>
      <use xlink:href="#DejaVuSans-31" transform="translate(1192.567383 0.015625)"/>
     </g>
    </g>
    <g id="PathCollection_8">
     <g>
      <use xlink:href="#m5c1c1495a9" x="76.6" y="230.975562" style="fill: #ff7f0e; stroke: #ff7f0e"/>
     </g>
    </g>
    <g id="text_26">
     <!-- $35.7 \mathrm{Pa}$ -->
     <g transform="translate(94.6 233.600562)scale(0.1 -0.1)">
      <use xlink:href="#DejaVuSans-33" transform="translate(0 0.78125)"/>
      <use xlink:href="#DejaVuSans-35" transform="translate(63.623047 0.78125)"/>
      <use xlink:href="#DejaVuSans-2e" transform="translate(127.246094 0.78125)"/>
      <use xlink:href="#DejaVuSans-37" transform="translate(151.283203 0.78125)"/>
      <use xlink:href="#DejaVuSans-50" transform="translate(214.90625 0.78125)"/>
      <use xlink:href="#DejaVuSans-61" transform="translate(275.208984 0.78125)"/>
     </g>
    </g>
    <g id="line2d_31">
     <path d="M 66.6 244.78025 
L 76.6 244.78025 
L 86.6 244.78025 
" style="fill: none; stroke-dasharray: 5.55,2.4; stroke-dashoffset: 0; stroke: #ff7f0e; stroke-width: 1.5"/>
    </g>
    <g id="text_27">
     <!-- $f_0 = 25.6 \mathrm{Hz}, \gamma_g = 46.3\mathrm{s^-1}$ -->
     <g transform="translate(94.6 248.28025)scale(0.1 -0.1)">
      <use xlink:href="#DejaVuSans-Oblique-66" transform="translate(0 0.015625)"/>
      <use xlink:href="#DejaVuSans-30" transform="translate(35.205078 -16.390625)scale(0.7)"/>
      <use xlink:href="#DejaVuSans-3d" transform="translate(101.958008 0.015625)"/>
      <use xlink:href="#DejaVuSans-32" transform="translate(205.229492 0.015625)"/>
      <use xlink:href="#DejaVuSans-35" transform="translate(268.852539 0.015625)"/>
      <use xlink:href="#DejaVuSans-2e" transform="translate(332.475586 0.015625)"/>
      <use xlink:href="#DejaVuSans-36" transform="translate(364.262695 0.015625)"/>
      <use xlink:href="#DejaVuSans-48" transform="translate(427.885742 0.015625)"/>
      <use xlink:href="#DejaVuSans-7a" transform="translate(503.081055 0.015625)"/>
      <use xlink:href="#DejaVuSans-2c" transform="translate(555.571289 0.015625)"/>
      <use xlink:href="#DejaVuSans-Oblique-3b3" transform="translate(606.84082 0.015625)"/>
      <use xlink:href="#DejaVuSans-Oblique-67" transform="translate(666.020508 -16.390625)scale(0.7)"/>
      <use xlink:href="#DejaVuSans-3d" transform="translate(732.670898 0.015625)"/>
      <use xlink:href="#DejaVuSans-34" transform="translate(835.942383 0.015625)"/>
      <use xlink:href="#DejaVuSans-36" transform="translate(899.56543 0.015625)"/>
      <use xlink:href="#DejaVuSans-2e" transform="translate(963.188477 0.015625)"/>
      <use xlink:href="#DejaVuSans-33" transform="translate(994.975586 0.015625)"/>
      <use xlink:href="#DejaVuSans-73" transform="translate(1058.598633 0.015625)"/>
      <use xlink:href="#DejaVuSans-2212" transform="translate(1125.292969 38.296875)scale(0.7)"/>
      <use xlink:href="#DejaVuSans-31" transform="translate(1200.317383 0.015625)"/>
     </g>
    </g>
   </g>
  </g>
  <g id="text_28">
   <!-- $f_{NF} / \mathrm{Hz} $ -->
   <g transform="translate(215.8 331.776)scale(0.1 -0.1)">
    <defs>
     <path id="DejaVuSans-Oblique-4e" d="M 1081 4666 
L 1931 4666 
L 3219 666 
L 4000 4666 
L 4616 4666 
L 3706 0 
L 2853 0 
L 1569 4025 
L 788 0 
L 172 0 
L 1081 4666 
z
" transform="scale(0.015625)"/>
     <path id="DejaVuSans-Oblique-46" d="M 1081 4666 
L 3756 4666 
L 3653 4134 
L 1606 4134 
L 1338 2759 
L 3188 2759 
L 3084 2228 
L 1234 2228 
L 800 0 
L 172 0 
L 1081 4666 
z
" transform="scale(0.015625)"/>
     <path id="DejaVuSans-2f" d="M 1625 4666 
L 2156 4666 
L 531 -594 
L 0 -594 
L 1625 4666 
z
" transform="scale(0.015625)"/>
    </defs>
    <use xlink:href="#DejaVuSans-Oblique-66" transform="translate(0 0.015625)"/>
    <use xlink:href="#DejaVuSans-Oblique-4e" transform="translate(35.205078 -16.390625)scale(0.7)"/>
    <use xlink:href="#DejaVuSans-Oblique-46" transform="translate(87.568359 -16.390625)scale(0.7)"/>
    <use xlink:href="#DejaVuSans-2f" transform="translate(130.566406 0.015625)"/>
    <use xlink:href="#DejaVuSans-48" transform="translate(164.257812 0.015625)"/>
    <use xlink:href="#DejaVuSans-7a" transform="translate(239.453125 0.015625)"/>
   </g>
  </g>
  <g id="text_29">
   <!-- $A / \mathrm{\mu m}$ -->
   <g transform="translate(26.010125 186)rotate(-90)scale(0.1 -0.1)">
    <defs>
     <path id="DejaVuSans-Oblique-41" d="M 2356 4666 
L 3072 4666 
L 3938 0 
L 3278 0 
L 3084 1197 
L 984 1197 
L 325 0 
L -341 0 
L 2356 4666 
z
M 2584 4044 
L 1275 1722 
L 2988 1722 
L 2584 4044 
z
" transform="scale(0.015625)"/>
     <path id="DejaVuSans-3bc" d="M 544 -1331 
L 544 3500 
L 1119 3500 
L 1119 1325 
Q 1119 872 1334 640 
Q 1550 409 1972 409 
Q 2434 409 2667 671 
Q 2900 934 2900 1459 
L 2900 3500 
L 3475 3500 
L 3475 806 
Q 3475 619 3529 530 
Q 3584 441 3700 441 
Q 3728 441 3778 458 
Q 3828 475 3916 513 
L 3916 50 
Q 3788 -22 3673 -56 
Q 3559 -91 3450 -91 
Q 3234 -91 3106 31 
Q 2978 153 2931 403 
Q 2775 156 2548 32 
Q 2322 -91 2016 -91 
Q 1697 -91 1473 31 
Q 1250 153 1119 397 
L 1119 -1331 
L 544 -1331 
z
" transform="scale(0.015625)"/>
     <path id="DejaVuSans-6d" d="M 3328 2828 
Q 3544 3216 3844 3400 
Q 4144 3584 4550 3584 
Q 5097 3584 5394 3201 
Q 5691 2819 5691 2113 
L 5691 0 
L 5113 0 
L 5113 2094 
Q 5113 2597 4934 2840 
Q 4756 3084 4391 3084 
Q 3944 3084 3684 2787 
Q 3425 2491 3425 1978 
L 3425 0 
L 2847 0 
L 2847 2094 
Q 2847 2600 2669 2842 
Q 2491 3084 2119 3084 
Q 1678 3084 1418 2786 
Q 1159 2488 1159 1978 
L 1159 0 
L 581 0 
L 581 3500 
L 1159 3500 
L 1159 2956 
Q 1356 3278 1631 3431 
Q 1906 3584 2284 3584 
Q 2666 3584 2933 3390 
Q 3200 3197 3328 2828 
z
" transform="scale(0.015625)"/>
    </defs>
    <use xlink:href="#DejaVuSans-Oblique-41" transform="translate(0 0.09375)"/>
    <use xlink:href="#DejaVuSans-2f" transform="translate(68.408203 0.09375)"/>
    <use xlink:href="#DejaVuSans-3bc" transform="translate(102.099609 0.09375)"/>
    <use xlink:href="#DejaVuSans-6d" transform="translate(165.722656 0.09375)"/>
   </g>
  </g>
 </g>
 <defs>
  <clipPath id="p7494798f4e">
   <rect x="57.6" y="41.472" width="357.12" height="120.96"/>
  </clipPath>
  <clipPath id="p4880d6a12d">
   <rect x="57.6" y="186.624" width="357.12" height="120.96"/>
  </clipPath>
 </defs>
</svg>
